<?xml version="1.0" encoding="utf-8" standalone="no"?>
<!DOCTYPE svg PUBLIC "-//W3C//DTD SVG 1.1//EN"
  "http://www.w3.org/Graphics/SVG/1.1/DTD/svg11.dtd">
<svg xmlns:xlink="http://www.w3.org/1999/xlink" width="334.754687pt" height="211.169378pt" viewBox="0 0 334.754687 211.169378" xmlns="http://www.w3.org/2000/svg" version="1.1">
 <metadata>
  <rdf:RDF xmlns:dc="http://purl.org/dc/elements/1.1/" xmlns:cc="http://creativecommons.org/ns#" xmlns:rdf="http://www.w3.org/1999/02/22-rdf-syntax-ns#">
   <cc:Work>
    <dc:type rdf:resource="http://purl.org/dc/dcmitype/StillImage"/>
    <dc:date>2024-07-19T14:24:25.933266</dc:date>
    <dc:format>image/svg+xml</dc:format>
    <dc:creator>
     <cc:Agent>
      <dc:title>Matplotlib v3.9.1, https://matplotlib.org/</dc:title>
     </cc:Agent>
    </dc:creator>
   </cc:Work>
  </rdf:RDF>
 </metadata>
 <defs>
  <style type="text/css">*{stroke-linejoin: round; stroke-linecap: butt}</style>
 </defs>
 <g id="figure_1">
  <g id="patch_1">
   <path d="M 0 211.169378 
L 334.754687 211.169378 
L 334.754687 0 
L 0 0 
z
" style="fill: #ffffff"/>
  </g>
  <g id="axes_1">
   <g id="patch_2">
    <path d="M 40.603125 173.613128 
L 319.603125 173.613128 
L 319.603125 7.293128 
L 40.603125 7.293128 
z
" style="fill: #ffffff"/>
   </g>
   <g id="PolyCollection_1">
    <defs>
     <path id="m0f7f4a9ccf" d="M 51.642118 -37.566766 
L 51.642118 -37.55625 
L 51.839616 -37.55625 
L 52.037113 -37.55625 
L 52.234611 -37.55625 
L 52.432108 -37.55625 
L 52.629606 -37.55625 
L 52.827104 -37.55625 
L 53.024601 -37.55625 
L 53.222099 -37.55625 
L 53.419596 -37.55625 
L 53.617094 -37.55625 
L 53.814591 -37.55625 
L 54.012089 -37.55625 
L 54.209586 -37.55625 
L 54.407084 -37.55625 
L 54.604582 -37.55625 
L 54.802079 -37.55625 
L 54.999577 -37.55625 
L 55.197074 -37.55625 
L 55.394572 -37.55625 
L 55.592069 -37.55625 
L 55.789567 -37.55625 
L 55.987064 -37.55625 
L 56.184562 -37.55625 
L 56.38206 -37.55625 
L 56.579557 -37.55625 
L 56.777055 -37.55625 
L 56.974552 -37.55625 
L 57.17205 -37.55625 
L 57.369547 -37.55625 
L 57.567045 -37.55625 
L 57.764542 -37.55625 
L 57.96204 -37.55625 
L 58.159538 -37.55625 
L 58.357035 -37.55625 
L 58.554533 -37.55625 
L 58.75203 -37.55625 
L 58.949528 -37.55625 
L 59.147025 -37.55625 
L 59.344523 -37.55625 
L 59.54202 -37.55625 
L 59.739518 -37.55625 
L 59.937016 -37.55625 
L 60.134513 -37.55625 
L 60.332011 -37.55625 
L 60.529508 -37.55625 
L 60.727006 -37.55625 
L 60.924503 -37.55625 
L 61.122001 -37.55625 
L 61.319498 -37.55625 
L 61.516996 -37.55625 
L 61.714494 -37.55625 
L 61.911991 -37.55625 
L 62.109489 -37.55625 
L 62.306986 -37.55625 
L 62.504484 -37.55625 
L 62.701981 -37.55625 
L 62.899479 -37.55625 
L 63.096976 -37.55625 
L 63.294474 -37.55625 
L 63.491972 -37.55625 
L 63.689469 -37.55625 
L 63.886967 -37.55625 
L 64.084464 -37.55625 
L 64.281962 -37.55625 
L 64.479459 -37.55625 
L 64.676957 -37.55625 
L 64.874454 -37.55625 
L 65.071952 -37.55625 
L 65.26945 -37.55625 
L 65.466947 -37.55625 
L 65.664445 -37.55625 
L 65.861942 -37.55625 
L 66.05944 -37.55625 
L 66.256937 -37.55625 
L 66.454435 -37.55625 
L 66.651932 -37.55625 
L 66.84943 -37.55625 
L 67.046928 -37.55625 
L 67.244425 -37.55625 
L 67.441923 -37.55625 
L 67.63942 -37.55625 
L 67.836918 -37.55625 
L 68.034415 -37.55625 
L 68.231913 -37.55625 
L 68.42941 -37.55625 
L 68.626908 -37.55625 
L 68.824406 -37.55625 
L 69.021903 -37.55625 
L 69.219401 -37.55625 
L 69.416898 -37.55625 
L 69.614396 -37.55625 
L 69.811893 -37.55625 
L 70.009391 -37.55625 
L 70.206888 -37.55625 
L 70.404386 -37.55625 
L 70.601884 -37.55625 
L 70.799381 -37.55625 
L 70.996879 -37.55625 
L 71.194376 -37.55625 
L 71.391874 -37.55625 
L 71.589371 -37.55625 
L 71.786869 -37.55625 
L 71.984366 -37.55625 
L 72.181864 -37.55625 
L 72.379362 -37.55625 
L 72.576859 -37.55625 
L 72.774357 -37.55625 
L 72.971854 -37.55625 
L 73.169352 -37.55625 
L 73.366849 -37.55625 
L 73.564347 -37.55625 
L 73.761844 -37.55625 
L 73.959342 -37.55625 
L 74.15684 -37.55625 
L 74.354337 -37.55625 
L 74.551835 -37.55625 
L 74.749332 -37.55625 
L 74.94683 -37.55625 
L 75.144327 -37.55625 
L 75.341825 -37.55625 
L 75.539322 -37.55625 
L 75.73682 -37.55625 
L 75.934318 -37.55625 
L 76.131815 -37.55625 
L 76.329313 -37.55625 
L 76.52681 -37.55625 
L 76.724308 -37.55625 
L 76.921805 -37.55625 
L 77.119303 -37.55625 
L 77.3168 -37.55625 
L 77.514298 -37.55625 
L 77.711796 -37.55625 
L 77.909293 -37.55625 
L 78.106791 -37.55625 
L 78.304288 -37.55625 
L 78.501786 -37.55625 
L 78.699283 -37.55625 
L 78.896781 -37.55625 
L 79.094278 -37.55625 
L 79.291776 -37.55625 
L 79.489274 -37.55625 
L 79.686771 -37.55625 
L 79.884269 -37.55625 
L 80.081766 -37.55625 
L 80.279264 -37.55625 
L 80.476761 -37.55625 
L 80.674259 -37.55625 
L 80.871756 -37.55625 
L 81.069254 -37.55625 
L 81.266752 -37.55625 
L 81.464249 -37.55625 
L 81.661747 -37.55625 
L 81.859244 -37.55625 
L 82.056742 -37.55625 
L 82.254239 -37.55625 
L 82.451737 -37.55625 
L 82.649234 -37.55625 
L 82.846732 -37.55625 
L 83.04423 -37.55625 
L 83.241727 -37.55625 
L 83.439225 -37.55625 
L 83.636722 -37.55625 
L 83.83422 -37.55625 
L 84.031717 -37.55625 
L 84.229215 -37.55625 
L 84.426712 -37.55625 
L 84.62421 -37.55625 
L 84.821708 -37.55625 
L 85.019205 -37.55625 
L 85.216703 -37.55625 
L 85.4142 -37.55625 
L 85.611698 -37.55625 
L 85.809195 -37.55625 
L 86.006693 -37.55625 
L 86.20419 -37.55625 
L 86.401688 -37.55625 
L 86.599186 -37.55625 
L 86.796683 -37.55625 
L 86.994181 -37.55625 
L 87.191678 -37.55625 
L 87.389176 -37.55625 
L 87.586673 -37.55625 
L 87.784171 -37.55625 
L 87.981668 -37.55625 
L 88.179166 -37.55625 
L 88.376664 -37.55625 
L 88.574161 -37.55625 
L 88.771659 -37.55625 
L 88.969156 -37.55625 
L 89.166654 -37.55625 
L 89.364151 -37.55625 
L 89.561649 -37.55625 
L 89.759146 -37.55625 
L 89.956644 -37.55625 
L 90.154142 -37.55625 
L 90.351639 -37.55625 
L 90.549137 -37.55625 
L 90.746634 -37.55625 
L 90.944132 -37.55625 
L 90.944132 -37.561555 
L 90.944132 -37.561555 
L 90.746634 -37.564605 
L 90.549137 -37.569109 
L 90.351639 -37.575596 
L 90.154142 -37.584707 
L 89.956644 -37.59719 
L 89.759146 -37.613876 
L 89.561649 -37.635645 
L 89.364151 -37.663381 
L 89.166654 -37.697919 
L 88.969156 -37.739992 
L 88.771659 -37.790199 
L 88.574161 -37.848987 
L 88.376664 -37.916668 
L 88.179166 -37.993473 
L 87.981668 -38.079626 
L 87.784171 -38.175444 
L 87.586673 -38.281437 
L 87.389176 -38.3984 
L 87.191678 -38.527475 
L 86.994181 -38.670191 
L 86.796683 -38.828477 
L 86.599186 -39.004653 
L 86.401688 -39.201417 
L 86.20419 -39.421821 
L 86.006693 -39.669241 
L 85.809195 -39.947328 
L 85.611698 -40.259925 
L 85.4142 -40.61094 
L 85.216703 -41.004195 
L 85.019205 -41.443265 
L 84.821708 -41.931355 
L 84.62421 -42.471247 
L 84.426712 -43.065361 
L 84.229215 -43.715902 
L 84.031717 -44.42506 
L 83.83422 -45.195178 
L 83.636722 -46.028809 
L 83.439225 -46.928605 
L 83.241727 -47.897028 
L 83.04423 -48.935973 
L 82.846732 -50.04642 
L 82.649234 -51.228269 
L 82.451737 -52.480469 
L 82.254239 -53.801465 
L 82.056742 -55.18986 
L 81.859244 -56.645122 
L 81.661747 -58.168097 
L 81.464249 -59.761137 
L 81.266752 -61.427795 
L 81.069254 -63.172154 
L 80.871756 -64.998011 
L 80.674259 -66.908165 
L 80.476761 -68.904019 
L 80.279264 -70.985531 
L 80.081766 -73.15138 
L 79.884269 -75.399074 
L 79.686771 -77.724703 
L 79.489274 -80.122202 
L 79.291776 -82.582197 
L 79.094278 -85.090825 
L 78.896781 -87.629067 
L 78.699283 -90.17313 
L 78.501786 -92.696197 
L 78.304288 -95.171438 
L 78.106791 -97.575779 
L 77.909293 -99.893562 
L 77.711796 -102.119211 
L 77.514298 -104.258214 
L 77.3168 -106.32618 
L 77.119303 -108.346264 
L 76.921805 -110.345645 
L 76.724308 -112.351887 
L 76.52681 -114.389881 
L 76.329313 -116.479676 
L 76.131815 -118.635087 
L 75.934318 -120.862707 
L 75.73682 -123.160894 
L 75.539322 -125.518611 
L 75.341825 -127.91436 
L 75.144327 -130.315856 
L 74.94683 -132.681165 
L 74.749332 -134.961806 
L 74.551835 -137.10777 
L 74.354337 -139.07371 
L 74.15684 -140.825044 
L 73.959342 -142.342523 
L 73.761844 -143.62412 
L 73.564347 -144.683796 
L 73.366849 -145.547553 
L 73.169352 -146.247901 
L 72.971854 -146.818201 
L 72.774357 -147.288166 
L 72.576859 -147.681219 
L 72.379362 -148.013657 
L 72.181864 -148.294954 
L 71.984366 -148.528293 
L 71.786869 -148.710622 
L 71.589371 -148.832085 
L 71.391874 -148.875264 
L 71.194376 -148.815101 
L 70.996879 -148.620322 
L 70.799381 -148.256768 
L 70.601884 -147.692286 
L 70.404386 -146.902181 
L 70.206888 -145.87382 
L 70.009391 -144.609104 
L 69.811893 -143.124097 
L 69.614396 -141.445939 
L 69.416898 -139.607991 
L 69.219401 -137.644595 
L 69.021903 -135.586841 
L 68.824406 -133.460242 
L 68.626908 -131.284452 
L 68.42941 -129.074508 
L 68.231913 -126.842597 
L 68.034415 -124.599415 
L 67.836918 -122.354522 
L 67.63942 -120.115695 
L 67.441923 -117.887769 
L 67.244425 -115.671714 
L 67.046928 -113.464562 
L 66.84943 -111.260429 
L 66.651932 -109.052375 
L 66.454435 -106.834466 
L 66.256937 -104.603331 
L 66.05944 -102.358661 
L 65.861942 -100.10256 
L 65.664445 -97.83809 
L 65.466947 -95.567645 
L 65.26945 -93.291852 
L 65.071952 -91.009447 
L 64.874454 -88.718168 
L 64.676957 -86.416317 
L 64.479459 -84.104388 
L 64.281962 -81.786136 
L 64.084464 -79.468715 
L 63.886967 -77.161864 
L 63.689469 -74.876457 
L 63.491972 -72.622969 
L 63.294474 -70.410386 
L 63.096976 -68.245896 
L 62.899479 -66.135401 
L 62.701981 -64.084582 
L 62.504484 -62.100068 
L 62.306986 -60.190252 
L 62.109489 -58.365435 
L 61.911991 -56.637204 
L 61.714494 -55.017212 
L 61.516996 -53.515666 
L 61.319498 -52.139892 
L 61.122001 -50.893275 
L 60.924503 -49.774758 
L 60.727006 -48.778899 
L 60.529508 -47.896405 
L 60.332011 -47.114985 
L 60.134513 -46.420365 
L 59.937016 -45.797355 
L 59.739518 -45.230891 
L 59.54202 -44.707003 
L 59.344523 -44.213665 
L 59.147025 -43.741484 
L 58.949528 -43.284142 
L 58.75203 -42.838546 
L 58.554533 -42.404642 
L 58.357035 -41.984907 
L 58.159538 -41.583579 
L 57.96204 -41.205744 
L 57.764542 -40.856414 
L 57.567045 -40.539706 
L 57.369547 -40.258241 
L 57.17205 -40.012795 
L 56.974552 -39.802221 
L 56.777055 -39.623595 
L 56.579557 -39.472549 
L 56.38206 -39.343715 
L 56.184562 -39.231233 
L 55.987064 -39.129265 
L 55.789567 -39.032476 
L 55.592069 -38.936438 
L 55.394572 -38.837937 
L 55.197074 -38.735136 
L 54.999577 -38.627595 
L 54.802079 -38.516151 
L 54.604582 -38.402658 
L 54.407084 -38.289647 
L 54.209586 -38.179945 
L 54.012089 -38.076301 
L 53.814591 -37.981073 
L 53.617094 -37.896014 
L 53.419596 -37.822155 
L 53.222099 -37.759801 
L 53.024601 -37.708609 
L 52.827104 -37.667731 
L 52.629606 -37.635971 
L 52.432108 -37.611956 
L 52.234611 -37.594282 
L 52.037113 -37.581616 
L 51.839616 -37.572776 
L 51.642118 -37.566766 
z
" style="stroke: #0000ff; stroke-width: 2"/>
    </defs>
    <g clip-path="url(#p077671a950)">
     <use xlink:href="#m0f7f4a9ccf" x="0" y="211.169378" style="fill: #0000ff; fill-opacity: 0.6; stroke: #0000ff; stroke-width: 2"/>
    </g>
   </g>
   <g id="PolyCollection_2">
    <defs>
     <path id="m80cde7496a" d="M 287.010689 -37.563349 
L 287.010689 -37.55625 
L 287.17001 -37.55625 
L 287.329331 -37.55625 
L 287.488652 -37.55625 
L 287.647973 -37.55625 
L 287.807294 -37.55625 
L 287.966615 -37.55625 
L 288.125936 -37.55625 
L 288.285257 -37.55625 
L 288.444578 -37.55625 
L 288.603899 -37.55625 
L 288.76322 -37.55625 
L 288.922541 -37.55625 
L 289.081862 -37.55625 
L 289.241183 -37.55625 
L 289.400504 -37.55625 
L 289.559825 -37.55625 
L 289.719146 -37.55625 
L 289.878467 -37.55625 
L 290.037788 -37.55625 
L 290.197109 -37.55625 
L 290.35643 -37.55625 
L 290.515751 -37.55625 
L 290.675072 -37.55625 
L 290.834393 -37.55625 
L 290.993713 -37.55625 
L 291.153034 -37.55625 
L 291.312355 -37.55625 
L 291.471676 -37.55625 
L 291.630997 -37.55625 
L 291.790318 -37.55625 
L 291.949639 -37.55625 
L 292.10896 -37.55625 
L 292.268281 -37.55625 
L 292.427602 -37.55625 
L 292.586923 -37.55625 
L 292.746244 -37.55625 
L 292.905565 -37.55625 
L 293.064886 -37.55625 
L 293.224207 -37.55625 
L 293.383528 -37.55625 
L 293.542849 -37.55625 
L 293.70217 -37.55625 
L 293.861491 -37.55625 
L 294.020812 -37.55625 
L 294.180133 -37.55625 
L 294.339454 -37.55625 
L 294.498775 -37.55625 
L 294.658096 -37.55625 
L 294.817417 -37.55625 
L 294.976737 -37.55625 
L 295.136058 -37.55625 
L 295.295379 -37.55625 
L 295.4547 -37.55625 
L 295.614021 -37.55625 
L 295.773342 -37.55625 
L 295.932663 -37.55625 
L 296.091984 -37.55625 
L 296.251305 -37.55625 
L 296.410626 -37.55625 
L 296.569947 -37.55625 
L 296.729268 -37.55625 
L 296.888589 -37.55625 
L 297.04791 -37.55625 
L 297.207231 -37.55625 
L 297.366552 -37.55625 
L 297.525873 -37.55625 
L 297.685194 -37.55625 
L 297.844515 -37.55625 
L 298.003836 -37.55625 
L 298.163157 -37.55625 
L 298.322478 -37.55625 
L 298.481799 -37.55625 
L 298.64112 -37.55625 
L 298.800441 -37.55625 
L 298.959761 -37.55625 
L 299.119082 -37.55625 
L 299.278403 -37.55625 
L 299.437724 -37.55625 
L 299.597045 -37.55625 
L 299.756366 -37.55625 
L 299.915687 -37.55625 
L 300.075008 -37.55625 
L 300.234329 -37.55625 
L 300.39365 -37.55625 
L 300.552971 -37.55625 
L 300.712292 -37.55625 
L 300.871613 -37.55625 
L 301.030934 -37.55625 
L 301.190255 -37.55625 
L 301.349576 -37.55625 
L 301.508897 -37.55625 
L 301.668218 -37.55625 
L 301.827539 -37.55625 
L 301.98686 -37.55625 
L 302.146181 -37.55625 
L 302.305502 -37.55625 
L 302.464823 -37.55625 
L 302.624144 -37.55625 
L 302.783465 -37.55625 
L 302.942785 -37.55625 
L 303.102106 -37.55625 
L 303.261427 -37.55625 
L 303.420748 -37.55625 
L 303.580069 -37.55625 
L 303.73939 -37.55625 
L 303.898711 -37.55625 
L 304.058032 -37.55625 
L 304.217353 -37.55625 
L 304.376674 -37.55625 
L 304.535995 -37.55625 
L 304.695316 -37.55625 
L 304.854637 -37.55625 
L 305.013958 -37.55625 
L 305.173279 -37.55625 
L 305.3326 -37.55625 
L 305.491921 -37.55625 
L 305.651242 -37.55625 
L 305.810563 -37.55625 
L 305.969884 -37.55625 
L 306.129205 -37.55625 
L 306.288526 -37.55625 
L 306.447847 -37.55625 
L 306.607168 -37.55625 
L 306.766489 -37.55625 
L 306.925809 -37.55625 
L 307.08513 -37.55625 
L 307.244451 -37.55625 
L 307.403772 -37.55625 
L 307.563093 -37.55625 
L 307.722414 -37.55625 
L 307.881735 -37.55625 
L 308.041056 -37.55625 
L 308.200377 -37.55625 
L 308.359698 -37.55625 
L 308.519019 -37.55625 
L 308.67834 -37.55625 
L 308.837661 -37.55625 
L 308.996982 -37.55625 
L 309.156303 -37.55625 
L 309.315624 -37.55625 
L 309.474945 -37.55625 
L 309.634266 -37.55625 
L 309.793587 -37.55625 
L 309.952908 -37.55625 
L 310.112229 -37.55625 
L 310.27155 -37.55625 
L 310.430871 -37.55625 
L 310.590192 -37.55625 
L 310.749513 -37.55625 
L 310.908833 -37.55625 
L 311.068154 -37.55625 
L 311.227475 -37.55625 
L 311.386796 -37.55625 
L 311.546117 -37.55625 
L 311.705438 -37.55625 
L 311.864759 -37.55625 
L 312.02408 -37.55625 
L 312.183401 -37.55625 
L 312.342722 -37.55625 
L 312.502043 -37.55625 
L 312.661364 -37.55625 
L 312.820685 -37.55625 
L 312.980006 -37.55625 
L 313.139327 -37.55625 
L 313.298648 -37.55625 
L 313.457969 -37.55625 
L 313.61729 -37.55625 
L 313.776611 -37.55625 
L 313.935932 -37.55625 
L 314.095253 -37.55625 
L 314.254574 -37.55625 
L 314.413895 -37.55625 
L 314.573216 -37.55625 
L 314.732537 -37.55625 
L 314.891857 -37.55625 
L 315.051178 -37.55625 
L 315.210499 -37.55625 
L 315.36982 -37.55625 
L 315.529141 -37.55625 
L 315.688462 -37.55625 
L 315.847783 -37.55625 
L 316.007104 -37.55625 
L 316.166425 -37.55625 
L 316.325746 -37.55625 
L 316.485067 -37.55625 
L 316.644388 -37.55625 
L 316.803709 -37.55625 
L 316.96303 -37.55625 
L 317.122351 -37.55625 
L 317.281672 -37.55625 
L 317.440993 -37.55625 
L 317.600314 -37.55625 
L 317.759635 -37.55625 
L 317.918956 -37.55625 
L 318.078277 -37.55625 
L 318.237598 -37.55625 
L 318.396919 -37.55625 
L 318.55624 -37.55625 
L 318.715561 -37.55625 
L 318.715561 -37.563365 
L 318.715561 -37.563365 
L 318.55624 -37.567899 
L 318.396919 -37.574791 
L 318.237598 -37.584948 
L 318.078277 -37.599452 
L 317.918956 -37.619521 
L 317.759635 -37.646433 
L 317.600314 -37.681415 
L 317.440993 -37.72552 
L 317.281672 -37.779518 
L 317.122351 -37.843835 
L 316.96303 -37.918589 
L 316.803709 -38.003747 
L 316.644388 -38.099412 
L 316.485067 -38.206215 
L 316.325746 -38.325725 
L 316.166425 -38.460784 
L 316.007104 -38.615635 
L 315.847783 -38.795741 
L 315.688462 -39.007266 
L 315.529141 -39.25627 
L 315.36982 -39.5478 
L 315.210499 -39.88514 
L 315.051178 -40.269529 
L 314.891857 -40.700589 
L 314.732537 -41.177581 
L 314.573216 -41.701312 
L 314.413895 -42.276323 
L 314.254574 -42.912705 
L 314.095253 -43.626845 
L 313.935932 -44.440535 
L 313.776611 -45.37819 
L 313.61729 -46.462502 
L 313.457969 -47.709396 
L 313.298648 -49.123624 
L 313.139327 -50.69652 
L 312.980006 -52.407121 
L 312.820685 -54.227169 
L 312.661364 -56.1294 
L 312.502043 -58.097402 
L 312.342722 -60.134379 
L 312.183401 -62.267895 
L 312.02408 -64.548175 
L 311.864759 -67.038927 
L 311.705438 -69.801621 
L 311.546117 -72.876282 
L 311.386796 -76.263455 
L 311.227475 -79.912557 
L 311.068154 -83.720978 
L 310.908833 -87.546012 
L 310.749513 -91.228488 
L 310.590192 -94.623604 
L 310.430871 -97.63192 
L 310.27155 -100.222567 
L 310.112229 -102.441967 
L 309.952908 -104.404639 
L 309.793587 -106.267193 
L 309.634266 -108.191255 
L 309.474945 -110.304539 
L 309.315624 -112.670341 
L 309.156303 -115.274066 
L 308.996982 -118.031114 
L 308.837661 -120.81468 
L 308.67834 -123.496342 
L 308.519019 -125.988246 
L 308.359698 -128.274695 
L 308.200377 -130.42334 
L 308.041056 -132.571559 
L 307.881735 -134.890578 
L 307.722414 -137.536551 
L 307.563093 -140.602116 
L 307.403772 -144.082688 
L 307.244451 -147.868265 
L 307.08513 -151.764828 
L 306.925809 -155.541053 
L 306.766489 -158.988518 
L 306.607168 -161.978986 
L 306.447847 -164.502228 
L 306.288526 -166.672515 
L 306.129205 -168.700164 
L 305.969884 -170.834312 
L 305.810563 -173.291559 
L 305.651242 -176.18983 
L 305.491921 -179.506269 
L 305.3326 -183.072031 
L 305.173279 -186.607039 
L 305.013958 -189.786706 
L 304.854637 -192.323386 
L 304.695316 -194.040634 
L 304.535995 -194.919601 
L 304.376674 -195.104011 
L 304.217353 -194.861198 
L 304.058032 -194.508706 
L 303.898711 -194.325553 
L 303.73939 -194.471824 
L 303.580069 -194.938311 
L 303.420748 -195.540093 
L 303.261427 -195.95625 
L 303.102106 -195.805658 
L 302.942785 -194.739263 
L 302.783465 -192.525102 
L 302.624144 -189.104555 
L 302.464823 -184.606227 
L 302.305502 -179.315213 
L 302.146181 -173.607024 
L 301.98686 -167.864162 
L 301.827539 -162.396893 
L 301.668218 -157.387519 
L 301.508897 -152.870239 
L 301.349576 -148.748755 
L 301.190255 -144.843915 
L 301.030934 -140.956529 
L 300.871613 -136.927765 
L 300.712292 -132.681665 
L 300.552971 -128.240359 
L 300.39365 -123.710605 
L 300.234329 -119.247992 
L 300.075008 -115.010553 
L 299.915687 -111.115266 
L 299.756366 -107.608973 
L 299.597045 -104.460319 
L 299.437724 -101.573122 
L 299.278403 -98.815788 
L 299.119082 -96.057627 
L 298.959761 -93.20189 
L 298.800441 -90.207179 
L 298.64112 -87.092716 
L 298.481799 -83.927646 
L 298.322478 -80.808686 
L 298.163157 -77.833066 
L 298.003836 -75.074166 
L 297.844515 -72.565802 
L 297.685194 -70.298178 
L 297.525873 -68.225236 
L 297.366552 -66.280189 
L 297.207231 -64.394364 
L 297.04791 -62.51422 
L 296.888589 -60.612527 
L 296.729268 -58.691701 
L 296.569947 -56.779521 
L 296.410626 -54.919343 
L 296.251305 -53.157978 
L 296.091984 -51.534524 
L 295.932663 -50.072686 
L 295.773342 -48.77785 
L 295.614021 -47.63881 
L 295.4547 -46.63292 
L 295.295379 -45.732806 
L 295.136058 -44.91275 
L 294.976737 -44.153292 
L 294.817417 -43.443293 
L 294.658096 -42.779514 
L 294.498775 -42.164332 
L 294.339454 -41.602583 
L 294.180133 -41.098501 
L 294.020812 -40.653531 
L 293.861491 -40.265362 
L 293.70217 -39.928196 
L 293.542849 -39.63391 
L 293.383528 -39.373659 
L 293.224207 -39.139418 
L 293.064886 -38.925113 
L 292.905565 -38.727163 
L 292.746244 -38.544426 
L 292.586923 -38.377689 
L 292.427602 -38.228926 
L 292.268281 -38.100516 
L 292.10896 -37.994601 
L 291.949639 -37.912641 
L 291.790318 -37.855199 
L 291.630997 -37.821888 
L 291.471676 -37.811413 
L 291.312355 -37.821645 
L 291.153034 -37.849693 
L 290.993713 -37.89195 
L 290.834393 -37.944167 
L 290.675072 -38.001565 
L 290.515751 -38.05904 
L 290.35643 -38.111473 
L 290.197109 -38.154118 
L 290.037788 -38.183028 
L 289.878467 -38.195449 
L 289.719146 -38.190102 
L 289.559825 -38.167296 
L 289.400504 -38.128843 
L 289.241183 -38.077778 
L 289.081862 -38.017946 
L 288.922541 -37.95351 
L 288.76322 -37.888474 
L 288.603899 -37.826287 
L 288.444578 -37.769578 
L 288.285257 -37.720048 
L 288.125936 -37.678486 
L 287.966615 -37.64491 
L 287.807294 -37.618751 
L 287.647973 -37.599073 
L 287.488652 -37.584767 
L 287.329331 -37.574707 
L 287.17001 -37.567861 
L 287.010689 -37.563349 
z
" style="stroke: #f08080; stroke-width: 2"/>
    </defs>
    <g clip-path="url(#p077671a950)">
     <use xlink:href="#m80cde7496a" x="0" y="211.169378" style="fill: #f08080; fill-opacity: 0.6; stroke: #f08080; stroke-width: 2"/>
    </g>
   </g>
   <g id="matplotlib.axis_1">
    <g id="xtick_1">
     <g id="line2d_1">
      <defs>
       <path id="m8d93d1ca54" d="M 0 0 
L 0 3.5 
" style="stroke: #000000; stroke-width: 0.8"/>
      </defs>
      <g>
       <use xlink:href="#m8d93d1ca54" x="40.603125" y="173.613128" style="stroke: #000000; stroke-width: 0.8"/>
      </g>
     </g>
     <g id="text_1">
      <!-- 0.0 -->
      <g transform="translate(32.651563 188.211565) scale(0.1 -0.1)">
       <defs>
        <path id="DejaVuSans-30" d="M 2034 4250 
Q 1547 4250 1301 3770 
Q 1056 3291 1056 2328 
Q 1056 1369 1301 889 
Q 1547 409 2034 409 
Q 2525 409 2770 889 
Q 3016 1369 3016 2328 
Q 3016 3291 2770 3770 
Q 2525 4250 2034 4250 
z
M 2034 4750 
Q 2819 4750 3233 4129 
Q 3647 3509 3647 2328 
Q 3647 1150 3233 529 
Q 2819 -91 2034 -91 
Q 1250 -91 836 529 
Q 422 1150 422 2328 
Q 422 3509 836 4129 
Q 1250 4750 2034 4750 
z
" transform="scale(0.015625)"/>
        <path id="DejaVuSans-2e" d="M 684 794 
L 1344 794 
L 1344 0 
L 684 0 
L 684 794 
z
" transform="scale(0.015625)"/>
       </defs>
       <use xlink:href="#DejaVuSans-30"/>
       <use xlink:href="#DejaVuSans-2e" x="63.623047"/>
       <use xlink:href="#DejaVuSans-30" x="95.410156"/>
      </g>
     </g>
    </g>
    <g id="xtick_2">
     <g id="line2d_2">
      <g>
       <use xlink:href="#m8d93d1ca54" x="96.403125" y="173.613128" style="stroke: #000000; stroke-width: 0.8"/>
      </g>
     </g>
     <g id="text_2">
      <!-- 0.2 -->
      <g transform="translate(88.451563 188.211565) scale(0.1 -0.1)">
       <defs>
        <path id="DejaVuSans-32" d="M 1228 531 
L 3431 531 
L 3431 0 
L 469 0 
L 469 531 
Q 828 903 1448 1529 
Q 2069 2156 2228 2338 
Q 2531 2678 2651 2914 
Q 2772 3150 2772 3378 
Q 2772 3750 2511 3984 
Q 2250 4219 1831 4219 
Q 1534 4219 1204 4116 
Q 875 4013 500 3803 
L 500 4441 
Q 881 4594 1212 4672 
Q 1544 4750 1819 4750 
Q 2544 4750 2975 4387 
Q 3406 4025 3406 3419 
Q 3406 3131 3298 2873 
Q 3191 2616 2906 2266 
Q 2828 2175 2409 1742 
Q 1991 1309 1228 531 
z
" transform="scale(0.015625)"/>
       </defs>
       <use xlink:href="#DejaVuSans-30"/>
       <use xlink:href="#DejaVuSans-2e" x="63.623047"/>
       <use xlink:href="#DejaVuSans-32" x="95.410156"/>
      </g>
     </g>
    </g>
    <g id="xtick_3">
     <g id="line2d_3">
      <g>
       <use xlink:href="#m8d93d1ca54" x="152.203125" y="173.613128" style="stroke: #000000; stroke-width: 0.8"/>
      </g>
     </g>
     <g id="text_3">
      <!-- 0.4 -->
      <g transform="translate(144.251563 188.211565) scale(0.1 -0.1)">
       <defs>
        <path id="DejaVuSans-34" d="M 2419 4116 
L 825 1625 
L 2419 1625 
L 2419 4116 
z
M 2253 4666 
L 3047 4666 
L 3047 1625 
L 3713 1625 
L 3713 1100 
L 3047 1100 
L 3047 0 
L 2419 0 
L 2419 1100 
L 313 1100 
L 313 1709 
L 2253 4666 
z
" transform="scale(0.015625)"/>
       </defs>
       <use xlink:href="#DejaVuSans-30"/>
       <use xlink:href="#DejaVuSans-2e" x="63.623047"/>
       <use xlink:href="#DejaVuSans-34" x="95.410156"/>
      </g>
     </g>
    </g>
    <g id="xtick_4">
     <g id="line2d_4">
      <g>
       <use xlink:href="#m8d93d1ca54" x="208.003125" y="173.613128" style="stroke: #000000; stroke-width: 0.8"/>
      </g>
     </g>
     <g id="text_4">
      <!-- 0.6 -->
      <g transform="translate(200.051563 188.211565) scale(0.1 -0.1)">
       <defs>
        <path id="DejaVuSans-36" d="M 2113 2584 
Q 1688 2584 1439 2293 
Q 1191 2003 1191 1497 
Q 1191 994 1439 701 
Q 1688 409 2113 409 
Q 2538 409 2786 701 
Q 3034 994 3034 1497 
Q 3034 2003 2786 2293 
Q 2538 2584 2113 2584 
z
M 3366 4563 
L 3366 3988 
Q 3128 4100 2886 4159 
Q 2644 4219 2406 4219 
Q 1781 4219 1451 3797 
Q 1122 3375 1075 2522 
Q 1259 2794 1537 2939 
Q 1816 3084 2150 3084 
Q 2853 3084 3261 2657 
Q 3669 2231 3669 1497 
Q 3669 778 3244 343 
Q 2819 -91 2113 -91 
Q 1303 -91 875 529 
Q 447 1150 447 2328 
Q 447 3434 972 4092 
Q 1497 4750 2381 4750 
Q 2619 4750 2861 4703 
Q 3103 4656 3366 4563 
z
" transform="scale(0.015625)"/>
       </defs>
       <use xlink:href="#DejaVuSans-30"/>
       <use xlink:href="#DejaVuSans-2e" x="63.623047"/>
       <use xlink:href="#DejaVuSans-36" x="95.410156"/>
      </g>
     </g>
    </g>
    <g id="xtick_5">
     <g id="line2d_5">
      <g>
       <use xlink:href="#m8d93d1ca54" x="263.803125" y="173.613128" style="stroke: #000000; stroke-width: 0.8"/>
      </g>
     </g>
     <g id="text_5">
      <!-- 0.8 -->
      <g transform="translate(255.851563 188.211565) scale(0.1 -0.1)">
       <defs>
        <path id="DejaVuSans-38" d="M 2034 2216 
Q 1584 2216 1326 1975 
Q 1069 1734 1069 1313 
Q 1069 891 1326 650 
Q 1584 409 2034 409 
Q 2484 409 2743 651 
Q 3003 894 3003 1313 
Q 3003 1734 2745 1975 
Q 2488 2216 2034 2216 
z
M 1403 2484 
Q 997 2584 770 2862 
Q 544 3141 544 3541 
Q 544 4100 942 4425 
Q 1341 4750 2034 4750 
Q 2731 4750 3128 4425 
Q 3525 4100 3525 3541 
Q 3525 3141 3298 2862 
Q 3072 2584 2669 2484 
Q 3125 2378 3379 2068 
Q 3634 1759 3634 1313 
Q 3634 634 3220 271 
Q 2806 -91 2034 -91 
Q 1263 -91 848 271 
Q 434 634 434 1313 
Q 434 1759 690 2068 
Q 947 2378 1403 2484 
z
M 1172 3481 
Q 1172 3119 1398 2916 
Q 1625 2713 2034 2713 
Q 2441 2713 2670 2916 
Q 2900 3119 2900 3481 
Q 2900 3844 2670 4047 
Q 2441 4250 2034 4250 
Q 1625 4250 1398 4047 
Q 1172 3844 1172 3481 
z
" transform="scale(0.015625)"/>
       </defs>
       <use xlink:href="#DejaVuSans-30"/>
       <use xlink:href="#DejaVuSans-2e" x="63.623047"/>
       <use xlink:href="#DejaVuSans-38" x="95.410156"/>
      </g>
     </g>
    </g>
    <g id="xtick_6">
     <g id="line2d_6">
      <g>
       <use xlink:href="#m8d93d1ca54" x="319.603125" y="173.613128" style="stroke: #000000; stroke-width: 0.8"/>
      </g>
     </g>
     <g id="text_6">
      <!-- 1.0 -->
      <g transform="translate(311.651562 188.211565) scale(0.1 -0.1)">
       <defs>
        <path id="DejaVuSans-31" d="M 794 531 
L 1825 531 
L 1825 4091 
L 703 3866 
L 703 4441 
L 1819 4666 
L 2450 4666 
L 2450 531 
L 3481 531 
L 3481 0 
L 794 0 
L 794 531 
z
" transform="scale(0.015625)"/>
       </defs>
       <use xlink:href="#DejaVuSans-31"/>
       <use xlink:href="#DejaVuSans-2e" x="63.623047"/>
       <use xlink:href="#DejaVuSans-30" x="95.410156"/>
      </g>
     </g>
    </g>
    <g id="text_7">
     <!-- Accuracy -->
     <g transform="translate(157.275 201.88969) scale(0.1 -0.1)">
      <defs>
       <path id="DejaVuSans-41" d="M 2188 4044 
L 1331 1722 
L 3047 1722 
L 2188 4044 
z
M 1831 4666 
L 2547 4666 
L 4325 0 
L 3669 0 
L 3244 1197 
L 1141 1197 
L 716 0 
L 50 0 
L 1831 4666 
z
" transform="scale(0.015625)"/>
       <path id="DejaVuSans-63" d="M 3122 3366 
L 3122 2828 
Q 2878 2963 2633 3030 
Q 2388 3097 2138 3097 
Q 1578 3097 1268 2742 
Q 959 2388 959 1747 
Q 959 1106 1268 751 
Q 1578 397 2138 397 
Q 2388 397 2633 464 
Q 2878 531 3122 666 
L 3122 134 
Q 2881 22 2623 -34 
Q 2366 -91 2075 -91 
Q 1284 -91 818 406 
Q 353 903 353 1747 
Q 353 2603 823 3093 
Q 1294 3584 2113 3584 
Q 2378 3584 2631 3529 
Q 2884 3475 3122 3366 
z
" transform="scale(0.015625)"/>
       <path id="DejaVuSans-75" d="M 544 1381 
L 544 3500 
L 1119 3500 
L 1119 1403 
Q 1119 906 1312 657 
Q 1506 409 1894 409 
Q 2359 409 2629 706 
Q 2900 1003 2900 1516 
L 2900 3500 
L 3475 3500 
L 3475 0 
L 2900 0 
L 2900 538 
Q 2691 219 2414 64 
Q 2138 -91 1772 -91 
Q 1169 -91 856 284 
Q 544 659 544 1381 
z
M 1991 3584 
L 1991 3584 
z
" transform="scale(0.015625)"/>
       <path id="DejaVuSans-72" d="M 2631 2963 
Q 2534 3019 2420 3045 
Q 2306 3072 2169 3072 
Q 1681 3072 1420 2755 
Q 1159 2438 1159 1844 
L 1159 0 
L 581 0 
L 581 3500 
L 1159 3500 
L 1159 2956 
Q 1341 3275 1631 3429 
Q 1922 3584 2338 3584 
Q 2397 3584 2469 3576 
Q 2541 3569 2628 3553 
L 2631 2963 
z
" transform="scale(0.015625)"/>
       <path id="DejaVuSans-61" d="M 2194 1759 
Q 1497 1759 1228 1600 
Q 959 1441 959 1056 
Q 959 750 1161 570 
Q 1363 391 1709 391 
Q 2188 391 2477 730 
Q 2766 1069 2766 1631 
L 2766 1759 
L 2194 1759 
z
M 3341 1997 
L 3341 0 
L 2766 0 
L 2766 531 
Q 2569 213 2275 61 
Q 1981 -91 1556 -91 
Q 1019 -91 701 211 
Q 384 513 384 1019 
Q 384 1609 779 1909 
Q 1175 2209 1959 2209 
L 2766 2209 
L 2766 2266 
Q 2766 2663 2505 2880 
Q 2244 3097 1772 3097 
Q 1472 3097 1187 3025 
Q 903 2953 641 2809 
L 641 3341 
Q 956 3463 1253 3523 
Q 1550 3584 1831 3584 
Q 2591 3584 2966 3190 
Q 3341 2797 3341 1997 
z
" transform="scale(0.015625)"/>
       <path id="DejaVuSans-79" d="M 2059 -325 
Q 1816 -950 1584 -1140 
Q 1353 -1331 966 -1331 
L 506 -1331 
L 506 -850 
L 844 -850 
Q 1081 -850 1212 -737 
Q 1344 -625 1503 -206 
L 1606 56 
L 191 3500 
L 800 3500 
L 1894 763 
L 2988 3500 
L 3597 3500 
L 2059 -325 
z
" transform="scale(0.015625)"/>
      </defs>
      <use xlink:href="#DejaVuSans-41"/>
      <use xlink:href="#DejaVuSans-63" x="66.658203"/>
      <use xlink:href="#DejaVuSans-63" x="121.638672"/>
      <use xlink:href="#DejaVuSans-75" x="176.619141"/>
      <use xlink:href="#DejaVuSans-72" x="239.998047"/>
      <use xlink:href="#DejaVuSans-61" x="281.111328"/>
      <use xlink:href="#DejaVuSans-63" x="342.390625"/>
      <use xlink:href="#DejaVuSans-79" x="397.371094"/>
     </g>
    </g>
   </g>
   <g id="matplotlib.axis_2">
    <g id="ytick_1">
     <g id="line2d_7">
      <defs>
       <path id="m980755c465" d="M 0 0 
L -3.5 0 
" style="stroke: #000000; stroke-width: 0.8"/>
      </defs>
      <g>
       <use xlink:href="#m980755c465" x="40.603125" y="173.613128" style="stroke: #000000; stroke-width: 0.8"/>
      </g>
     </g>
     <g id="text_8">
      <!-- 0 -->
      <g transform="translate(27.240625 177.412347) scale(0.1 -0.1)">
       <use xlink:href="#DejaVuSans-30"/>
      </g>
     </g>
    </g>
    <g id="ytick_2">
     <g id="line2d_8">
      <g>
       <use xlink:href="#m980755c465" x="40.603125" y="146.51081" style="stroke: #000000; stroke-width: 0.8"/>
      </g>
     </g>
     <g id="text_9">
      <!-- 5 -->
      <g transform="translate(27.240625 150.310028) scale(0.1 -0.1)">
       <defs>
        <path id="DejaVuSans-35" d="M 691 4666 
L 3169 4666 
L 3169 4134 
L 1269 4134 
L 1269 2991 
Q 1406 3038 1543 3061 
Q 1681 3084 1819 3084 
Q 2600 3084 3056 2656 
Q 3513 2228 3513 1497 
Q 3513 744 3044 326 
Q 2575 -91 1722 -91 
Q 1428 -91 1123 -41 
Q 819 9 494 109 
L 494 744 
Q 775 591 1075 516 
Q 1375 441 1709 441 
Q 2250 441 2565 725 
Q 2881 1009 2881 1497 
Q 2881 1984 2565 2268 
Q 2250 2553 1709 2553 
Q 1456 2553 1204 2497 
Q 953 2441 691 2322 
L 691 4666 
z
" transform="scale(0.015625)"/>
       </defs>
       <use xlink:href="#DejaVuSans-35"/>
      </g>
     </g>
    </g>
    <g id="ytick_3">
     <g id="line2d_9">
      <g>
       <use xlink:href="#m980755c465" x="40.603125" y="119.408492" style="stroke: #000000; stroke-width: 0.8"/>
      </g>
     </g>
     <g id="text_10">
      <!-- 10 -->
      <g transform="translate(20.878125 123.20771) scale(0.1 -0.1)">
       <use xlink:href="#DejaVuSans-31"/>
       <use xlink:href="#DejaVuSans-30" x="63.623047"/>
      </g>
     </g>
    </g>
    <g id="ytick_4">
     <g id="line2d_10">
      <g>
       <use xlink:href="#m980755c465" x="40.603125" y="92.306173" style="stroke: #000000; stroke-width: 0.8"/>
      </g>
     </g>
     <g id="text_11">
      <!-- 15 -->
      <g transform="translate(20.878125 96.105392) scale(0.1 -0.1)">
       <use xlink:href="#DejaVuSans-31"/>
       <use xlink:href="#DejaVuSans-35" x="63.623047"/>
      </g>
     </g>
    </g>
    <g id="ytick_5">
     <g id="line2d_11">
      <g>
       <use xlink:href="#m980755c465" x="40.603125" y="65.203855" style="stroke: #000000; stroke-width: 0.8"/>
      </g>
     </g>
     <g id="text_12">
      <!-- 20 -->
      <g transform="translate(20.878125 69.003074) scale(0.1 -0.1)">
       <use xlink:href="#DejaVuSans-32"/>
       <use xlink:href="#DejaVuSans-30" x="63.623047"/>
      </g>
     </g>
    </g>
    <g id="ytick_6">
     <g id="line2d_12">
      <g>
       <use xlink:href="#m980755c465" x="40.603125" y="38.101537" style="stroke: #000000; stroke-width: 0.8"/>
      </g>
     </g>
     <g id="text_13">
      <!-- 25 -->
      <g transform="translate(20.878125 41.900756) scale(0.1 -0.1)">
       <use xlink:href="#DejaVuSans-32"/>
       <use xlink:href="#DejaVuSans-35" x="63.623047"/>
      </g>
     </g>
    </g>
    <g id="ytick_7">
     <g id="line2d_13">
      <g>
       <use xlink:href="#m980755c465" x="40.603125" y="10.999219" style="stroke: #000000; stroke-width: 0.8"/>
      </g>
     </g>
     <g id="text_14">
      <!-- 30 -->
      <g transform="translate(20.878125 14.798437) scale(0.1 -0.1)">
       <defs>
        <path id="DejaVuSans-33" d="M 2597 2516 
Q 3050 2419 3304 2112 
Q 3559 1806 3559 1356 
Q 3559 666 3084 287 
Q 2609 -91 1734 -91 
Q 1441 -91 1130 -33 
Q 819 25 488 141 
L 488 750 
Q 750 597 1062 519 
Q 1375 441 1716 441 
Q 2309 441 2620 675 
Q 2931 909 2931 1356 
Q 2931 1769 2642 2001 
Q 2353 2234 1838 2234 
L 1294 2234 
L 1294 2753 
L 1863 2753 
Q 2328 2753 2575 2939 
Q 2822 3125 2822 3475 
Q 2822 3834 2567 4026 
Q 2313 4219 1838 4219 
Q 1578 4219 1281 4162 
Q 984 4106 628 3988 
L 628 4550 
Q 988 4650 1302 4700 
Q 1616 4750 1894 4750 
Q 2613 4750 3031 4423 
Q 3450 4097 3450 3541 
Q 3450 3153 3228 2886 
Q 3006 2619 2597 2516 
z
" transform="scale(0.015625)"/>
       </defs>
       <use xlink:href="#DejaVuSans-33"/>
       <use xlink:href="#DejaVuSans-30" x="63.623047"/>
      </g>
     </g>
    </g>
    <g id="text_15">
     <!-- Density -->
     <g transform="translate(14.798438 109.461722) rotate(-90) scale(0.1 -0.1)">
      <defs>
       <path id="DejaVuSans-44" d="M 1259 4147 
L 1259 519 
L 2022 519 
Q 2988 519 3436 956 
Q 3884 1394 3884 2338 
Q 3884 3275 3436 3711 
Q 2988 4147 2022 4147 
L 1259 4147 
z
M 628 4666 
L 1925 4666 
Q 3281 4666 3915 4102 
Q 4550 3538 4550 2338 
Q 4550 1131 3912 565 
Q 3275 0 1925 0 
L 628 0 
L 628 4666 
z
" transform="scale(0.015625)"/>
       <path id="DejaVuSans-65" d="M 3597 1894 
L 3597 1613 
L 953 1613 
Q 991 1019 1311 708 
Q 1631 397 2203 397 
Q 2534 397 2845 478 
Q 3156 559 3463 722 
L 3463 178 
Q 3153 47 2828 -22 
Q 2503 -91 2169 -91 
Q 1331 -91 842 396 
Q 353 884 353 1716 
Q 353 2575 817 3079 
Q 1281 3584 2069 3584 
Q 2775 3584 3186 3129 
Q 3597 2675 3597 1894 
z
M 3022 2063 
Q 3016 2534 2758 2815 
Q 2500 3097 2075 3097 
Q 1594 3097 1305 2825 
Q 1016 2553 972 2059 
L 3022 2063 
z
" transform="scale(0.015625)"/>
       <path id="DejaVuSans-6e" d="M 3513 2113 
L 3513 0 
L 2938 0 
L 2938 2094 
Q 2938 2591 2744 2837 
Q 2550 3084 2163 3084 
Q 1697 3084 1428 2787 
Q 1159 2491 1159 1978 
L 1159 0 
L 581 0 
L 581 3500 
L 1159 3500 
L 1159 2956 
Q 1366 3272 1645 3428 
Q 1925 3584 2291 3584 
Q 2894 3584 3203 3211 
Q 3513 2838 3513 2113 
z
" transform="scale(0.015625)"/>
       <path id="DejaVuSans-73" d="M 2834 3397 
L 2834 2853 
Q 2591 2978 2328 3040 
Q 2066 3103 1784 3103 
Q 1356 3103 1142 2972 
Q 928 2841 928 2578 
Q 928 2378 1081 2264 
Q 1234 2150 1697 2047 
L 1894 2003 
Q 2506 1872 2764 1633 
Q 3022 1394 3022 966 
Q 3022 478 2636 193 
Q 2250 -91 1575 -91 
Q 1294 -91 989 -36 
Q 684 19 347 128 
L 347 722 
Q 666 556 975 473 
Q 1284 391 1588 391 
Q 1994 391 2212 530 
Q 2431 669 2431 922 
Q 2431 1156 2273 1281 
Q 2116 1406 1581 1522 
L 1381 1569 
Q 847 1681 609 1914 
Q 372 2147 372 2553 
Q 372 3047 722 3315 
Q 1072 3584 1716 3584 
Q 2034 3584 2315 3537 
Q 2597 3491 2834 3397 
z
" transform="scale(0.015625)"/>
       <path id="DejaVuSans-69" d="M 603 3500 
L 1178 3500 
L 1178 0 
L 603 0 
L 603 3500 
z
M 603 4863 
L 1178 4863 
L 1178 4134 
L 603 4134 
L 603 4863 
z
" transform="scale(0.015625)"/>
       <path id="DejaVuSans-74" d="M 1172 4494 
L 1172 3500 
L 2356 3500 
L 2356 3053 
L 1172 3053 
L 1172 1153 
Q 1172 725 1289 603 
Q 1406 481 1766 481 
L 2356 481 
L 2356 0 
L 1766 0 
Q 1100 0 847 248 
Q 594 497 594 1153 
L 594 3053 
L 172 3053 
L 172 3500 
L 594 3500 
L 594 4494 
L 1172 4494 
z
" transform="scale(0.015625)"/>
      </defs>
      <use xlink:href="#DejaVuSans-44"/>
      <use xlink:href="#DejaVuSans-65" x="77.001953"/>
      <use xlink:href="#DejaVuSans-6e" x="138.525391"/>
      <use xlink:href="#DejaVuSans-73" x="201.904297"/>
      <use xlink:href="#DejaVuSans-69" x="254.003906"/>
      <use xlink:href="#DejaVuSans-74" x="281.787109"/>
      <use xlink:href="#DejaVuSans-79" x="320.996094"/>
     </g>
    </g>
   </g>
   <g id="line2d_14">
    <path d="M 71.791605 173.613128 
L 71.791605 7.293128 
" clip-path="url(#p077671a950)" style="fill: none; stroke-dasharray: 7.4,3.2; stroke-dashoffset: 0; stroke: #000000; stroke-width: 2"/>
   </g>
   <g id="line2d_15">
    <path d="M 304.533405 173.613128 
L 304.533405 7.293128 
" clip-path="url(#p077671a950)" style="fill: none; stroke-dasharray: 7.4,3.2; stroke-dashoffset: 0; stroke: #000000; stroke-width: 2"/>
   </g>
   <g id="patch_3">
    <path d="M 40.603125 173.613128 
L 40.603125 7.293128 
" style="fill: none; stroke: #000000; stroke-width: 0.8; stroke-linejoin: miter; stroke-linecap: square"/>
   </g>
   <g id="patch_4">
    <path d="M 40.603125 173.613128 
L 319.603125 173.613128 
" style="fill: none; stroke: #000000; stroke-width: 0.8; stroke-linejoin: miter; stroke-linecap: square"/>
   </g>
   <g id="legend_1">
    <g id="patch_5">
     <path d="M 131.303125 61.281378 
L 223.0875 61.281378 
Q 225.0875 61.281378 225.0875 59.281378 
L 225.0875 30.925128 
Q 225.0875 28.925128 223.0875 28.925128 
L 131.303125 28.925128 
Q 129.303125 28.925128 129.303125 30.925128 
L 129.303125 59.281378 
Q 129.303125 61.281378 131.303125 61.281378 
z
" style="fill: #ffffff; opacity: 0.8; stroke: #cccccc; stroke-linejoin: miter"/>
    </g>
    <g id="patch_6">
     <path d="M 133.303125 40.523565 
L 153.303125 40.523565 
L 153.303125 33.523565 
L 133.303125 33.523565 
z
" style="fill: #0000ff; fill-opacity: 0.6; stroke: #0000ff; stroke-width: 2; stroke-linejoin: miter"/>
    </g>
    <g id="text_16">
     <!-- Cypher-RAG -->
     <g transform="translate(161.303125 40.523565) scale(0.1 -0.1)">
      <defs>
       <path id="DejaVuSans-43" d="M 4122 4306 
L 4122 3641 
Q 3803 3938 3442 4084 
Q 3081 4231 2675 4231 
Q 1875 4231 1450 3742 
Q 1025 3253 1025 2328 
Q 1025 1406 1450 917 
Q 1875 428 2675 428 
Q 3081 428 3442 575 
Q 3803 722 4122 1019 
L 4122 359 
Q 3791 134 3420 21 
Q 3050 -91 2638 -91 
Q 1578 -91 968 557 
Q 359 1206 359 2328 
Q 359 3453 968 4101 
Q 1578 4750 2638 4750 
Q 3056 4750 3426 4639 
Q 3797 4528 4122 4306 
z
" transform="scale(0.015625)"/>
       <path id="DejaVuSans-70" d="M 1159 525 
L 1159 -1331 
L 581 -1331 
L 581 3500 
L 1159 3500 
L 1159 2969 
Q 1341 3281 1617 3432 
Q 1894 3584 2278 3584 
Q 2916 3584 3314 3078 
Q 3713 2572 3713 1747 
Q 3713 922 3314 415 
Q 2916 -91 2278 -91 
Q 1894 -91 1617 61 
Q 1341 213 1159 525 
z
M 3116 1747 
Q 3116 2381 2855 2742 
Q 2594 3103 2138 3103 
Q 1681 3103 1420 2742 
Q 1159 2381 1159 1747 
Q 1159 1113 1420 752 
Q 1681 391 2138 391 
Q 2594 391 2855 752 
Q 3116 1113 3116 1747 
z
" transform="scale(0.015625)"/>
       <path id="DejaVuSans-68" d="M 3513 2113 
L 3513 0 
L 2938 0 
L 2938 2094 
Q 2938 2591 2744 2837 
Q 2550 3084 2163 3084 
Q 1697 3084 1428 2787 
Q 1159 2491 1159 1978 
L 1159 0 
L 581 0 
L 581 4863 
L 1159 4863 
L 1159 2956 
Q 1366 3272 1645 3428 
Q 1925 3584 2291 3584 
Q 2894 3584 3203 3211 
Q 3513 2838 3513 2113 
z
" transform="scale(0.015625)"/>
       <path id="DejaVuSans-2d" d="M 313 2009 
L 1997 2009 
L 1997 1497 
L 313 1497 
L 313 2009 
z
" transform="scale(0.015625)"/>
       <path id="DejaVuSans-52" d="M 2841 2188 
Q 3044 2119 3236 1894 
Q 3428 1669 3622 1275 
L 4263 0 
L 3584 0 
L 2988 1197 
Q 2756 1666 2539 1819 
Q 2322 1972 1947 1972 
L 1259 1972 
L 1259 0 
L 628 0 
L 628 4666 
L 2053 4666 
Q 2853 4666 3247 4331 
Q 3641 3997 3641 3322 
Q 3641 2881 3436 2590 
Q 3231 2300 2841 2188 
z
M 1259 4147 
L 1259 2491 
L 2053 2491 
Q 2509 2491 2742 2702 
Q 2975 2913 2975 3322 
Q 2975 3731 2742 3939 
Q 2509 4147 2053 4147 
L 1259 4147 
z
" transform="scale(0.015625)"/>
       <path id="DejaVuSans-47" d="M 3809 666 
L 3809 1919 
L 2778 1919 
L 2778 2438 
L 4434 2438 
L 4434 434 
Q 4069 175 3628 42 
Q 3188 -91 2688 -91 
Q 1594 -91 976 548 
Q 359 1188 359 2328 
Q 359 3472 976 4111 
Q 1594 4750 2688 4750 
Q 3144 4750 3555 4637 
Q 3966 4525 4313 4306 
L 4313 3634 
Q 3963 3931 3569 4081 
Q 3175 4231 2741 4231 
Q 1884 4231 1454 3753 
Q 1025 3275 1025 2328 
Q 1025 1384 1454 906 
Q 1884 428 2741 428 
Q 3075 428 3337 486 
Q 3600 544 3809 666 
z
" transform="scale(0.015625)"/>
      </defs>
      <use xlink:href="#DejaVuSans-43"/>
      <use xlink:href="#DejaVuSans-79" x="69.824219"/>
      <use xlink:href="#DejaVuSans-70" x="129.003906"/>
      <use xlink:href="#DejaVuSans-68" x="192.480469"/>
      <use xlink:href="#DejaVuSans-65" x="255.859375"/>
      <use xlink:href="#DejaVuSans-72" x="317.382812"/>
      <use xlink:href="#DejaVuSans-2d" x="352.121094"/>
      <use xlink:href="#DejaVuSans-52" x="388.205078"/>
      <use xlink:href="#DejaVuSans-41" x="453.6875"/>
      <use xlink:href="#DejaVuSans-47" x="520.345703"/>
     </g>
    </g>
    <g id="patch_7">
     <path d="M 133.303125 55.20169 
L 153.303125 55.20169 
L 153.303125 48.20169 
L 133.303125 48.20169 
z
" style="fill: #f08080; fill-opacity: 0.6; stroke: #f08080; stroke-width: 2; stroke-linejoin: miter"/>
    </g>
    <g id="text_17">
     <!-- KG-RAG -->
     <g transform="translate(161.303125 55.20169) scale(0.1 -0.1)">
      <defs>
       <path id="DejaVuSans-4b" d="M 628 4666 
L 1259 4666 
L 1259 2694 
L 3353 4666 
L 4166 4666 
L 1850 2491 
L 4331 0 
L 3500 0 
L 1259 2247 
L 1259 0 
L 628 0 
L 628 4666 
z
" transform="scale(0.015625)"/>
      </defs>
      <use xlink:href="#DejaVuSans-4b"/>
      <use xlink:href="#DejaVuSans-47" x="65.576172"/>
      <use xlink:href="#DejaVuSans-2d" x="143.066406"/>
      <use xlink:href="#DejaVuSans-52" x="179.150391"/>
      <use xlink:href="#DejaVuSans-41" x="244.632812"/>
      <use xlink:href="#DejaVuSans-47" x="311.291016"/>
     </g>
    </g>
   </g>
  </g>
 </g>
 <defs>
  <clipPath id="p077671a950">
   <rect x="40.603125" y="7.293128" width="279" height="166.32"/>
  </clipPath>
 </defs>
</svg>
