<?xml version="1.0" encoding="utf-8" standalone="no"?>
<!DOCTYPE svg PUBLIC "-//W3C//DTD SVG 1.1//EN"
  "http://www.w3.org/Graphics/SVG/1.1/DTD/svg11.dtd">
<svg xmlns:xlink="http://www.w3.org/1999/xlink" width="334.754687pt" height="211.07625pt" viewBox="0 0 334.754687 211.07625" xmlns="http://www.w3.org/2000/svg" version="1.1">
 <metadata>
  <rdf:RDF xmlns:dc="http://purl.org/dc/elements/1.1/" xmlns:cc="http://creativecommons.org/ns#" xmlns:rdf="http://www.w3.org/1999/02/22-rdf-syntax-ns#">
   <cc:Work>
    <dc:type rdf:resource="http://purl.org/dc/dcmitype/StillImage"/>
    <dc:date>2024-07-19T14:25:23.375112</dc:date>
    <dc:format>image/svg+xml</dc:format>
    <dc:creator>
     <cc:Agent>
      <dc:title>Matplotlib v3.9.1, https://matplotlib.org/</dc:title>
     </cc:Agent>
    </dc:creator>
   </cc:Work>
  </rdf:RDF>
 </metadata>
 <defs>
  <style type="text/css">*{stroke-linejoin: round; stroke-linecap: butt}</style>
 </defs>
 <g id="figure_1">
  <g id="patch_1">
   <path d="M 0 211.07625 
L 334.754687 211.07625 
L 334.754687 0 
L 0 0 
z
" style="fill: #ffffff"/>
  </g>
  <g id="axes_1">
   <g id="patch_2">
    <path d="M 40.603125 173.52 
L 319.603125 173.52 
L 319.603125 7.2 
L 40.603125 7.2 
z
" style="fill: #ffffff"/>
   </g>
   <g id="PolyCollection_1">
    <defs>
     <path id="me46d1ac8da" d="M 142.07934 -37.568996 
L 142.07934 -37.55625 
L 142.543273 -37.55625 
L 143.007205 -37.55625 
L 143.471138 -37.55625 
L 143.93507 -37.55625 
L 144.399003 -37.55625 
L 144.862935 -37.55625 
L 145.326868 -37.55625 
L 145.790801 -37.55625 
L 146.254733 -37.55625 
L 146.718666 -37.55625 
L 147.182598 -37.55625 
L 147.646531 -37.55625 
L 148.110463 -37.55625 
L 148.574396 -37.55625 
L 149.038328 -37.55625 
L 149.502261 -37.55625 
L 149.966193 -37.55625 
L 150.430126 -37.55625 
L 150.894058 -37.55625 
L 151.357991 -37.55625 
L 151.821923 -37.55625 
L 152.285856 -37.55625 
L 152.749788 -37.55625 
L 153.213721 -37.55625 
L 153.677653 -37.55625 
L 154.141586 -37.55625 
L 154.605518 -37.55625 
L 155.069451 -37.55625 
L 155.533383 -37.55625 
L 155.997316 -37.55625 
L 156.461248 -37.55625 
L 156.925181 -37.55625 
L 157.389113 -37.55625 
L 157.853046 -37.55625 
L 158.316978 -37.55625 
L 158.780911 -37.55625 
L 159.244843 -37.55625 
L 159.708776 -37.55625 
L 160.172708 -37.55625 
L 160.636641 -37.55625 
L 161.100573 -37.55625 
L 161.564506 -37.55625 
L 162.028438 -37.55625 
L 162.492371 -37.55625 
L 162.956303 -37.55625 
L 163.420236 -37.55625 
L 163.884168 -37.55625 
L 164.348101 -37.55625 
L 164.812033 -37.55625 
L 165.275966 -37.55625 
L 165.739898 -37.55625 
L 166.203831 -37.55625 
L 166.667763 -37.55625 
L 167.131696 -37.55625 
L 167.595628 -37.55625 
L 168.059561 -37.55625 
L 168.523493 -37.55625 
L 168.987426 -37.55625 
L 169.451358 -37.55625 
L 169.915291 -37.55625 
L 170.379223 -37.55625 
L 170.843156 -37.55625 
L 171.307088 -37.55625 
L 171.771021 -37.55625 
L 172.234953 -37.55625 
L 172.698886 -37.55625 
L 173.162818 -37.55625 
L 173.626751 -37.55625 
L 174.090684 -37.55625 
L 174.554616 -37.55625 
L 175.018549 -37.55625 
L 175.482481 -37.55625 
L 175.946414 -37.55625 
L 176.410346 -37.55625 
L 176.874279 -37.55625 
L 177.338211 -37.55625 
L 177.802144 -37.55625 
L 178.266076 -37.55625 
L 178.730009 -37.55625 
L 179.193941 -37.55625 
L 179.657874 -37.55625 
L 180.121806 -37.55625 
L 180.585739 -37.55625 
L 181.049671 -37.55625 
L 181.513604 -37.55625 
L 181.977536 -37.55625 
L 182.441469 -37.55625 
L 182.905401 -37.55625 
L 183.369334 -37.55625 
L 183.833266 -37.55625 
L 184.297199 -37.55625 
L 184.761131 -37.55625 
L 185.225064 -37.55625 
L 185.688996 -37.55625 
L 186.152929 -37.55625 
L 186.616861 -37.55625 
L 187.080794 -37.55625 
L 187.544726 -37.55625 
L 188.008659 -37.55625 
L 188.472591 -37.55625 
L 188.936524 -37.55625 
L 189.400456 -37.55625 
L 189.864389 -37.55625 
L 190.328321 -37.55625 
L 190.792254 -37.55625 
L 191.256186 -37.55625 
L 191.720119 -37.55625 
L 192.184051 -37.55625 
L 192.647984 -37.55625 
L 193.111916 -37.55625 
L 193.575849 -37.55625 
L 194.039781 -37.55625 
L 194.503714 -37.55625 
L 194.967646 -37.55625 
L 195.431579 -37.55625 
L 195.895511 -37.55625 
L 196.359444 -37.55625 
L 196.823376 -37.55625 
L 197.287309 -37.55625 
L 197.751241 -37.55625 
L 198.215174 -37.55625 
L 198.679106 -37.55625 
L 199.143039 -37.55625 
L 199.606971 -37.55625 
L 200.070904 -37.55625 
L 200.534836 -37.55625 
L 200.998769 -37.55625 
L 201.462701 -37.55625 
L 201.926634 -37.55625 
L 202.390566 -37.55625 
L 202.854499 -37.55625 
L 203.318432 -37.55625 
L 203.782364 -37.55625 
L 204.246297 -37.55625 
L 204.710229 -37.55625 
L 205.174162 -37.55625 
L 205.638094 -37.55625 
L 206.102027 -37.55625 
L 206.565959 -37.55625 
L 207.029892 -37.55625 
L 207.493824 -37.55625 
L 207.957757 -37.55625 
L 208.421689 -37.55625 
L 208.885622 -37.55625 
L 209.349554 -37.55625 
L 209.813487 -37.55625 
L 210.277419 -37.55625 
L 210.741352 -37.55625 
L 211.205284 -37.55625 
L 211.669217 -37.55625 
L 212.133149 -37.55625 
L 212.597082 -37.55625 
L 213.061014 -37.55625 
L 213.524947 -37.55625 
L 213.988879 -37.55625 
L 214.452812 -37.55625 
L 214.916744 -37.55625 
L 215.380677 -37.55625 
L 215.844609 -37.55625 
L 216.308542 -37.55625 
L 216.772474 -37.55625 
L 217.236407 -37.55625 
L 217.700339 -37.55625 
L 218.164272 -37.55625 
L 218.628204 -37.55625 
L 219.092137 -37.55625 
L 219.556069 -37.55625 
L 220.020002 -37.55625 
L 220.483934 -37.55625 
L 220.947867 -37.55625 
L 221.411799 -37.55625 
L 221.875732 -37.55625 
L 222.339664 -37.55625 
L 222.803597 -37.55625 
L 223.267529 -37.55625 
L 223.731462 -37.55625 
L 224.195394 -37.55625 
L 224.659327 -37.55625 
L 225.123259 -37.55625 
L 225.587192 -37.55625 
L 226.051124 -37.55625 
L 226.515057 -37.55625 
L 226.978989 -37.55625 
L 227.442922 -37.55625 
L 227.906854 -37.55625 
L 228.370787 -37.55625 
L 228.834719 -37.55625 
L 229.298652 -37.55625 
L 229.762584 -37.55625 
L 230.226517 -37.55625 
L 230.690449 -37.55625 
L 231.154382 -37.55625 
L 231.618315 -37.55625 
L 232.082247 -37.55625 
L 232.54618 -37.55625 
L 233.010112 -37.55625 
L 233.474045 -37.55625 
L 233.937977 -37.55625 
L 234.40191 -37.55625 
L 234.40191 -37.562617 
L 234.40191 -37.562617 
L 233.937977 -37.566954 
L 233.474045 -37.57368 
L 233.010112 -37.583745 
L 232.54618 -37.598261 
L 232.082247 -37.618431 
L 231.618315 -37.645401 
L 231.154382 -37.680065 
L 230.690449 -37.722828 
L 230.226517 -37.773356 
L 229.762584 -37.830381 
L 229.298652 -37.891616 
L 228.834719 -37.953826 
L 228.370787 -38.013091 
L 227.906854 -38.065254 
L 227.442922 -38.106499 
L 226.978989 -38.133955 
L 226.515057 -38.146232 
L 226.051124 -38.143751 
L 225.587192 -38.128804 
L 225.123259 -38.105304 
L 224.659327 -38.078249 
L 224.195394 -38.053005 
L 223.731462 -38.034506 
L 223.267529 -38.026538 
L 222.803597 -38.03121 
L 222.339664 -38.04872 
L 221.875732 -38.077447 
L 221.411799 -38.114353 
L 220.947867 -38.155613 
L 220.483934 -38.197366 
L 220.020002 -38.23645 
L 219.556069 -38.270982 
L 219.092137 -38.300716 
L 218.628204 -38.327152 
L 218.164272 -38.353442 
L 217.700339 -38.384217 
L 217.236407 -38.425449 
L 216.772474 -38.484484 
L 216.308542 -38.570262 
L 215.844609 -38.693704 
L 215.380677 -38.868088 
L 214.916744 -39.109238 
L 214.452812 -39.435284 
L 213.988879 -39.865851 
L 213.524947 -40.420627 
L 213.061014 -41.117407 
L 212.597082 -41.969866 
L 212.133149 -42.985423 
L 211.669217 -44.163605 
L 211.205284 -45.495318 
L 210.741352 -46.963306 
L 210.277419 -48.543936 
L 209.813487 -50.210185 
L 209.349554 -51.935478 
L 208.885622 -53.697773 
L 208.421689 -55.483188 
L 207.957757 -57.288405 
L 207.493824 -59.121288 
L 207.029892 -60.999435 
L 206.565959 -62.946793 
L 206.102027 -64.988888 
L 205.638094 -67.147507 
L 205.174162 -69.435852 
L 204.710229 -71.855071 
L 204.246297 -74.392852 
L 203.782364 -77.024329 
L 203.318432 -79.715154 
L 202.854499 -82.42615 
L 202.390566 -85.118698 
L 201.926634 -87.759894 
L 201.462701 -90.326523 
L 200.998769 -92.807194 
L 200.534836 -95.202288 
L 200.070904 -97.521896 
L 199.606971 -99.782334 
L 199.143039 -102.002173 
L 198.679106 -104.198837 
L 198.215174 -106.386638 
L 197.751241 -108.5767 
L 197.287309 -110.778672 
L 196.823376 -113.003536 
L 196.359444 -115.266476 
L 195.895511 -117.588721 
L 195.431579 -119.997573 
L 194.967646 -122.524374 
L 194.503714 -125.200821 
L 194.039781 -128.05453 
L 193.575849 -131.104963 
L 193.111916 -134.360705 
L 192.647984 -137.818608 
L 192.184051 -141.464771 
L 191.720119 -145.276768 
L 191.256186 -149.226239 
L 190.792254 -153.280972 
L 190.328321 -157.405846 
L 189.864389 -161.562473 
L 189.400456 -165.707828 
L 188.936524 -169.79246 
L 188.472591 -173.759005 
L 188.008659 -177.541624 
L 187.544726 -181.066741 
L 187.080794 -184.255159 
L 186.616861 -187.025376 
L 186.152929 -189.297783 
L 185.688996 -190.999322 
L 185.225064 -192.068255 
L 184.761131 -192.458682 
L 184.297199 -192.144471 
L 183.833266 -191.122243 
L 183.369334 -189.413007 
L 182.905401 -187.062042 
L 182.441469 -184.136705 
L 181.977536 -180.72208 
L 181.513604 -176.914699 
L 181.049671 -172.814976 
L 180.585739 -168.519318 
L 180.121806 -164.113087 
L 179.657874 -159.66546 
L 179.193941 -155.226932 
L 178.730009 -150.829654 
L 178.266076 -146.490189 
L 177.802144 -142.213822 
L 177.338211 -137.999286 
L 176.874279 -133.842875 
L 176.410346 -129.741223 
L 175.946414 -125.692527 
L 175.482481 -121.696458 
L 175.018549 -117.753337 
L 174.554616 -113.863259 
L 174.090684 -110.025696 
L 173.626751 -106.239888 
L 173.162818 -102.505942 
L 172.698886 -98.826333 
L 172.234953 -95.207338 
L 171.771021 -91.65996 
L 171.307088 -88.199985 
L 170.843156 -84.847089 
L 170.379223 -81.62306 
L 169.915291 -78.54943 
L 169.451358 -75.644911 
L 168.987426 -72.923075 
L 168.523493 -70.390661 
L 168.059561 -68.046778 
L 167.595628 -65.88315 
L 167.131696 -63.885307 
L 166.667763 -62.034521 
L 166.203831 -60.310135 
L 165.739898 -58.691895 
L 165.275966 -57.161939 
L 164.812033 -55.706163 
L 164.348101 -54.31487 
L 163.884168 -52.982702 
L 163.420236 -51.708011 
L 162.956303 -50.491871 
L 162.492371 -49.336981 
L 162.028438 -48.246643 
L 161.564506 -47.223979 
L 161.100573 -46.27144 
L 160.636641 -45.390602 
L 160.172708 -44.58218 
L 159.708776 -43.846149 
L 159.244843 -43.181854 
L 158.780911 -42.588034 
L 158.316978 -42.062718 
L 157.853046 -41.603039 
L 157.389113 -41.205033 
L 156.925181 -40.863561 
L 156.461248 -40.572431 
L 155.997316 -40.324778 
L 155.533383 -40.113649 
L 155.069451 -39.932664 
L 154.605518 -39.776586 
L 154.141586 -39.641615 
L 153.677653 -39.525289 
L 153.213721 -39.426017 
L 152.749788 -39.342335 
L 152.285856 -39.272133 
L 151.821923 -39.212085 
L 151.357991 -39.157478 
L 150.894058 -39.102547 
L 150.430126 -39.041231 
L 149.966193 -38.968179 
L 149.502261 -38.879735 
L 149.038328 -38.774647 
L 148.574396 -38.65432 
L 148.110463 -38.522562 
L 147.646531 -38.384895 
L 147.182598 -38.247618 
L 146.718666 -38.116821 
L 146.254733 -37.99757 
L 145.790801 -37.893382 
L 145.326868 -37.806033 
L 144.862935 -37.73568 
L 144.399003 -37.681185 
L 143.93507 -37.640555 
L 143.471138 -37.611374 
L 143.007205 -37.591173 
L 142.543273 -37.577685 
L 142.07934 -37.568996 
z
" style="stroke: #0000ff; stroke-width: 2"/>
    </defs>
    <g clip-path="url(#p2853eb6467)">
     <use xlink:href="#me46d1ac8da" x="0" y="211.07625" style="fill: #0000ff; fill-opacity: 0.6; stroke: #0000ff; stroke-width: 2"/>
    </g>
   </g>
   <g id="PolyCollection_2">
    <defs>
     <path id="m0b73be23c3" d="M 226.74382 -37.563515 
L 226.74382 -37.55625 
L 227.127959 -37.55625 
L 227.512098 -37.55625 
L 227.896237 -37.55625 
L 228.280375 -37.55625 
L 228.664514 -37.55625 
L 229.048653 -37.55625 
L 229.432792 -37.55625 
L 229.81693 -37.55625 
L 230.201069 -37.55625 
L 230.585208 -37.55625 
L 230.969347 -37.55625 
L 231.353485 -37.55625 
L 231.737624 -37.55625 
L 232.121763 -37.55625 
L 232.505901 -37.55625 
L 232.89004 -37.55625 
L 233.274179 -37.55625 
L 233.658318 -37.55625 
L 234.042456 -37.55625 
L 234.426595 -37.55625 
L 234.810734 -37.55625 
L 235.194873 -37.55625 
L 235.579011 -37.55625 
L 235.96315 -37.55625 
L 236.347289 -37.55625 
L 236.731428 -37.55625 
L 237.115566 -37.55625 
L 237.499705 -37.55625 
L 237.883844 -37.55625 
L 238.267983 -37.55625 
L 238.652121 -37.55625 
L 239.03626 -37.55625 
L 239.420399 -37.55625 
L 239.804538 -37.55625 
L 240.188676 -37.55625 
L 240.572815 -37.55625 
L 240.956954 -37.55625 
L 241.341092 -37.55625 
L 241.725231 -37.55625 
L 242.10937 -37.55625 
L 242.493509 -37.55625 
L 242.877647 -37.55625 
L 243.261786 -37.55625 
L 243.645925 -37.55625 
L 244.030064 -37.55625 
L 244.414202 -37.55625 
L 244.798341 -37.55625 
L 245.18248 -37.55625 
L 245.566619 -37.55625 
L 245.950757 -37.55625 
L 246.334896 -37.55625 
L 246.719035 -37.55625 
L 247.103174 -37.55625 
L 247.487312 -37.55625 
L 247.871451 -37.55625 
L 248.25559 -37.55625 
L 248.639729 -37.55625 
L 249.023867 -37.55625 
L 249.408006 -37.55625 
L 249.792145 -37.55625 
L 250.176284 -37.55625 
L 250.560422 -37.55625 
L 250.944561 -37.55625 
L 251.3287 -37.55625 
L 251.712838 -37.55625 
L 252.096977 -37.55625 
L 252.481116 -37.55625 
L 252.865255 -37.55625 
L 253.249393 -37.55625 
L 253.633532 -37.55625 
L 254.017671 -37.55625 
L 254.40181 -37.55625 
L 254.785948 -37.55625 
L 255.170087 -37.55625 
L 255.554226 -37.55625 
L 255.938365 -37.55625 
L 256.322503 -37.55625 
L 256.706642 -37.55625 
L 257.090781 -37.55625 
L 257.47492 -37.55625 
L 257.859058 -37.55625 
L 258.243197 -37.55625 
L 258.627336 -37.55625 
L 259.011475 -37.55625 
L 259.395613 -37.55625 
L 259.779752 -37.55625 
L 260.163891 -37.55625 
L 260.548029 -37.55625 
L 260.932168 -37.55625 
L 261.316307 -37.55625 
L 261.700446 -37.55625 
L 262.084584 -37.55625 
L 262.468723 -37.55625 
L 262.852862 -37.55625 
L 263.237001 -37.55625 
L 263.621139 -37.55625 
L 264.005278 -37.55625 
L 264.389417 -37.55625 
L 264.773556 -37.55625 
L 265.157694 -37.55625 
L 265.541833 -37.55625 
L 265.925972 -37.55625 
L 266.310111 -37.55625 
L 266.694249 -37.55625 
L 267.078388 -37.55625 
L 267.462527 -37.55625 
L 267.846666 -37.55625 
L 268.230804 -37.55625 
L 268.614943 -37.55625 
L 268.999082 -37.55625 
L 269.383221 -37.55625 
L 269.767359 -37.55625 
L 270.151498 -37.55625 
L 270.535637 -37.55625 
L 270.919775 -37.55625 
L 271.303914 -37.55625 
L 271.688053 -37.55625 
L 272.072192 -37.55625 
L 272.45633 -37.55625 
L 272.840469 -37.55625 
L 273.224608 -37.55625 
L 273.608747 -37.55625 
L 273.992885 -37.55625 
L 274.377024 -37.55625 
L 274.761163 -37.55625 
L 275.145302 -37.55625 
L 275.52944 -37.55625 
L 275.913579 -37.55625 
L 276.297718 -37.55625 
L 276.681857 -37.55625 
L 277.065995 -37.55625 
L 277.450134 -37.55625 
L 277.834273 -37.55625 
L 278.218412 -37.55625 
L 278.60255 -37.55625 
L 278.986689 -37.55625 
L 279.370828 -37.55625 
L 279.754966 -37.55625 
L 280.139105 -37.55625 
L 280.523244 -37.55625 
L 280.907383 -37.55625 
L 281.291521 -37.55625 
L 281.67566 -37.55625 
L 282.059799 -37.55625 
L 282.443938 -37.55625 
L 282.828076 -37.55625 
L 283.212215 -37.55625 
L 283.596354 -37.55625 
L 283.980493 -37.55625 
L 284.364631 -37.55625 
L 284.74877 -37.55625 
L 285.132909 -37.55625 
L 285.517048 -37.55625 
L 285.901186 -37.55625 
L 286.285325 -37.55625 
L 286.669464 -37.55625 
L 287.053603 -37.55625 
L 287.437741 -37.55625 
L 287.82188 -37.55625 
L 288.206019 -37.55625 
L 288.590158 -37.55625 
L 288.974296 -37.55625 
L 289.358435 -37.55625 
L 289.742574 -37.55625 
L 290.126712 -37.55625 
L 290.510851 -37.55625 
L 290.89499 -37.55625 
L 291.279129 -37.55625 
L 291.663267 -37.55625 
L 292.047406 -37.55625 
L 292.431545 -37.55625 
L 292.815684 -37.55625 
L 293.199822 -37.55625 
L 293.583961 -37.55625 
L 293.9681 -37.55625 
L 294.352239 -37.55625 
L 294.736377 -37.55625 
L 295.120516 -37.55625 
L 295.504655 -37.55625 
L 295.888794 -37.55625 
L 296.272932 -37.55625 
L 296.657071 -37.55625 
L 297.04121 -37.55625 
L 297.425349 -37.55625 
L 297.809487 -37.55625 
L 298.193626 -37.55625 
L 298.577765 -37.55625 
L 298.961903 -37.55625 
L 299.346042 -37.55625 
L 299.730181 -37.55625 
L 300.11432 -37.55625 
L 300.498458 -37.55625 
L 300.882597 -37.55625 
L 301.266736 -37.55625 
L 301.650875 -37.55625 
L 302.035013 -37.55625 
L 302.419152 -37.55625 
L 302.803291 -37.55625 
L 303.18743 -37.55625 
L 303.18743 -37.563719 
L 303.18743 -37.563719 
L 302.803291 -37.568526 
L 302.419152 -37.575879 
L 302.035013 -37.586791 
L 301.650875 -37.602499 
L 301.266736 -37.624432 
L 300.882597 -37.654132 
L 300.498458 -37.693135 
L 300.11432 -37.742802 
L 299.730181 -37.804128 
L 299.346042 -37.877548 
L 298.961903 -37.962779 
L 298.577765 -38.058723 
L 298.193626 -38.16348 
L 297.809487 -38.274467 
L 297.425349 -38.388665 
L 297.04121 -38.502943 
L 296.657071 -38.614454 
L 296.272932 -38.721014 
L 295.888794 -38.821461 
L 295.504655 -38.915903 
L 295.120516 -39.005873 
L 294.736377 -39.094339 
L 294.352239 -39.185604 
L 293.9681 -39.285078 
L 293.583961 -39.398963 
L 293.199822 -39.533855 
L 292.815684 -39.696299 
L 292.431545 -39.89232 
L 292.047406 -40.12697 
L 291.663267 -40.403921 
L 291.279129 -40.725162 
L 290.89499 -41.090823 
L 290.510851 -41.499175 
L 290.126712 -41.946836 
L 289.742574 -42.429208 
L 289.358435 -42.941143 
L 288.974296 -43.477826 
L 288.590158 -44.035807 
L 288.206019 -44.614093 
L 287.82188 -45.215146 
L 287.437741 -45.845604 
L 287.053603 -46.516549 
L 286.669464 -47.243168 
L 286.285325 -48.043747 
L 285.901186 -48.938039 
L 285.517048 -49.945196 
L 285.132909 -51.081547 
L 284.74877 -52.35857 
L 284.364631 -53.781393 
L 283.980493 -55.348074 
L 283.596354 -57.049763 
L 283.212215 -58.871704 
L 282.828076 -60.794863 
L 282.443938 -62.797921 
L 282.059799 -64.859355 
L 281.67566 -66.959365 
L 281.291521 -69.08158 
L 280.907383 -71.214543 
L 280.523244 -73.353101 
L 280.139105 -75.499829 
L 279.754966 -77.666555 
L 279.370828 -79.875906 
L 278.986689 -82.162549 
L 278.60255 -84.573629 
L 278.218412 -87.167701 
L 277.834273 -90.011471 
L 277.450134 -93.173883 
L 277.065995 -96.717516 
L 276.681857 -100.687928 
L 276.297718 -105.102323 
L 275.913579 -109.939526 
L 275.52944 -115.133583 
L 275.145302 -120.573102 
L 274.761163 -126.107678 
L 274.377024 -131.561539 
L 273.992885 -136.753015 
L 273.608747 -141.517078 
L 273.224608 -145.727258 
L 272.840469 -149.313124 
L 272.45633 -152.270135 
L 272.072192 -154.660105 
L 271.688053 -156.602207 
L 271.303914 -158.25617 
L 270.919775 -159.80055 
L 270.535637 -161.409549 
L 270.151498 -163.231691 
L 269.767359 -165.373026 
L 269.383221 -167.88649 
L 268.999082 -170.768068 
L 268.614943 -173.959517 
L 268.230804 -177.35681 
L 267.846666 -180.823037 
L 267.462527 -184.204227 
L 267.078388 -187.34635 
L 266.694249 -190.111655 
L 266.310111 -192.392462 
L 265.925972 -194.120775 
L 265.541833 -195.272562 
L 265.157694 -195.866301 
L 264.773556 -195.95625 
L 264.389417 -195.621779 
L 264.005278 -194.954639 
L 263.621139 -194.046288 
L 263.237001 -192.97718 
L 262.852862 -191.809336 
L 262.468723 -190.582788 
L 262.084584 -189.315727 
L 261.700446 -188.007551 
L 261.316307 -186.643717 
L 260.932168 -185.20121 
L 260.548029 -183.653633 
L 260.163891 -181.97524 
L 259.779752 -180.143616 
L 259.395613 -178.14097 
L 259.011475 -175.954281 
L 258.627336 -173.574627 
L 258.243197 -170.996046 
L 257.859058 -168.214286 
L 257.47492 -165.225731 
L 257.090781 -162.026725 
L 256.706642 -158.613452 
L 256.322503 -154.982445 
L 255.938365 -151.131715 
L 255.554226 -147.062393 
L 255.170087 -142.780719 
L 254.785948 -138.300099 
L 254.40181 -133.642958 
L 254.017671 -128.842069 
L 253.633532 -123.941076 
L 253.249393 -118.99402 
L 252.865255 -114.063701 
L 252.481116 -109.218881 
L 252.096977 -104.530365 
L 251.712838 -100.066168 
L 251.3287 -95.886102 
L 250.944561 -92.036284 
L 250.560422 -88.544232 
L 250.176284 -85.415317 
L 249.792145 -82.631337 
L 249.408006 -80.151756 
L 249.023867 -77.917838 
L 248.639729 -75.859352 
L 248.25559 -73.903027 
L 247.871451 -71.981515 
L 247.487312 -70.041402 
L 247.103174 -68.048952 
L 246.719035 -65.992648 
L 246.334896 -63.882229 
L 245.950757 -61.744608 
L 245.566619 -59.617609 
L 245.18248 -57.542825 
L 244.798341 -55.558945 
L 244.414202 -53.696604 
L 244.030064 -51.975441 
L 243.645925 -50.403446 
L 243.261786 -48.9783 
L 242.877647 -47.690037 
L 242.493509 -46.524288 
L 242.10937 -45.465404 
L 241.725231 -44.498943 
L 241.341092 -43.613279 
L 240.956954 -42.800284 
L 240.572815 -42.055243 
L 240.188676 -41.376236 
L 239.804538 -40.763242 
L 239.420399 -40.217192 
L 239.03626 -39.739109 
L 238.652121 -39.329432 
L 238.267983 -38.987535 
L 237.883844 -38.71144 
L 237.499705 -38.497677 
L 237.115566 -38.34128 
L 236.731428 -38.235879 
L 236.347289 -38.173889 
L 235.96315 -38.146777 
L 235.579011 -38.14543 
L 235.194873 -38.160589 
L 234.810734 -38.183354 
L 234.426595 -38.205708 
L 234.042456 -38.221005 
L 233.658318 -38.224376 
L 233.274179 -38.212956 
L 232.89004 -38.185933 
L 232.505901 -38.144369 
L 232.121763 -38.090835 
L 231.737624 -38.02891 
L 231.353485 -37.962624 
L 230.969347 -37.895931 
L 230.585208 -37.832267 
L 230.201069 -37.774268 
L 229.81693 -37.723638 
L 229.432792 -37.681167 
L 229.048653 -37.646861 
L 228.664514 -37.620134 
L 228.280375 -37.600029 
L 227.896237 -37.58541 
L 227.512098 -37.575128 
L 227.127959 -37.568129 
L 226.74382 -37.563515 
z
" style="stroke: #f08080; stroke-width: 2"/>
    </defs>
    <g clip-path="url(#p2853eb6467)">
     <use xlink:href="#m0b73be23c3" x="0" y="211.07625" style="fill: #f08080; fill-opacity: 0.6; stroke: #f08080; stroke-width: 2"/>
    </g>
   </g>
   <g id="matplotlib.axis_1">
    <g id="xtick_1">
     <g id="line2d_1">
      <defs>
       <path id="mf359fe2bf9" d="M 0 0 
L 0 3.5 
" style="stroke: #000000; stroke-width: 0.8"/>
      </defs>
      <g>
       <use xlink:href="#mf359fe2bf9" x="40.603125" y="173.52" style="stroke: #000000; stroke-width: 0.8"/>
      </g>
     </g>
     <g id="text_1">
      <!-- 0.1 -->
      <g transform="translate(32.651563 188.118438) scale(0.1 -0.1)">
       <defs>
        <path id="DejaVuSans-30" d="M 2034 4250 
Q 1547 4250 1301 3770 
Q 1056 3291 1056 2328 
Q 1056 1369 1301 889 
Q 1547 409 2034 409 
Q 2525 409 2770 889 
Q 3016 1369 3016 2328 
Q 3016 3291 2770 3770 
Q 2525 4250 2034 4250 
z
M 2034 4750 
Q 2819 4750 3233 4129 
Q 3647 3509 3647 2328 
Q 3647 1150 3233 529 
Q 2819 -91 2034 -91 
Q 1250 -91 836 529 
Q 422 1150 422 2328 
Q 422 3509 836 4129 
Q 1250 4750 2034 4750 
z
" transform="scale(0.015625)"/>
        <path id="DejaVuSans-2e" d="M 684 794 
L 1344 794 
L 1344 0 
L 684 0 
L 684 794 
z
" transform="scale(0.015625)"/>
        <path id="DejaVuSans-31" d="M 794 531 
L 1825 531 
L 1825 4091 
L 703 3866 
L 703 4441 
L 1819 4666 
L 2450 4666 
L 2450 531 
L 3481 531 
L 3481 0 
L 794 0 
L 794 531 
z
" transform="scale(0.015625)"/>
       </defs>
       <use xlink:href="#DejaVuSans-30"/>
       <use xlink:href="#DejaVuSans-2e" x="63.623047"/>
       <use xlink:href="#DejaVuSans-31" x="95.410156"/>
      </g>
     </g>
    </g>
    <g id="xtick_2">
     <g id="line2d_2">
      <g>
       <use xlink:href="#mf359fe2bf9" x="75.478125" y="173.52" style="stroke: #000000; stroke-width: 0.8"/>
      </g>
     </g>
     <g id="text_2">
      <!-- 0.2 -->
      <g transform="translate(67.526563 188.118438) scale(0.1 -0.1)">
       <defs>
        <path id="DejaVuSans-32" d="M 1228 531 
L 3431 531 
L 3431 0 
L 469 0 
L 469 531 
Q 828 903 1448 1529 
Q 2069 2156 2228 2338 
Q 2531 2678 2651 2914 
Q 2772 3150 2772 3378 
Q 2772 3750 2511 3984 
Q 2250 4219 1831 4219 
Q 1534 4219 1204 4116 
Q 875 4013 500 3803 
L 500 4441 
Q 881 4594 1212 4672 
Q 1544 4750 1819 4750 
Q 2544 4750 2975 4387 
Q 3406 4025 3406 3419 
Q 3406 3131 3298 2873 
Q 3191 2616 2906 2266 
Q 2828 2175 2409 1742 
Q 1991 1309 1228 531 
z
" transform="scale(0.015625)"/>
       </defs>
       <use xlink:href="#DejaVuSans-30"/>
       <use xlink:href="#DejaVuSans-2e" x="63.623047"/>
       <use xlink:href="#DejaVuSans-32" x="95.410156"/>
      </g>
     </g>
    </g>
    <g id="xtick_3">
     <g id="line2d_3">
      <g>
       <use xlink:href="#mf359fe2bf9" x="110.353125" y="173.52" style="stroke: #000000; stroke-width: 0.8"/>
      </g>
     </g>
     <g id="text_3">
      <!-- 0.3 -->
      <g transform="translate(102.401563 188.118438) scale(0.1 -0.1)">
       <defs>
        <path id="DejaVuSans-33" d="M 2597 2516 
Q 3050 2419 3304 2112 
Q 3559 1806 3559 1356 
Q 3559 666 3084 287 
Q 2609 -91 1734 -91 
Q 1441 -91 1130 -33 
Q 819 25 488 141 
L 488 750 
Q 750 597 1062 519 
Q 1375 441 1716 441 
Q 2309 441 2620 675 
Q 2931 909 2931 1356 
Q 2931 1769 2642 2001 
Q 2353 2234 1838 2234 
L 1294 2234 
L 1294 2753 
L 1863 2753 
Q 2328 2753 2575 2939 
Q 2822 3125 2822 3475 
Q 2822 3834 2567 4026 
Q 2313 4219 1838 4219 
Q 1578 4219 1281 4162 
Q 984 4106 628 3988 
L 628 4550 
Q 988 4650 1302 4700 
Q 1616 4750 1894 4750 
Q 2613 4750 3031 4423 
Q 3450 4097 3450 3541 
Q 3450 3153 3228 2886 
Q 3006 2619 2597 2516 
z
" transform="scale(0.015625)"/>
       </defs>
       <use xlink:href="#DejaVuSans-30"/>
       <use xlink:href="#DejaVuSans-2e" x="63.623047"/>
       <use xlink:href="#DejaVuSans-33" x="95.410156"/>
      </g>
     </g>
    </g>
    <g id="xtick_4">
     <g id="line2d_4">
      <g>
       <use xlink:href="#mf359fe2bf9" x="145.228125" y="173.52" style="stroke: #000000; stroke-width: 0.8"/>
      </g>
     </g>
     <g id="text_4">
      <!-- 0.4 -->
      <g transform="translate(137.276563 188.118438) scale(0.1 -0.1)">
       <defs>
        <path id="DejaVuSans-34" d="M 2419 4116 
L 825 1625 
L 2419 1625 
L 2419 4116 
z
M 2253 4666 
L 3047 4666 
L 3047 1625 
L 3713 1625 
L 3713 1100 
L 3047 1100 
L 3047 0 
L 2419 0 
L 2419 1100 
L 313 1100 
L 313 1709 
L 2253 4666 
z
" transform="scale(0.015625)"/>
       </defs>
       <use xlink:href="#DejaVuSans-30"/>
       <use xlink:href="#DejaVuSans-2e" x="63.623047"/>
       <use xlink:href="#DejaVuSans-34" x="95.410156"/>
      </g>
     </g>
    </g>
    <g id="xtick_5">
     <g id="line2d_5">
      <g>
       <use xlink:href="#mf359fe2bf9" x="180.103125" y="173.52" style="stroke: #000000; stroke-width: 0.8"/>
      </g>
     </g>
     <g id="text_5">
      <!-- 0.5 -->
      <g transform="translate(172.151563 188.118438) scale(0.1 -0.1)">
       <defs>
        <path id="DejaVuSans-35" d="M 691 4666 
L 3169 4666 
L 3169 4134 
L 1269 4134 
L 1269 2991 
Q 1406 3038 1543 3061 
Q 1681 3084 1819 3084 
Q 2600 3084 3056 2656 
Q 3513 2228 3513 1497 
Q 3513 744 3044 326 
Q 2575 -91 1722 -91 
Q 1428 -91 1123 -41 
Q 819 9 494 109 
L 494 744 
Q 775 591 1075 516 
Q 1375 441 1709 441 
Q 2250 441 2565 725 
Q 2881 1009 2881 1497 
Q 2881 1984 2565 2268 
Q 2250 2553 1709 2553 
Q 1456 2553 1204 2497 
Q 953 2441 691 2322 
L 691 4666 
z
" transform="scale(0.015625)"/>
       </defs>
       <use xlink:href="#DejaVuSans-30"/>
       <use xlink:href="#DejaVuSans-2e" x="63.623047"/>
       <use xlink:href="#DejaVuSans-35" x="95.410156"/>
      </g>
     </g>
    </g>
    <g id="xtick_6">
     <g id="line2d_6">
      <g>
       <use xlink:href="#mf359fe2bf9" x="214.978125" y="173.52" style="stroke: #000000; stroke-width: 0.8"/>
      </g>
     </g>
     <g id="text_6">
      <!-- 0.6 -->
      <g transform="translate(207.026563 188.118438) scale(0.1 -0.1)">
       <defs>
        <path id="DejaVuSans-36" d="M 2113 2584 
Q 1688 2584 1439 2293 
Q 1191 2003 1191 1497 
Q 1191 994 1439 701 
Q 1688 409 2113 409 
Q 2538 409 2786 701 
Q 3034 994 3034 1497 
Q 3034 2003 2786 2293 
Q 2538 2584 2113 2584 
z
M 3366 4563 
L 3366 3988 
Q 3128 4100 2886 4159 
Q 2644 4219 2406 4219 
Q 1781 4219 1451 3797 
Q 1122 3375 1075 2522 
Q 1259 2794 1537 2939 
Q 1816 3084 2150 3084 
Q 2853 3084 3261 2657 
Q 3669 2231 3669 1497 
Q 3669 778 3244 343 
Q 2819 -91 2113 -91 
Q 1303 -91 875 529 
Q 447 1150 447 2328 
Q 447 3434 972 4092 
Q 1497 4750 2381 4750 
Q 2619 4750 2861 4703 
Q 3103 4656 3366 4563 
z
" transform="scale(0.015625)"/>
       </defs>
       <use xlink:href="#DejaVuSans-30"/>
       <use xlink:href="#DejaVuSans-2e" x="63.623047"/>
       <use xlink:href="#DejaVuSans-36" x="95.410156"/>
      </g>
     </g>
    </g>
    <g id="xtick_7">
     <g id="line2d_7">
      <g>
       <use xlink:href="#mf359fe2bf9" x="249.853125" y="173.52" style="stroke: #000000; stroke-width: 0.8"/>
      </g>
     </g>
     <g id="text_7">
      <!-- 0.7 -->
      <g transform="translate(241.901563 188.118438) scale(0.1 -0.1)">
       <defs>
        <path id="DejaVuSans-37" d="M 525 4666 
L 3525 4666 
L 3525 4397 
L 1831 0 
L 1172 0 
L 2766 4134 
L 525 4134 
L 525 4666 
z
" transform="scale(0.015625)"/>
       </defs>
       <use xlink:href="#DejaVuSans-30"/>
       <use xlink:href="#DejaVuSans-2e" x="63.623047"/>
       <use xlink:href="#DejaVuSans-37" x="95.410156"/>
      </g>
     </g>
    </g>
    <g id="xtick_8">
     <g id="line2d_8">
      <g>
       <use xlink:href="#mf359fe2bf9" x="284.728125" y="173.52" style="stroke: #000000; stroke-width: 0.8"/>
      </g>
     </g>
     <g id="text_8">
      <!-- 0.8 -->
      <g transform="translate(276.776562 188.118438) scale(0.1 -0.1)">
       <defs>
        <path id="DejaVuSans-38" d="M 2034 2216 
Q 1584 2216 1326 1975 
Q 1069 1734 1069 1313 
Q 1069 891 1326 650 
Q 1584 409 2034 409 
Q 2484 409 2743 651 
Q 3003 894 3003 1313 
Q 3003 1734 2745 1975 
Q 2488 2216 2034 2216 
z
M 1403 2484 
Q 997 2584 770 2862 
Q 544 3141 544 3541 
Q 544 4100 942 4425 
Q 1341 4750 2034 4750 
Q 2731 4750 3128 4425 
Q 3525 4100 3525 3541 
Q 3525 3141 3298 2862 
Q 3072 2584 2669 2484 
Q 3125 2378 3379 2068 
Q 3634 1759 3634 1313 
Q 3634 634 3220 271 
Q 2806 -91 2034 -91 
Q 1263 -91 848 271 
Q 434 634 434 1313 
Q 434 1759 690 2068 
Q 947 2378 1403 2484 
z
M 1172 3481 
Q 1172 3119 1398 2916 
Q 1625 2713 2034 2713 
Q 2441 2713 2670 2916 
Q 2900 3119 2900 3481 
Q 2900 3844 2670 4047 
Q 2441 4250 2034 4250 
Q 1625 4250 1398 4047 
Q 1172 3844 1172 3481 
z
" transform="scale(0.015625)"/>
       </defs>
       <use xlink:href="#DejaVuSans-30"/>
       <use xlink:href="#DejaVuSans-2e" x="63.623047"/>
       <use xlink:href="#DejaVuSans-38" x="95.410156"/>
      </g>
     </g>
    </g>
    <g id="xtick_9">
     <g id="line2d_9">
      <g>
       <use xlink:href="#mf359fe2bf9" x="319.603125" y="173.52" style="stroke: #000000; stroke-width: 0.8"/>
      </g>
     </g>
     <g id="text_9">
      <!-- 0.9 -->
      <g transform="translate(311.651562 188.118438) scale(0.1 -0.1)">
       <defs>
        <path id="DejaVuSans-39" d="M 703 97 
L 703 672 
Q 941 559 1184 500 
Q 1428 441 1663 441 
Q 2288 441 2617 861 
Q 2947 1281 2994 2138 
Q 2813 1869 2534 1725 
Q 2256 1581 1919 1581 
Q 1219 1581 811 2004 
Q 403 2428 403 3163 
Q 403 3881 828 4315 
Q 1253 4750 1959 4750 
Q 2769 4750 3195 4129 
Q 3622 3509 3622 2328 
Q 3622 1225 3098 567 
Q 2575 -91 1691 -91 
Q 1453 -91 1209 -44 
Q 966 3 703 97 
z
M 1959 2075 
Q 2384 2075 2632 2365 
Q 2881 2656 2881 3163 
Q 2881 3666 2632 3958 
Q 2384 4250 1959 4250 
Q 1534 4250 1286 3958 
Q 1038 3666 1038 3163 
Q 1038 2656 1286 2365 
Q 1534 2075 1959 2075 
z
" transform="scale(0.015625)"/>
       </defs>
       <use xlink:href="#DejaVuSans-30"/>
       <use xlink:href="#DejaVuSans-2e" x="63.623047"/>
       <use xlink:href="#DejaVuSans-39" x="95.410156"/>
      </g>
     </g>
    </g>
    <g id="text_10">
     <!-- Accuracy -->
     <g transform="translate(157.275 201.796563) scale(0.1 -0.1)">
      <defs>
       <path id="DejaVuSans-41" d="M 2188 4044 
L 1331 1722 
L 3047 1722 
L 2188 4044 
z
M 1831 4666 
L 2547 4666 
L 4325 0 
L 3669 0 
L 3244 1197 
L 1141 1197 
L 716 0 
L 50 0 
L 1831 4666 
z
" transform="scale(0.015625)"/>
       <path id="DejaVuSans-63" d="M 3122 3366 
L 3122 2828 
Q 2878 2963 2633 3030 
Q 2388 3097 2138 3097 
Q 1578 3097 1268 2742 
Q 959 2388 959 1747 
Q 959 1106 1268 751 
Q 1578 397 2138 397 
Q 2388 397 2633 464 
Q 2878 531 3122 666 
L 3122 134 
Q 2881 22 2623 -34 
Q 2366 -91 2075 -91 
Q 1284 -91 818 406 
Q 353 903 353 1747 
Q 353 2603 823 3093 
Q 1294 3584 2113 3584 
Q 2378 3584 2631 3529 
Q 2884 3475 3122 3366 
z
" transform="scale(0.015625)"/>
       <path id="DejaVuSans-75" d="M 544 1381 
L 544 3500 
L 1119 3500 
L 1119 1403 
Q 1119 906 1312 657 
Q 1506 409 1894 409 
Q 2359 409 2629 706 
Q 2900 1003 2900 1516 
L 2900 3500 
L 3475 3500 
L 3475 0 
L 2900 0 
L 2900 538 
Q 2691 219 2414 64 
Q 2138 -91 1772 -91 
Q 1169 -91 856 284 
Q 544 659 544 1381 
z
M 1991 3584 
L 1991 3584 
z
" transform="scale(0.015625)"/>
       <path id="DejaVuSans-72" d="M 2631 2963 
Q 2534 3019 2420 3045 
Q 2306 3072 2169 3072 
Q 1681 3072 1420 2755 
Q 1159 2438 1159 1844 
L 1159 0 
L 581 0 
L 581 3500 
L 1159 3500 
L 1159 2956 
Q 1341 3275 1631 3429 
Q 1922 3584 2338 3584 
Q 2397 3584 2469 3576 
Q 2541 3569 2628 3553 
L 2631 2963 
z
" transform="scale(0.015625)"/>
       <path id="DejaVuSans-61" d="M 2194 1759 
Q 1497 1759 1228 1600 
Q 959 1441 959 1056 
Q 959 750 1161 570 
Q 1363 391 1709 391 
Q 2188 391 2477 730 
Q 2766 1069 2766 1631 
L 2766 1759 
L 2194 1759 
z
M 3341 1997 
L 3341 0 
L 2766 0 
L 2766 531 
Q 2569 213 2275 61 
Q 1981 -91 1556 -91 
Q 1019 -91 701 211 
Q 384 513 384 1019 
Q 384 1609 779 1909 
Q 1175 2209 1959 2209 
L 2766 2209 
L 2766 2266 
Q 2766 2663 2505 2880 
Q 2244 3097 1772 3097 
Q 1472 3097 1187 3025 
Q 903 2953 641 2809 
L 641 3341 
Q 956 3463 1253 3523 
Q 1550 3584 1831 3584 
Q 2591 3584 2966 3190 
Q 3341 2797 3341 1997 
z
" transform="scale(0.015625)"/>
       <path id="DejaVuSans-79" d="M 2059 -325 
Q 1816 -950 1584 -1140 
Q 1353 -1331 966 -1331 
L 506 -1331 
L 506 -850 
L 844 -850 
Q 1081 -850 1212 -737 
Q 1344 -625 1503 -206 
L 1606 56 
L 191 3500 
L 800 3500 
L 1894 763 
L 2988 3500 
L 3597 3500 
L 2059 -325 
z
" transform="scale(0.015625)"/>
      </defs>
      <use xlink:href="#DejaVuSans-41"/>
      <use xlink:href="#DejaVuSans-63" x="66.658203"/>
      <use xlink:href="#DejaVuSans-63" x="121.638672"/>
      <use xlink:href="#DejaVuSans-75" x="176.619141"/>
      <use xlink:href="#DejaVuSans-72" x="239.998047"/>
      <use xlink:href="#DejaVuSans-61" x="281.111328"/>
      <use xlink:href="#DejaVuSans-63" x="342.390625"/>
      <use xlink:href="#DejaVuSans-79" x="397.371094"/>
     </g>
    </g>
   </g>
   <g id="matplotlib.axis_2">
    <g id="ytick_1">
     <g id="line2d_10">
      <defs>
       <path id="ma7adb26d61" d="M 0 0 
L -3.5 0 
" style="stroke: #000000; stroke-width: 0.8"/>
      </defs>
      <g>
       <use xlink:href="#ma7adb26d61" x="40.603125" y="173.52" style="stroke: #000000; stroke-width: 0.8"/>
      </g>
     </g>
     <g id="text_11">
      <!-- 0 -->
      <g transform="translate(27.240625 177.319219) scale(0.1 -0.1)">
       <use xlink:href="#DejaVuSans-30"/>
      </g>
     </g>
    </g>
    <g id="ytick_2">
     <g id="line2d_11">
      <g>
       <use xlink:href="#ma7adb26d61" x="40.603125" y="152.102632" style="stroke: #000000; stroke-width: 0.8"/>
      </g>
     </g>
     <g id="text_12">
      <!-- 2 -->
      <g transform="translate(27.240625 155.90185) scale(0.1 -0.1)">
       <use xlink:href="#DejaVuSans-32"/>
      </g>
     </g>
    </g>
    <g id="ytick_3">
     <g id="line2d_12">
      <g>
       <use xlink:href="#ma7adb26d61" x="40.603125" y="130.685263" style="stroke: #000000; stroke-width: 0.8"/>
      </g>
     </g>
     <g id="text_13">
      <!-- 4 -->
      <g transform="translate(27.240625 134.484482) scale(0.1 -0.1)">
       <use xlink:href="#DejaVuSans-34"/>
      </g>
     </g>
    </g>
    <g id="ytick_4">
     <g id="line2d_13">
      <g>
       <use xlink:href="#ma7adb26d61" x="40.603125" y="109.267895" style="stroke: #000000; stroke-width: 0.8"/>
      </g>
     </g>
     <g id="text_14">
      <!-- 6 -->
      <g transform="translate(27.240625 113.067113) scale(0.1 -0.1)">
       <use xlink:href="#DejaVuSans-36"/>
      </g>
     </g>
    </g>
    <g id="ytick_5">
     <g id="line2d_14">
      <g>
       <use xlink:href="#ma7adb26d61" x="40.603125" y="87.850526" style="stroke: #000000; stroke-width: 0.8"/>
      </g>
     </g>
     <g id="text_15">
      <!-- 8 -->
      <g transform="translate(27.240625 91.649745) scale(0.1 -0.1)">
       <use xlink:href="#DejaVuSans-38"/>
      </g>
     </g>
    </g>
    <g id="ytick_6">
     <g id="line2d_15">
      <g>
       <use xlink:href="#ma7adb26d61" x="40.603125" y="66.433158" style="stroke: #000000; stroke-width: 0.8"/>
      </g>
     </g>
     <g id="text_16">
      <!-- 10 -->
      <g transform="translate(20.878125 70.232376) scale(0.1 -0.1)">
       <use xlink:href="#DejaVuSans-31"/>
       <use xlink:href="#DejaVuSans-30" x="63.623047"/>
      </g>
     </g>
    </g>
    <g id="ytick_7">
     <g id="line2d_16">
      <g>
       <use xlink:href="#ma7adb26d61" x="40.603125" y="45.015789" style="stroke: #000000; stroke-width: 0.8"/>
      </g>
     </g>
     <g id="text_17">
      <!-- 12 -->
      <g transform="translate(20.878125 48.815008) scale(0.1 -0.1)">
       <use xlink:href="#DejaVuSans-31"/>
       <use xlink:href="#DejaVuSans-32" x="63.623047"/>
      </g>
     </g>
    </g>
    <g id="ytick_8">
     <g id="line2d_17">
      <g>
       <use xlink:href="#ma7adb26d61" x="40.603125" y="23.598421" style="stroke: #000000; stroke-width: 0.8"/>
      </g>
     </g>
     <g id="text_18">
      <!-- 14 -->
      <g transform="translate(20.878125 27.39764) scale(0.1 -0.1)">
       <use xlink:href="#DejaVuSans-31"/>
       <use xlink:href="#DejaVuSans-34" x="63.623047"/>
      </g>
     </g>
    </g>
    <g id="text_19">
     <!-- Density -->
     <g transform="translate(14.798438 109.368594) rotate(-90) scale(0.1 -0.1)">
      <defs>
       <path id="DejaVuSans-44" d="M 1259 4147 
L 1259 519 
L 2022 519 
Q 2988 519 3436 956 
Q 3884 1394 3884 2338 
Q 3884 3275 3436 3711 
Q 2988 4147 2022 4147 
L 1259 4147 
z
M 628 4666 
L 1925 4666 
Q 3281 4666 3915 4102 
Q 4550 3538 4550 2338 
Q 4550 1131 3912 565 
Q 3275 0 1925 0 
L 628 0 
L 628 4666 
z
" transform="scale(0.015625)"/>
       <path id="DejaVuSans-65" d="M 3597 1894 
L 3597 1613 
L 953 1613 
Q 991 1019 1311 708 
Q 1631 397 2203 397 
Q 2534 397 2845 478 
Q 3156 559 3463 722 
L 3463 178 
Q 3153 47 2828 -22 
Q 2503 -91 2169 -91 
Q 1331 -91 842 396 
Q 353 884 353 1716 
Q 353 2575 817 3079 
Q 1281 3584 2069 3584 
Q 2775 3584 3186 3129 
Q 3597 2675 3597 1894 
z
M 3022 2063 
Q 3016 2534 2758 2815 
Q 2500 3097 2075 3097 
Q 1594 3097 1305 2825 
Q 1016 2553 972 2059 
L 3022 2063 
z
" transform="scale(0.015625)"/>
       <path id="DejaVuSans-6e" d="M 3513 2113 
L 3513 0 
L 2938 0 
L 2938 2094 
Q 2938 2591 2744 2837 
Q 2550 3084 2163 3084 
Q 1697 3084 1428 2787 
Q 1159 2491 1159 1978 
L 1159 0 
L 581 0 
L 581 3500 
L 1159 3500 
L 1159 2956 
Q 1366 3272 1645 3428 
Q 1925 3584 2291 3584 
Q 2894 3584 3203 3211 
Q 3513 2838 3513 2113 
z
" transform="scale(0.015625)"/>
       <path id="DejaVuSans-73" d="M 2834 3397 
L 2834 2853 
Q 2591 2978 2328 3040 
Q 2066 3103 1784 3103 
Q 1356 3103 1142 2972 
Q 928 2841 928 2578 
Q 928 2378 1081 2264 
Q 1234 2150 1697 2047 
L 1894 2003 
Q 2506 1872 2764 1633 
Q 3022 1394 3022 966 
Q 3022 478 2636 193 
Q 2250 -91 1575 -91 
Q 1294 -91 989 -36 
Q 684 19 347 128 
L 347 722 
Q 666 556 975 473 
Q 1284 391 1588 391 
Q 1994 391 2212 530 
Q 2431 669 2431 922 
Q 2431 1156 2273 1281 
Q 2116 1406 1581 1522 
L 1381 1569 
Q 847 1681 609 1914 
Q 372 2147 372 2553 
Q 372 3047 722 3315 
Q 1072 3584 1716 3584 
Q 2034 3584 2315 3537 
Q 2597 3491 2834 3397 
z
" transform="scale(0.015625)"/>
       <path id="DejaVuSans-69" d="M 603 3500 
L 1178 3500 
L 1178 0 
L 603 0 
L 603 3500 
z
M 603 4863 
L 1178 4863 
L 1178 4134 
L 603 4134 
L 603 4863 
z
" transform="scale(0.015625)"/>
       <path id="DejaVuSans-74" d="M 1172 4494 
L 1172 3500 
L 2356 3500 
L 2356 3053 
L 1172 3053 
L 1172 1153 
Q 1172 725 1289 603 
Q 1406 481 1766 481 
L 2356 481 
L 2356 0 
L 1766 0 
Q 1100 0 847 248 
Q 594 497 594 1153 
L 594 3053 
L 172 3053 
L 172 3500 
L 594 3500 
L 594 4494 
L 1172 4494 
z
" transform="scale(0.015625)"/>
      </defs>
      <use xlink:href="#DejaVuSans-44"/>
      <use xlink:href="#DejaVuSans-65" x="77.001953"/>
      <use xlink:href="#DejaVuSans-6e" x="138.525391"/>
      <use xlink:href="#DejaVuSans-73" x="201.904297"/>
      <use xlink:href="#DejaVuSans-69" x="254.003906"/>
      <use xlink:href="#DejaVuSans-74" x="281.787109"/>
      <use xlink:href="#DejaVuSans-79" x="320.996094"/>
     </g>
    </g>
   </g>
   <g id="line2d_18">
    <path d="M 185.9412 173.52 
L 185.9412 7.2 
" clip-path="url(#p2853eb6467)" style="fill: none; stroke-dasharray: 7.4,3.2; stroke-dashoffset: 0; stroke: #000000; stroke-width: 2"/>
   </g>
   <g id="line2d_19">
    <path d="M 264.41925 173.52 
L 264.41925 7.2 
" clip-path="url(#p2853eb6467)" style="fill: none; stroke-dasharray: 7.4,3.2; stroke-dashoffset: 0; stroke: #000000; stroke-width: 2"/>
   </g>
   <g id="patch_3">
    <path d="M 40.603125 173.52 
L 40.603125 7.2 
" style="fill: none; stroke: #000000; stroke-width: 0.8; stroke-linejoin: miter; stroke-linecap: square"/>
   </g>
   <g id="patch_4">
    <path d="M 40.603125 173.52 
L 319.603125 173.52 
" style="fill: none; stroke: #000000; stroke-width: 0.8; stroke-linejoin: miter; stroke-linecap: square"/>
   </g>
   <g id="legend_1">
    <g id="patch_5">
     <path d="M 67.36875 61.18825 
L 159.153125 61.18825 
Q 161.153125 61.18825 161.153125 59.18825 
L 161.153125 30.832 
Q 161.153125 28.832 159.153125 28.832 
L 67.36875 28.832 
Q 65.36875 28.832 65.36875 30.832 
L 65.36875 59.18825 
Q 65.36875 61.18825 67.36875 61.18825 
z
" style="fill: #ffffff; opacity: 0.8; stroke: #cccccc; stroke-linejoin: miter"/>
    </g>
    <g id="patch_6">
     <path d="M 69.36875 40.430438 
L 89.36875 40.430438 
L 89.36875 33.430438 
L 69.36875 33.430438 
z
" style="fill: #0000ff; fill-opacity: 0.6; stroke: #0000ff; stroke-width: 2; stroke-linejoin: miter"/>
    </g>
    <g id="text_20">
     <!-- Cypher-RAG -->
     <g transform="translate(97.36875 40.430438) scale(0.1 -0.1)">
      <defs>
       <path id="DejaVuSans-43" d="M 4122 4306 
L 4122 3641 
Q 3803 3938 3442 4084 
Q 3081 4231 2675 4231 
Q 1875 4231 1450 3742 
Q 1025 3253 1025 2328 
Q 1025 1406 1450 917 
Q 1875 428 2675 428 
Q 3081 428 3442 575 
Q 3803 722 4122 1019 
L 4122 359 
Q 3791 134 3420 21 
Q 3050 -91 2638 -91 
Q 1578 -91 968 557 
Q 359 1206 359 2328 
Q 359 3453 968 4101 
Q 1578 4750 2638 4750 
Q 3056 4750 3426 4639 
Q 3797 4528 4122 4306 
z
" transform="scale(0.015625)"/>
       <path id="DejaVuSans-70" d="M 1159 525 
L 1159 -1331 
L 581 -1331 
L 581 3500 
L 1159 3500 
L 1159 2969 
Q 1341 3281 1617 3432 
Q 1894 3584 2278 3584 
Q 2916 3584 3314 3078 
Q 3713 2572 3713 1747 
Q 3713 922 3314 415 
Q 2916 -91 2278 -91 
Q 1894 -91 1617 61 
Q 1341 213 1159 525 
z
M 3116 1747 
Q 3116 2381 2855 2742 
Q 2594 3103 2138 3103 
Q 1681 3103 1420 2742 
Q 1159 2381 1159 1747 
Q 1159 1113 1420 752 
Q 1681 391 2138 391 
Q 2594 391 2855 752 
Q 3116 1113 3116 1747 
z
" transform="scale(0.015625)"/>
       <path id="DejaVuSans-68" d="M 3513 2113 
L 3513 0 
L 2938 0 
L 2938 2094 
Q 2938 2591 2744 2837 
Q 2550 3084 2163 3084 
Q 1697 3084 1428 2787 
Q 1159 2491 1159 1978 
L 1159 0 
L 581 0 
L 581 4863 
L 1159 4863 
L 1159 2956 
Q 1366 3272 1645 3428 
Q 1925 3584 2291 3584 
Q 2894 3584 3203 3211 
Q 3513 2838 3513 2113 
z
" transform="scale(0.015625)"/>
       <path id="DejaVuSans-2d" d="M 313 2009 
L 1997 2009 
L 1997 1497 
L 313 1497 
L 313 2009 
z
" transform="scale(0.015625)"/>
       <path id="DejaVuSans-52" d="M 2841 2188 
Q 3044 2119 3236 1894 
Q 3428 1669 3622 1275 
L 4263 0 
L 3584 0 
L 2988 1197 
Q 2756 1666 2539 1819 
Q 2322 1972 1947 1972 
L 1259 1972 
L 1259 0 
L 628 0 
L 628 4666 
L 2053 4666 
Q 2853 4666 3247 4331 
Q 3641 3997 3641 3322 
Q 3641 2881 3436 2590 
Q 3231 2300 2841 2188 
z
M 1259 4147 
L 1259 2491 
L 2053 2491 
Q 2509 2491 2742 2702 
Q 2975 2913 2975 3322 
Q 2975 3731 2742 3939 
Q 2509 4147 2053 4147 
L 1259 4147 
z
" transform="scale(0.015625)"/>
       <path id="DejaVuSans-47" d="M 3809 666 
L 3809 1919 
L 2778 1919 
L 2778 2438 
L 4434 2438 
L 4434 434 
Q 4069 175 3628 42 
Q 3188 -91 2688 -91 
Q 1594 -91 976 548 
Q 359 1188 359 2328 
Q 359 3472 976 4111 
Q 1594 4750 2688 4750 
Q 3144 4750 3555 4637 
Q 3966 4525 4313 4306 
L 4313 3634 
Q 3963 3931 3569 4081 
Q 3175 4231 2741 4231 
Q 1884 4231 1454 3753 
Q 1025 3275 1025 2328 
Q 1025 1384 1454 906 
Q 1884 428 2741 428 
Q 3075 428 3337 486 
Q 3600 544 3809 666 
z
" transform="scale(0.015625)"/>
      </defs>
      <use xlink:href="#DejaVuSans-43"/>
      <use xlink:href="#DejaVuSans-79" x="69.824219"/>
      <use xlink:href="#DejaVuSans-70" x="129.003906"/>
      <use xlink:href="#DejaVuSans-68" x="192.480469"/>
      <use xlink:href="#DejaVuSans-65" x="255.859375"/>
      <use xlink:href="#DejaVuSans-72" x="317.382812"/>
      <use xlink:href="#DejaVuSans-2d" x="352.121094"/>
      <use xlink:href="#DejaVuSans-52" x="388.205078"/>
      <use xlink:href="#DejaVuSans-41" x="453.6875"/>
      <use xlink:href="#DejaVuSans-47" x="520.345703"/>
     </g>
    </g>
    <g id="patch_7">
     <path d="M 69.36875 55.108563 
L 89.36875 55.108563 
L 89.36875 48.108563 
L 69.36875 48.108563 
z
" style="fill: #f08080; fill-opacity: 0.6; stroke: #f08080; stroke-width: 2; stroke-linejoin: miter"/>
    </g>
    <g id="text_21">
     <!-- KG-RAG -->
     <g transform="translate(97.36875 55.108563) scale(0.1 -0.1)">
      <defs>
       <path id="DejaVuSans-4b" d="M 628 4666 
L 1259 4666 
L 1259 2694 
L 3353 4666 
L 4166 4666 
L 1850 2491 
L 4331 0 
L 3500 0 
L 1259 2247 
L 1259 0 
L 628 0 
L 628 4666 
z
" transform="scale(0.015625)"/>
      </defs>
      <use xlink:href="#DejaVuSans-4b"/>
      <use xlink:href="#DejaVuSans-47" x="65.576172"/>
      <use xlink:href="#DejaVuSans-2d" x="143.066406"/>
      <use xlink:href="#DejaVuSans-52" x="179.150391"/>
      <use xlink:href="#DejaVuSans-41" x="244.632812"/>
      <use xlink:href="#DejaVuSans-47" x="311.291016"/>
     </g>
    </g>
   </g>
  </g>
 </g>
 <defs>
  <clipPath id="p2853eb6467">
   <rect x="40.603125" y="7.2" width="279" height="166.32"/>
  </clipPath>
 </defs>
</svg>
