<?xml version="1.0" encoding="utf-8" standalone="no"?>
<!DOCTYPE svg PUBLIC "-//W3C//DTD SVG 1.1//EN"
  "http://www.w3.org/Graphics/SVG/1.1/DTD/svg11.dtd">
<svg xmlns:xlink="http://www.w3.org/1999/xlink" width="337.935937pt" height="211.07625pt" viewBox="0 0 337.935937 211.07625" xmlns="http://www.w3.org/2000/svg" version="1.1">
 <metadata>
  <rdf:RDF xmlns:dc="http://purl.org/dc/elements/1.1/" xmlns:cc="http://creativecommons.org/ns#" xmlns:rdf="http://www.w3.org/1999/02/22-rdf-syntax-ns#">
   <cc:Work>
    <dc:type rdf:resource="http://purl.org/dc/dcmitype/StillImage"/>
    <dc:date>2024-03-22T21:15:39.570350</dc:date>
    <dc:format>image/svg+xml</dc:format>
    <dc:creator>
     <cc:Agent>
      <dc:title>Matplotlib v3.7.0, https://matplotlib.org/</dc:title>
     </cc:Agent>
    </dc:creator>
   </cc:Work>
  </rdf:RDF>
 </metadata>
 <defs>
  <style type="text/css">*{stroke-linejoin: round; stroke-linecap: butt}</style>
 </defs>
 <g id="figure_1">
  <g id="patch_1">
   <path d="M 0 211.07625 
L 337.935937 211.07625 
L 337.935937 0 
L 0 0 
z
" style="fill: #ffffff"/>
  </g>
  <g id="axes_1">
   <g id="patch_2">
    <path d="M 40.603125 173.52 
L 319.603125 173.52 
L 319.603125 7.2 
L 40.603125 7.2 
z
" style="fill: #ffffff"/>
   </g>
   <g id="PolyCollection_1">
    <defs>
     <path id="m64b3a3527f" d="M 125.653136 -37.584893 
L 125.653136 -37.55625 
L 126.480774 -37.55625 
L 127.308413 -37.55625 
L 128.136051 -37.55625 
L 128.963689 -37.55625 
L 129.791327 -37.55625 
L 130.618965 -37.55625 
L 131.446603 -37.55625 
L 132.274241 -37.55625 
L 133.101879 -37.55625 
L 133.929517 -37.55625 
L 134.757155 -37.55625 
L 135.584793 -37.55625 
L 136.412431 -37.55625 
L 137.240069 -37.55625 
L 138.067708 -37.55625 
L 138.895346 -37.55625 
L 139.722984 -37.55625 
L 140.550622 -37.55625 
L 141.37826 -37.55625 
L 142.205898 -37.55625 
L 143.033536 -37.55625 
L 143.861174 -37.55625 
L 144.688812 -37.55625 
L 145.51645 -37.55625 
L 146.344088 -37.55625 
L 147.171726 -37.55625 
L 147.999364 -37.55625 
L 148.827003 -37.55625 
L 149.654641 -37.55625 
L 150.482279 -37.55625 
L 151.309917 -37.55625 
L 152.137555 -37.55625 
L 152.965193 -37.55625 
L 153.792831 -37.55625 
L 154.620469 -37.55625 
L 155.448107 -37.55625 
L 156.275745 -37.55625 
L 157.103383 -37.55625 
L 157.931021 -37.55625 
L 158.758659 -37.55625 
L 159.586298 -37.55625 
L 160.413936 -37.55625 
L 161.241574 -37.55625 
L 162.069212 -37.55625 
L 162.89685 -37.55625 
L 163.724488 -37.55625 
L 164.552126 -37.55625 
L 165.379764 -37.55625 
L 166.207402 -37.55625 
L 167.03504 -37.55625 
L 167.862678 -37.55625 
L 168.690316 -37.55625 
L 169.517954 -37.55625 
L 170.345593 -37.55625 
L 171.173231 -37.55625 
L 172.000869 -37.55625 
L 172.828507 -37.55625 
L 173.656145 -37.55625 
L 174.483783 -37.55625 
L 175.311421 -37.55625 
L 176.139059 -37.55625 
L 176.966697 -37.55625 
L 177.794335 -37.55625 
L 178.621973 -37.55625 
L 179.449611 -37.55625 
L 180.277249 -37.55625 
L 181.104888 -37.55625 
L 181.932526 -37.55625 
L 182.760164 -37.55625 
L 183.587802 -37.55625 
L 184.41544 -37.55625 
L 185.243078 -37.55625 
L 186.070716 -37.55625 
L 186.898354 -37.55625 
L 187.725992 -37.55625 
L 188.55363 -37.55625 
L 189.381268 -37.55625 
L 190.208906 -37.55625 
L 191.036544 -37.55625 
L 191.864183 -37.55625 
L 192.691821 -37.55625 
L 193.519459 -37.55625 
L 194.347097 -37.55625 
L 195.174735 -37.55625 
L 196.002373 -37.55625 
L 196.830011 -37.55625 
L 197.657649 -37.55625 
L 198.485287 -37.55625 
L 199.312925 -37.55625 
L 200.140563 -37.55625 
L 200.968201 -37.55625 
L 201.795839 -37.55625 
L 202.623478 -37.55625 
L 203.451116 -37.55625 
L 204.278754 -37.55625 
L 205.106392 -37.55625 
L 205.93403 -37.55625 
L 206.761668 -37.55625 
L 207.589306 -37.55625 
L 208.416944 -37.55625 
L 209.244582 -37.55625 
L 210.07222 -37.55625 
L 210.899858 -37.55625 
L 211.727496 -37.55625 
L 212.555134 -37.55625 
L 213.382772 -37.55625 
L 214.210411 -37.55625 
L 215.038049 -37.55625 
L 215.865687 -37.55625 
L 216.693325 -37.55625 
L 217.520963 -37.55625 
L 218.348601 -37.55625 
L 219.176239 -37.55625 
L 220.003877 -37.55625 
L 220.831515 -37.55625 
L 221.659153 -37.55625 
L 222.486791 -37.55625 
L 223.314429 -37.55625 
L 224.142067 -37.55625 
L 224.969706 -37.55625 
L 225.797344 -37.55625 
L 226.624982 -37.55625 
L 227.45262 -37.55625 
L 228.280258 -37.55625 
L 229.107896 -37.55625 
L 229.935534 -37.55625 
L 230.763172 -37.55625 
L 231.59081 -37.55625 
L 232.418448 -37.55625 
L 233.246086 -37.55625 
L 234.073724 -37.55625 
L 234.901362 -37.55625 
L 235.729001 -37.55625 
L 236.556639 -37.55625 
L 237.384277 -37.55625 
L 238.211915 -37.55625 
L 239.039553 -37.55625 
L 239.867191 -37.55625 
L 240.694829 -37.55625 
L 241.522467 -37.55625 
L 242.350105 -37.55625 
L 243.177743 -37.55625 
L 244.005381 -37.55625 
L 244.833019 -37.55625 
L 245.660657 -37.55625 
L 246.488296 -37.55625 
L 247.315934 -37.55625 
L 248.143572 -37.55625 
L 248.97121 -37.55625 
L 249.798848 -37.55625 
L 250.626486 -37.55625 
L 251.454124 -37.55625 
L 252.281762 -37.55625 
L 253.1094 -37.55625 
L 253.937038 -37.55625 
L 254.764676 -37.55625 
L 255.592314 -37.55625 
L 256.419952 -37.55625 
L 257.247591 -37.55625 
L 258.075229 -37.55625 
L 258.902867 -37.55625 
L 259.730505 -37.55625 
L 260.558143 -37.55625 
L 261.385781 -37.55625 
L 262.213419 -37.55625 
L 263.041057 -37.55625 
L 263.868695 -37.55625 
L 264.696333 -37.55625 
L 265.523971 -37.55625 
L 266.351609 -37.55625 
L 267.179247 -37.55625 
L 268.006886 -37.55625 
L 268.834524 -37.55625 
L 269.662162 -37.55625 
L 270.4898 -37.55625 
L 271.317438 -37.55625 
L 272.145076 -37.55625 
L 272.972714 -37.55625 
L 273.800352 -37.55625 
L 274.62799 -37.55625 
L 275.455628 -37.55625 
L 276.283266 -37.55625 
L 277.110904 -37.55625 
L 277.938542 -37.55625 
L 278.766181 -37.55625 
L 279.593819 -37.55625 
L 280.421457 -37.55625 
L 281.249095 -37.55625 
L 282.076733 -37.55625 
L 282.904371 -37.55625 
L 283.732009 -37.55625 
L 284.559647 -37.55625 
L 285.387285 -37.55625 
L 286.214923 -37.55625 
L 287.042561 -37.55625 
L 287.870199 -37.55625 
L 288.697837 -37.55625 
L 289.525476 -37.55625 
L 290.353114 -37.55625 
L 290.353114 -37.561922 
L 290.353114 -37.561922 
L 289.525476 -37.565335 
L 288.697837 -37.570426 
L 287.870199 -37.577803 
L 287.042561 -37.588176 
L 286.214923 -37.602326 
L 285.387285 -37.621041 
L 284.559647 -37.645019 
L 283.732009 -37.674749 
L 282.904371 -37.710378 
L 282.076733 -37.751585 
L 281.249095 -37.797476 
L 280.421457 -37.84655 
L 279.593819 -37.896736 
L 278.766181 -37.945525 
L 277.938542 -37.990205 
L 277.110904 -38.028163 
L 276.283266 -38.057231 
L 275.455628 -38.076026 
L 274.62799 -38.084223 
L 273.800352 -38.08273 
L 272.972714 -38.073712 
L 272.145076 -38.060462 
L 271.317438 -38.04712 
L 270.4898 -38.03828 
L 269.662162 -38.038514 
L 268.834524 -38.051881 
L 268.006886 -38.081484 
L 267.179247 -38.129122 
L 266.351609 -38.195092 
L 265.523971 -38.278184 
L 264.696333 -38.375871 
L 263.868695 -38.484702 
L 263.041057 -38.600857 
L 262.213419 -38.72081 
L 261.385781 -38.842016 
L 260.558143 -38.963553 
L 259.730505 -39.086614 
L 258.902867 -39.214793 
L 258.075229 -39.354122 
L 257.247591 -39.51282 
L 256.419952 -39.700774 
L 255.592314 -39.928761 
L 254.764676 -40.207485 
L 253.937038 -40.546468 
L 253.1094 -40.952945 
L 252.281762 -41.430865 
L 251.454124 -41.980189 
L 250.626486 -42.596634 
L 249.798848 -43.271981 
L 248.97121 -43.995005 
L 248.143572 -44.752932 
L 247.315934 -45.533254 
L 246.488296 -46.325592 
L 245.660657 -47.123315 
L 244.833019 -47.924622 
L 244.005381 -48.732951 
L 243.177743 -49.556701 
L 242.350105 -50.408397 
L 241.522467 -51.30352 
L 240.694829 -52.259204 
L 239.867191 -53.292964 
L 239.039553 -54.421504 
L 238.211915 -55.659612 
L 237.384277 -57.019136 
L 236.556639 -58.508094 
L 235.729001 -60.130078 
L 234.901362 -61.88414 
L 234.073724 -63.765326 
L 233.246086 -65.765851 
L 232.418448 -67.876725 
L 231.59081 -70.08939 
L 230.763172 -72.396896 
L 229.935534 -74.794214 
L 229.107896 -77.277606 
L 228.280258 -79.843295 
L 227.45262 -82.486037 
L 226.624982 -85.198238 
L 225.797344 -87.970128 
L 224.969706 -90.791048 
L 224.142067 -93.651457 
L 223.314429 -96.544887 
L 222.486791 -99.469047 
L 221.659153 -102.425555 
L 220.831515 -105.418336 
L 220.003877 -108.451283 
L 219.176239 -111.526088 
L 218.348601 -114.641102 
L 217.520963 -117.791599 
L 216.693325 -120.971174 
L 215.865687 -124.173431 
L 215.038049 -127.392957 
L 214.210411 -130.624835 
L 213.382772 -133.862674 
L 212.555134 -137.095889 
L 211.727496 -140.307434 
L 210.899858 -143.473192 
L 210.07222 -146.563573 
L 209.244582 -149.54696 
L 208.416944 -152.393752 
L 207.589306 -155.079418 
L 206.761668 -157.585253 
L 205.93403 -159.896499 
L 205.106392 -161.998631 
L 204.278754 -163.873531 
L 203.451116 -165.497452 
L 202.623478 -166.842078 
L 201.795839 -167.878741 
L 200.968201 -168.584552 
L 200.140563 -168.948306 
L 199.312925 -168.973986 
L 198.485287 -168.680525 
L 197.657649 -168.097872 
L 196.830011 -167.260724 
L 196.002373 -166.202086 
L 195.174735 -164.948694 
L 194.347097 -163.51944 
L 193.519459 -161.926654 
L 192.691821 -160.178956 
L 191.864183 -158.283965 
L 191.036544 -156.24947 
L 190.208906 -154.082626 
L 189.381268 -151.78786 
L 188.55363 -149.364909 
L 187.725992 -146.808479 
L 186.898354 -144.110318 
L 186.070716 -141.263466 
L 185.243078 -138.267391 
L 184.41544 -135.132264 
L 183.587802 -131.880799 
L 182.760164 -128.546956 
L 181.932526 -125.171865 
L 181.104888 -121.798256 
L 180.277249 -118.465042 
L 179.449611 -115.203454 
L 178.621973 -112.035386 
L 177.794335 -108.973782 
L 176.966697 -106.024234 
L 176.139059 -103.186819 
L 175.311421 -100.457446 
L 174.483783 -97.828549 
L 173.656145 -95.289448 
L 172.828507 -92.826968 
L 172.000869 -90.426762 
L 171.173231 -88.075426 
L 170.345593 -85.762982 
L 169.517954 -83.485048 
L 168.690316 -81.24396 
L 167.862678 -79.048437 
L 167.03504 -76.911843 
L 166.207402 -74.849528 
L 165.379764 -72.875995 
L 164.552126 -71.002587 
L 163.724488 -69.236132 
L 162.89685 -67.578594 
L 162.069212 -66.027512 
L 161.241574 -64.576807 
L 160.413936 -63.217631 
L 159.586298 -61.939093 
L 158.758659 -60.728905 
L 157.931021 -59.574081 
L 157.103383 -58.461841 
L 156.275745 -57.380705 
L 155.448107 -56.321631 
L 154.620469 -55.278912 
L 153.792831 -54.250575 
L 152.965193 -53.238125 
L 152.137555 -52.245685 
L 151.309917 -51.278751 
L 150.482279 -50.34289 
L 149.654641 -49.442686 
L 148.827003 -48.581134 
L 147.999364 -47.759516 
L 147.171726 -46.977644 
L 146.344088 -46.234272 
L 145.51645 -45.527509 
L 144.688812 -44.855104 
L 143.861174 -44.214617 
L 143.033536 -43.603523 
L 142.205898 -43.019358 
L 141.37826 -42.459956 
L 140.550622 -41.923784 
L 139.722984 -41.4103 
L 138.895346 -40.920212 
L 138.067708 -40.455543 
L 137.240069 -40.019434 
L 136.412431 -39.6157 
L 135.584793 -39.248215 
L 134.757155 -38.920263 
L 133.929517 -38.633965 
L 133.101879 -38.389916 
L 132.274241 -38.187055 
L 131.446603 -38.022791 
L 130.618965 -37.893309 
L 129.791327 -37.794002 
L 128.963689 -37.719918 
L 128.136051 -37.666171 
L 127.308413 -37.628253 
L 126.480774 -37.602243 
L 125.653136 -37.584893 
z
" style="stroke: #0000ff; stroke-width: 2"/>
    </defs>
    <g clip-path="url(#p35c4392ce5)">
     <use xlink:href="#m64b3a3527f" x="0" y="211.07625" style="fill: #0000ff; fill-opacity: 0.6; stroke: #0000ff; stroke-width: 2"/>
    </g>
   </g>
   <g id="PolyCollection_2">
    <defs>
     <path id="mee41638823" d="M 188.938659 -37.571277 
L 188.938659 -37.55625 
L 189.541518 -37.55625 
L 190.144377 -37.55625 
L 190.747236 -37.55625 
L 191.350095 -37.55625 
L 191.952954 -37.55625 
L 192.555813 -37.55625 
L 193.158672 -37.55625 
L 193.761531 -37.55625 
L 194.36439 -37.55625 
L 194.967249 -37.55625 
L 195.570108 -37.55625 
L 196.172967 -37.55625 
L 196.775825 -37.55625 
L 197.378684 -37.55625 
L 197.981543 -37.55625 
L 198.584402 -37.55625 
L 199.187261 -37.55625 
L 199.79012 -37.55625 
L 200.392979 -37.55625 
L 200.995838 -37.55625 
L 201.598697 -37.55625 
L 202.201556 -37.55625 
L 202.804415 -37.55625 
L 203.407274 -37.55625 
L 204.010133 -37.55625 
L 204.612992 -37.55625 
L 205.215851 -37.55625 
L 205.81871 -37.55625 
L 206.421569 -37.55625 
L 207.024428 -37.55625 
L 207.627287 -37.55625 
L 208.230146 -37.55625 
L 208.833005 -37.55625 
L 209.435864 -37.55625 
L 210.038722 -37.55625 
L 210.641581 -37.55625 
L 211.24444 -37.55625 
L 211.847299 -37.55625 
L 212.450158 -37.55625 
L 213.053017 -37.55625 
L 213.655876 -37.55625 
L 214.258735 -37.55625 
L 214.861594 -37.55625 
L 215.464453 -37.55625 
L 216.067312 -37.55625 
L 216.670171 -37.55625 
L 217.27303 -37.55625 
L 217.875889 -37.55625 
L 218.478748 -37.55625 
L 219.081607 -37.55625 
L 219.684466 -37.55625 
L 220.287325 -37.55625 
L 220.890184 -37.55625 
L 221.493043 -37.55625 
L 222.095902 -37.55625 
L 222.698761 -37.55625 
L 223.301619 -37.55625 
L 223.904478 -37.55625 
L 224.507337 -37.55625 
L 225.110196 -37.55625 
L 225.713055 -37.55625 
L 226.315914 -37.55625 
L 226.918773 -37.55625 
L 227.521632 -37.55625 
L 228.124491 -37.55625 
L 228.72735 -37.55625 
L 229.330209 -37.55625 
L 229.933068 -37.55625 
L 230.535927 -37.55625 
L 231.138786 -37.55625 
L 231.741645 -37.55625 
L 232.344504 -37.55625 
L 232.947363 -37.55625 
L 233.550222 -37.55625 
L 234.153081 -37.55625 
L 234.75594 -37.55625 
L 235.358799 -37.55625 
L 235.961657 -37.55625 
L 236.564516 -37.55625 
L 237.167375 -37.55625 
L 237.770234 -37.55625 
L 238.373093 -37.55625 
L 238.975952 -37.55625 
L 239.578811 -37.55625 
L 240.18167 -37.55625 
L 240.784529 -37.55625 
L 241.387388 -37.55625 
L 241.990247 -37.55625 
L 242.593106 -37.55625 
L 243.195965 -37.55625 
L 243.798824 -37.55625 
L 244.401683 -37.55625 
L 245.004542 -37.55625 
L 245.607401 -37.55625 
L 246.21026 -37.55625 
L 246.813119 -37.55625 
L 247.415978 -37.55625 
L 248.018837 -37.55625 
L 248.621696 -37.55625 
L 249.224554 -37.55625 
L 249.827413 -37.55625 
L 250.430272 -37.55625 
L 251.033131 -37.55625 
L 251.63599 -37.55625 
L 252.238849 -37.55625 
L 252.841708 -37.55625 
L 253.444567 -37.55625 
L 254.047426 -37.55625 
L 254.650285 -37.55625 
L 255.253144 -37.55625 
L 255.856003 -37.55625 
L 256.458862 -37.55625 
L 257.061721 -37.55625 
L 257.66458 -37.55625 
L 258.267439 -37.55625 
L 258.870298 -37.55625 
L 259.473157 -37.55625 
L 260.076016 -37.55625 
L 260.678875 -37.55625 
L 261.281734 -37.55625 
L 261.884593 -37.55625 
L 262.487451 -37.55625 
L 263.09031 -37.55625 
L 263.693169 -37.55625 
L 264.296028 -37.55625 
L 264.898887 -37.55625 
L 265.501746 -37.55625 
L 266.104605 -37.55625 
L 266.707464 -37.55625 
L 267.310323 -37.55625 
L 267.913182 -37.55625 
L 268.516041 -37.55625 
L 269.1189 -37.55625 
L 269.721759 -37.55625 
L 270.324618 -37.55625 
L 270.927477 -37.55625 
L 271.530336 -37.55625 
L 272.133195 -37.55625 
L 272.736054 -37.55625 
L 273.338913 -37.55625 
L 273.941772 -37.55625 
L 274.544631 -37.55625 
L 275.147489 -37.55625 
L 275.750348 -37.55625 
L 276.353207 -37.55625 
L 276.956066 -37.55625 
L 277.558925 -37.55625 
L 278.161784 -37.55625 
L 278.764643 -37.55625 
L 279.367502 -37.55625 
L 279.970361 -37.55625 
L 280.57322 -37.55625 
L 281.176079 -37.55625 
L 281.778938 -37.55625 
L 282.381797 -37.55625 
L 282.984656 -37.55625 
L 283.587515 -37.55625 
L 284.190374 -37.55625 
L 284.793233 -37.55625 
L 285.396092 -37.55625 
L 285.998951 -37.55625 
L 286.60181 -37.55625 
L 287.204669 -37.55625 
L 287.807528 -37.55625 
L 288.410386 -37.55625 
L 289.013245 -37.55625 
L 289.616104 -37.55625 
L 290.218963 -37.55625 
L 290.821822 -37.55625 
L 291.424681 -37.55625 
L 292.02754 -37.55625 
L 292.630399 -37.55625 
L 293.233258 -37.55625 
L 293.836117 -37.55625 
L 294.438976 -37.55625 
L 295.041835 -37.55625 
L 295.644694 -37.55625 
L 296.247553 -37.55625 
L 296.850412 -37.55625 
L 297.453271 -37.55625 
L 298.05613 -37.55625 
L 298.658989 -37.55625 
L 299.261848 -37.55625 
L 299.864707 -37.55625 
L 300.467566 -37.55625 
L 301.070425 -37.55625 
L 301.673283 -37.55625 
L 302.276142 -37.55625 
L 302.879001 -37.55625 
L 303.48186 -37.55625 
L 304.084719 -37.55625 
L 304.687578 -37.55625 
L 305.290437 -37.55625 
L 305.893296 -37.55625 
L 306.496155 -37.55625 
L 307.099014 -37.55625 
L 307.701873 -37.55625 
L 308.304732 -37.55625 
L 308.907591 -37.55625 
L 308.907591 -37.563782 
L 308.907591 -37.563782 
L 308.304732 -37.56813 
L 307.701873 -37.574547 
L 307.099014 -37.583768 
L 306.496155 -37.596673 
L 305.893296 -37.614261 
L 305.290437 -37.637604 
L 304.687578 -37.667787 
L 304.084719 -37.70582 
L 303.48186 -37.752565 
L 302.879001 -37.808675 
L 302.276142 -37.874571 
L 301.673283 -37.9505 
L 301.070425 -38.036658 
L 300.467566 -38.133401 
L 299.864707 -38.241502 
L 299.261848 -38.362427 
L 298.658989 -38.498551 
L 298.05613 -38.65325 
L 297.453271 -38.830812 
L 296.850412 -39.036144 
L 296.247553 -39.274294 
L 295.644694 -39.54988 
L 295.041835 -39.866569 
L 294.438976 -40.226768 
L 293.836117 -40.631696 
L 293.233258 -41.081923 
L 292.630399 -41.578379 
L 292.02754 -42.123669 
L 291.424681 -42.723408 
L 290.821822 -43.387195 
L 290.218963 -44.128826 
L 289.616104 -44.965443 
L 289.013245 -45.915546 
L 288.410386 -46.996046 
L 287.807528 -48.218905 
L 287.204669 -49.588103 
L 286.60181 -51.097813 
L 285.998951 -52.732536 
L 285.396092 -54.469598 
L 284.793233 -56.283892 
L 284.190374 -58.154106 
L 283.587515 -60.069158 
L 282.984656 -62.03321 
L 282.381797 -64.06771 
L 281.778938 -66.209378 
L 281.176079 -68.503915 
L 280.57322 -70.996267 
L 279.970361 -73.719341 
L 279.367502 -76.683759 
L 278.764643 -79.871393 
L 278.161784 -83.234891 
L 277.558925 -86.704184 
L 276.956066 -90.199325 
L 276.353207 -93.647303 
L 275.750348 -96.999155 
L 275.147489 -100.243122 
L 274.544631 -103.410114 
L 273.941772 -106.569194 
L 273.338913 -109.813141 
L 272.736054 -113.236587 
L 272.133195 -116.911452 
L 271.530336 -120.865507 
L 270.927477 -125.069735 
L 270.324618 -129.438437 
L 269.721759 -133.843198 
L 269.1189 -138.138432 
L 268.516041 -142.193087 
L 267.913182 -145.921126 
L 267.310323 -149.30309 
L 266.707464 -152.392743 
L 266.104605 -155.306074 
L 265.501746 -158.194172 
L 264.898887 -161.205638 
L 264.296028 -164.447152 
L 263.693169 -167.951811 
L 263.09031 -171.663486 
L 262.487451 -175.441906 
L 261.884593 -179.088328 
L 261.281734 -182.386555 
L 260.678875 -185.15007 
L 260.076016 -187.264185 
L 259.473157 -188.712935 
L 258.870298 -189.583831 
L 258.267439 -190.048796 
L 257.66458 -190.32537 
L 257.061721 -190.627164 
L 256.458862 -191.115291 
L 255.856003 -191.862457 
L 255.253144 -192.838393 
L 254.650285 -193.920171 
L 254.047426 -194.924877 
L 253.444567 -195.65661 
L 252.841708 -195.95625 
L 252.238849 -195.741738 
L 251.63599 -195.028997 
L 251.033131 -193.928401 
L 250.430272 -192.617767 
L 249.827413 -191.298657 
L 249.224554 -190.146866 
L 248.621696 -189.269336 
L 248.018837 -188.678092 
L 247.415978 -188.287461 
L 246.813119 -187.9351 
L 246.21026 -187.421424 
L 245.607401 -186.557599 
L 245.004542 -185.210262 
L 244.401683 -183.332086 
L 243.798824 -180.970941 
L 243.195965 -178.255725 
L 242.593106 -175.362649 
L 241.990247 -172.470443 
L 241.387388 -169.715448 
L 240.784529 -167.157351 
L 240.18167 -164.763541 
L 239.578811 -162.415446 
L 238.975952 -159.934931 
L 238.373093 -157.124239 
L 237.770234 -153.810069 
L 237.167375 -149.881803 
L 236.564516 -145.315746 
L 235.961657 -140.180782 
L 235.358799 -134.625316 
L 234.75594 -128.849512 
L 234.153081 -123.069783 
L 233.550222 -117.483613 
L 232.947363 -112.241945 
L 232.344504 -107.434007 
L 231.741645 -103.086145 
L 231.138786 -99.172957 
L 230.535927 -95.636472 
L 229.933068 -92.407866 
L 229.330209 -89.426342 
L 228.72735 -86.651255 
L 228.124491 -84.065684 
L 227.521632 -81.672028 
L 226.918773 -79.482102 
L 226.315914 -77.50527 
L 225.713055 -75.738264 
L 225.110196 -74.159443 
L 224.507337 -72.728822 
L 223.904478 -71.393567 
L 223.301619 -70.097204 
L 222.698761 -68.790005 
L 222.095902 -67.437836 
L 221.493043 -66.027358 
L 220.890184 -64.566471 
L 220.287325 -63.08016 
L 219.684466 -61.602962 
L 219.081607 -60.169995 
L 218.478748 -58.808692 
L 217.875889 -57.533027 
L 217.27303 -56.341307 
L 216.670171 -55.217714 
L 216.067312 -54.136902 
L 215.464453 -53.070354 
L 214.861594 -51.992961 
L 214.258735 -50.888387 
L 213.655876 -49.752218 
L 213.053017 -48.592507 
L 212.450158 -47.427881 
L 211.847299 -46.283913 
L 211.24444 -45.188675 
L 210.641581 -44.168428 
L 210.038722 -43.244226 
L 209.435864 -42.429882 
L 208.833005 -41.731381 
L 208.230146 -41.14755 
L 207.627287 -40.671557 
L 207.024428 -40.292775 
L 206.421569 -39.99856 
L 205.81871 -39.775672 
L 205.215851 -39.611186 
L 204.612992 -39.492925 
L 204.010133 -39.409554 
L 203.407274 -39.350514 
L 202.804415 -39.30597 
L 202.201556 -39.26688 
L 201.598697 -39.225234 
L 200.995838 -39.174412 
L 200.392979 -39.109571 
L 199.79012 -39.027952 
L 199.187261 -38.929018 
L 198.584402 -38.81435 
L 197.981543 -38.687312 
L 197.378684 -38.552525 
L 196.775825 -38.415239 
L 196.172967 -38.280691 
L 195.570108 -38.153551 
L 194.967249 -38.037514 
L 194.36439 -37.935078 
L 193.761531 -37.847505 
L 193.158672 -37.774926 
L 192.555813 -37.716565 
L 191.952954 -37.671 
L 191.350095 -37.636437 
L 190.747236 -37.610952 
L 190.144377 -37.592679 
L 189.541518 -37.579931 
L 188.938659 -37.571277 
z
" style="stroke: #f08080; stroke-width: 2"/>
    </defs>
    <g clip-path="url(#p35c4392ce5)">
     <use xlink:href="#mee41638823" x="0" y="211.07625" style="fill: #f08080; fill-opacity: 0.6; stroke: #f08080; stroke-width: 2"/>
    </g>
   </g>
   <g id="matplotlib.axis_1">
    <g id="xtick_1">
     <g id="line2d_1">
      <defs>
       <path id="m72e79e4b0d" d="M 0 0 
L 0 3.5 
" style="stroke: #000000; stroke-width: 0.8"/>
      </defs>
      <g>
       <use xlink:href="#m72e79e4b0d" x="40.603125" y="173.52" style="stroke: #000000; stroke-width: 0.8"/>
      </g>
     </g>
     <g id="text_1">
      <!-- 0.75 -->
      <g transform="translate(29.470313 188.118438) scale(0.1 -0.1)">
       <defs>
        <path id="DejaVuSans-30" d="M 2034 4250 
Q 1547 4250 1301 3770 
Q 1056 3291 1056 2328 
Q 1056 1369 1301 889 
Q 1547 409 2034 409 
Q 2525 409 2770 889 
Q 3016 1369 3016 2328 
Q 3016 3291 2770 3770 
Q 2525 4250 2034 4250 
z
M 2034 4750 
Q 2819 4750 3233 4129 
Q 3647 3509 3647 2328 
Q 3647 1150 3233 529 
Q 2819 -91 2034 -91 
Q 1250 -91 836 529 
Q 422 1150 422 2328 
Q 422 3509 836 4129 
Q 1250 4750 2034 4750 
z
" transform="scale(0.015625)"/>
        <path id="DejaVuSans-2e" d="M 684 794 
L 1344 794 
L 1344 0 
L 684 0 
L 684 794 
z
" transform="scale(0.015625)"/>
        <path id="DejaVuSans-37" d="M 525 4666 
L 3525 4666 
L 3525 4397 
L 1831 0 
L 1172 0 
L 2766 4134 
L 525 4134 
L 525 4666 
z
" transform="scale(0.015625)"/>
        <path id="DejaVuSans-35" d="M 691 4666 
L 3169 4666 
L 3169 4134 
L 1269 4134 
L 1269 2991 
Q 1406 3038 1543 3061 
Q 1681 3084 1819 3084 
Q 2600 3084 3056 2656 
Q 3513 2228 3513 1497 
Q 3513 744 3044 326 
Q 2575 -91 1722 -91 
Q 1428 -91 1123 -41 
Q 819 9 494 109 
L 494 744 
Q 775 591 1075 516 
Q 1375 441 1709 441 
Q 2250 441 2565 725 
Q 2881 1009 2881 1497 
Q 2881 1984 2565 2268 
Q 2250 2553 1709 2553 
Q 1456 2553 1204 2497 
Q 953 2441 691 2322 
L 691 4666 
z
" transform="scale(0.015625)"/>
       </defs>
       <use xlink:href="#DejaVuSans-30"/>
       <use xlink:href="#DejaVuSans-2e" x="63.623047"/>
       <use xlink:href="#DejaVuSans-37" x="95.410156"/>
       <use xlink:href="#DejaVuSans-35" x="159.033203"/>
      </g>
     </g>
    </g>
    <g id="xtick_2">
     <g id="line2d_2">
      <g>
       <use xlink:href="#m72e79e4b0d" x="96.403125" y="173.52" style="stroke: #000000; stroke-width: 0.8"/>
      </g>
     </g>
     <g id="text_2">
      <!-- 0.80 -->
      <g transform="translate(85.270313 188.118438) scale(0.1 -0.1)">
       <defs>
        <path id="DejaVuSans-38" d="M 2034 2216 
Q 1584 2216 1326 1975 
Q 1069 1734 1069 1313 
Q 1069 891 1326 650 
Q 1584 409 2034 409 
Q 2484 409 2743 651 
Q 3003 894 3003 1313 
Q 3003 1734 2745 1975 
Q 2488 2216 2034 2216 
z
M 1403 2484 
Q 997 2584 770 2862 
Q 544 3141 544 3541 
Q 544 4100 942 4425 
Q 1341 4750 2034 4750 
Q 2731 4750 3128 4425 
Q 3525 4100 3525 3541 
Q 3525 3141 3298 2862 
Q 3072 2584 2669 2484 
Q 3125 2378 3379 2068 
Q 3634 1759 3634 1313 
Q 3634 634 3220 271 
Q 2806 -91 2034 -91 
Q 1263 -91 848 271 
Q 434 634 434 1313 
Q 434 1759 690 2068 
Q 947 2378 1403 2484 
z
M 1172 3481 
Q 1172 3119 1398 2916 
Q 1625 2713 2034 2713 
Q 2441 2713 2670 2916 
Q 2900 3119 2900 3481 
Q 2900 3844 2670 4047 
Q 2441 4250 2034 4250 
Q 1625 4250 1398 4047 
Q 1172 3844 1172 3481 
z
" transform="scale(0.015625)"/>
       </defs>
       <use xlink:href="#DejaVuSans-30"/>
       <use xlink:href="#DejaVuSans-2e" x="63.623047"/>
       <use xlink:href="#DejaVuSans-38" x="95.410156"/>
       <use xlink:href="#DejaVuSans-30" x="159.033203"/>
      </g>
     </g>
    </g>
    <g id="xtick_3">
     <g id="line2d_3">
      <g>
       <use xlink:href="#m72e79e4b0d" x="152.203125" y="173.52" style="stroke: #000000; stroke-width: 0.8"/>
      </g>
     </g>
     <g id="text_3">
      <!-- 0.85 -->
      <g transform="translate(141.070313 188.118438) scale(0.1 -0.1)">
       <use xlink:href="#DejaVuSans-30"/>
       <use xlink:href="#DejaVuSans-2e" x="63.623047"/>
       <use xlink:href="#DejaVuSans-38" x="95.410156"/>
       <use xlink:href="#DejaVuSans-35" x="159.033203"/>
      </g>
     </g>
    </g>
    <g id="xtick_4">
     <g id="line2d_4">
      <g>
       <use xlink:href="#m72e79e4b0d" x="208.003125" y="173.52" style="stroke: #000000; stroke-width: 0.8"/>
      </g>
     </g>
     <g id="text_4">
      <!-- 0.90 -->
      <g transform="translate(196.870313 188.118438) scale(0.1 -0.1)">
       <defs>
        <path id="DejaVuSans-39" d="M 703 97 
L 703 672 
Q 941 559 1184 500 
Q 1428 441 1663 441 
Q 2288 441 2617 861 
Q 2947 1281 2994 2138 
Q 2813 1869 2534 1725 
Q 2256 1581 1919 1581 
Q 1219 1581 811 2004 
Q 403 2428 403 3163 
Q 403 3881 828 4315 
Q 1253 4750 1959 4750 
Q 2769 4750 3195 4129 
Q 3622 3509 3622 2328 
Q 3622 1225 3098 567 
Q 2575 -91 1691 -91 
Q 1453 -91 1209 -44 
Q 966 3 703 97 
z
M 1959 2075 
Q 2384 2075 2632 2365 
Q 2881 2656 2881 3163 
Q 2881 3666 2632 3958 
Q 2384 4250 1959 4250 
Q 1534 4250 1286 3958 
Q 1038 3666 1038 3163 
Q 1038 2656 1286 2365 
Q 1534 2075 1959 2075 
z
" transform="scale(0.015625)"/>
       </defs>
       <use xlink:href="#DejaVuSans-30"/>
       <use xlink:href="#DejaVuSans-2e" x="63.623047"/>
       <use xlink:href="#DejaVuSans-39" x="95.410156"/>
       <use xlink:href="#DejaVuSans-30" x="159.033203"/>
      </g>
     </g>
    </g>
    <g id="xtick_5">
     <g id="line2d_5">
      <g>
       <use xlink:href="#m72e79e4b0d" x="263.803125" y="173.52" style="stroke: #000000; stroke-width: 0.8"/>
      </g>
     </g>
     <g id="text_5">
      <!-- 0.95 -->
      <g transform="translate(252.670313 188.118438) scale(0.1 -0.1)">
       <use xlink:href="#DejaVuSans-30"/>
       <use xlink:href="#DejaVuSans-2e" x="63.623047"/>
       <use xlink:href="#DejaVuSans-39" x="95.410156"/>
       <use xlink:href="#DejaVuSans-35" x="159.033203"/>
      </g>
     </g>
    </g>
    <g id="xtick_6">
     <g id="line2d_6">
      <g>
       <use xlink:href="#m72e79e4b0d" x="319.603125" y="173.52" style="stroke: #000000; stroke-width: 0.8"/>
      </g>
     </g>
     <g id="text_6">
      <!-- 1.00 -->
      <g transform="translate(308.470312 188.118438) scale(0.1 -0.1)">
       <defs>
        <path id="DejaVuSans-31" d="M 794 531 
L 1825 531 
L 1825 4091 
L 703 3866 
L 703 4441 
L 1819 4666 
L 2450 4666 
L 2450 531 
L 3481 531 
L 3481 0 
L 794 0 
L 794 531 
z
" transform="scale(0.015625)"/>
       </defs>
       <use xlink:href="#DejaVuSans-31"/>
       <use xlink:href="#DejaVuSans-2e" x="63.623047"/>
       <use xlink:href="#DejaVuSans-30" x="95.410156"/>
       <use xlink:href="#DejaVuSans-30" x="159.033203"/>
      </g>
     </g>
    </g>
    <g id="text_7">
     <!-- Accuracy -->
     <g transform="translate(157.275 201.796563) scale(0.1 -0.1)">
      <defs>
       <path id="DejaVuSans-41" d="M 2188 4044 
L 1331 1722 
L 3047 1722 
L 2188 4044 
z
M 1831 4666 
L 2547 4666 
L 4325 0 
L 3669 0 
L 3244 1197 
L 1141 1197 
L 716 0 
L 50 0 
L 1831 4666 
z
" transform="scale(0.015625)"/>
       <path id="DejaVuSans-63" d="M 3122 3366 
L 3122 2828 
Q 2878 2963 2633 3030 
Q 2388 3097 2138 3097 
Q 1578 3097 1268 2742 
Q 959 2388 959 1747 
Q 959 1106 1268 751 
Q 1578 397 2138 397 
Q 2388 397 2633 464 
Q 2878 531 3122 666 
L 3122 134 
Q 2881 22 2623 -34 
Q 2366 -91 2075 -91 
Q 1284 -91 818 406 
Q 353 903 353 1747 
Q 353 2603 823 3093 
Q 1294 3584 2113 3584 
Q 2378 3584 2631 3529 
Q 2884 3475 3122 3366 
z
" transform="scale(0.015625)"/>
       <path id="DejaVuSans-75" d="M 544 1381 
L 544 3500 
L 1119 3500 
L 1119 1403 
Q 1119 906 1312 657 
Q 1506 409 1894 409 
Q 2359 409 2629 706 
Q 2900 1003 2900 1516 
L 2900 3500 
L 3475 3500 
L 3475 0 
L 2900 0 
L 2900 538 
Q 2691 219 2414 64 
Q 2138 -91 1772 -91 
Q 1169 -91 856 284 
Q 544 659 544 1381 
z
M 1991 3584 
L 1991 3584 
z
" transform="scale(0.015625)"/>
       <path id="DejaVuSans-72" d="M 2631 2963 
Q 2534 3019 2420 3045 
Q 2306 3072 2169 3072 
Q 1681 3072 1420 2755 
Q 1159 2438 1159 1844 
L 1159 0 
L 581 0 
L 581 3500 
L 1159 3500 
L 1159 2956 
Q 1341 3275 1631 3429 
Q 1922 3584 2338 3584 
Q 2397 3584 2469 3576 
Q 2541 3569 2628 3553 
L 2631 2963 
z
" transform="scale(0.015625)"/>
       <path id="DejaVuSans-61" d="M 2194 1759 
Q 1497 1759 1228 1600 
Q 959 1441 959 1056 
Q 959 750 1161 570 
Q 1363 391 1709 391 
Q 2188 391 2477 730 
Q 2766 1069 2766 1631 
L 2766 1759 
L 2194 1759 
z
M 3341 1997 
L 3341 0 
L 2766 0 
L 2766 531 
Q 2569 213 2275 61 
Q 1981 -91 1556 -91 
Q 1019 -91 701 211 
Q 384 513 384 1019 
Q 384 1609 779 1909 
Q 1175 2209 1959 2209 
L 2766 2209 
L 2766 2266 
Q 2766 2663 2505 2880 
Q 2244 3097 1772 3097 
Q 1472 3097 1187 3025 
Q 903 2953 641 2809 
L 641 3341 
Q 956 3463 1253 3523 
Q 1550 3584 1831 3584 
Q 2591 3584 2966 3190 
Q 3341 2797 3341 1997 
z
" transform="scale(0.015625)"/>
       <path id="DejaVuSans-79" d="M 2059 -325 
Q 1816 -950 1584 -1140 
Q 1353 -1331 966 -1331 
L 506 -1331 
L 506 -850 
L 844 -850 
Q 1081 -850 1212 -737 
Q 1344 -625 1503 -206 
L 1606 56 
L 191 3500 
L 800 3500 
L 1894 763 
L 2988 3500 
L 3597 3500 
L 2059 -325 
z
" transform="scale(0.015625)"/>
      </defs>
      <use xlink:href="#DejaVuSans-41"/>
      <use xlink:href="#DejaVuSans-63" x="66.658203"/>
      <use xlink:href="#DejaVuSans-63" x="121.638672"/>
      <use xlink:href="#DejaVuSans-75" x="176.619141"/>
      <use xlink:href="#DejaVuSans-72" x="239.998047"/>
      <use xlink:href="#DejaVuSans-61" x="281.111328"/>
      <use xlink:href="#DejaVuSans-63" x="342.390625"/>
      <use xlink:href="#DejaVuSans-79" x="397.371094"/>
     </g>
    </g>
   </g>
   <g id="matplotlib.axis_2">
    <g id="ytick_1">
     <g id="line2d_7">
      <defs>
       <path id="m6acdf50b49" d="M 0 0 
L -3.5 0 
" style="stroke: #000000; stroke-width: 0.8"/>
      </defs>
      <g>
       <use xlink:href="#m6acdf50b49" x="40.603125" y="173.52" style="stroke: #000000; stroke-width: 0.8"/>
      </g>
     </g>
     <g id="text_8">
      <!-- 0 -->
      <g transform="translate(27.240625 177.319219) scale(0.1 -0.1)">
       <use xlink:href="#DejaVuSans-30"/>
      </g>
     </g>
    </g>
    <g id="ytick_2">
     <g id="line2d_8">
      <g>
       <use xlink:href="#m6acdf50b49" x="40.603125" y="144.102752" style="stroke: #000000; stroke-width: 0.8"/>
      </g>
     </g>
     <g id="text_9">
      <!-- 5 -->
      <g transform="translate(27.240625 147.901971) scale(0.1 -0.1)">
       <use xlink:href="#DejaVuSans-35"/>
      </g>
     </g>
    </g>
    <g id="ytick_3">
     <g id="line2d_9">
      <g>
       <use xlink:href="#m6acdf50b49" x="40.603125" y="114.685505" style="stroke: #000000; stroke-width: 0.8"/>
      </g>
     </g>
     <g id="text_10">
      <!-- 10 -->
      <g transform="translate(20.878125 118.484723) scale(0.1 -0.1)">
       <use xlink:href="#DejaVuSans-31"/>
       <use xlink:href="#DejaVuSans-30" x="63.623047"/>
      </g>
     </g>
    </g>
    <g id="ytick_4">
     <g id="line2d_10">
      <g>
       <use xlink:href="#m6acdf50b49" x="40.603125" y="85.268257" style="stroke: #000000; stroke-width: 0.8"/>
      </g>
     </g>
     <g id="text_11">
      <!-- 15 -->
      <g transform="translate(20.878125 89.067476) scale(0.1 -0.1)">
       <use xlink:href="#DejaVuSans-31"/>
       <use xlink:href="#DejaVuSans-35" x="63.623047"/>
      </g>
     </g>
    </g>
    <g id="ytick_5">
     <g id="line2d_11">
      <g>
       <use xlink:href="#m6acdf50b49" x="40.603125" y="55.851009" style="stroke: #000000; stroke-width: 0.8"/>
      </g>
     </g>
     <g id="text_12">
      <!-- 20 -->
      <g transform="translate(20.878125 59.650228) scale(0.1 -0.1)">
       <defs>
        <path id="DejaVuSans-32" d="M 1228 531 
L 3431 531 
L 3431 0 
L 469 0 
L 469 531 
Q 828 903 1448 1529 
Q 2069 2156 2228 2338 
Q 2531 2678 2651 2914 
Q 2772 3150 2772 3378 
Q 2772 3750 2511 3984 
Q 2250 4219 1831 4219 
Q 1534 4219 1204 4116 
Q 875 4013 500 3803 
L 500 4441 
Q 881 4594 1212 4672 
Q 1544 4750 1819 4750 
Q 2544 4750 2975 4387 
Q 3406 4025 3406 3419 
Q 3406 3131 3298 2873 
Q 3191 2616 2906 2266 
Q 2828 2175 2409 1742 
Q 1991 1309 1228 531 
z
" transform="scale(0.015625)"/>
       </defs>
       <use xlink:href="#DejaVuSans-32"/>
       <use xlink:href="#DejaVuSans-30" x="63.623047"/>
      </g>
     </g>
    </g>
    <g id="ytick_6">
     <g id="line2d_12">
      <g>
       <use xlink:href="#m6acdf50b49" x="40.603125" y="26.433762" style="stroke: #000000; stroke-width: 0.8"/>
      </g>
     </g>
     <g id="text_13">
      <!-- 25 -->
      <g transform="translate(20.878125 30.23298) scale(0.1 -0.1)">
       <use xlink:href="#DejaVuSans-32"/>
       <use xlink:href="#DejaVuSans-35" x="63.623047"/>
      </g>
     </g>
    </g>
    <g id="text_14">
     <!-- Density -->
     <g transform="translate(14.798438 109.368594) rotate(-90) scale(0.1 -0.1)">
      <defs>
       <path id="DejaVuSans-44" d="M 1259 4147 
L 1259 519 
L 2022 519 
Q 2988 519 3436 956 
Q 3884 1394 3884 2338 
Q 3884 3275 3436 3711 
Q 2988 4147 2022 4147 
L 1259 4147 
z
M 628 4666 
L 1925 4666 
Q 3281 4666 3915 4102 
Q 4550 3538 4550 2338 
Q 4550 1131 3912 565 
Q 3275 0 1925 0 
L 628 0 
L 628 4666 
z
" transform="scale(0.015625)"/>
       <path id="DejaVuSans-65" d="M 3597 1894 
L 3597 1613 
L 953 1613 
Q 991 1019 1311 708 
Q 1631 397 2203 397 
Q 2534 397 2845 478 
Q 3156 559 3463 722 
L 3463 178 
Q 3153 47 2828 -22 
Q 2503 -91 2169 -91 
Q 1331 -91 842 396 
Q 353 884 353 1716 
Q 353 2575 817 3079 
Q 1281 3584 2069 3584 
Q 2775 3584 3186 3129 
Q 3597 2675 3597 1894 
z
M 3022 2063 
Q 3016 2534 2758 2815 
Q 2500 3097 2075 3097 
Q 1594 3097 1305 2825 
Q 1016 2553 972 2059 
L 3022 2063 
z
" transform="scale(0.015625)"/>
       <path id="DejaVuSans-6e" d="M 3513 2113 
L 3513 0 
L 2938 0 
L 2938 2094 
Q 2938 2591 2744 2837 
Q 2550 3084 2163 3084 
Q 1697 3084 1428 2787 
Q 1159 2491 1159 1978 
L 1159 0 
L 581 0 
L 581 3500 
L 1159 3500 
L 1159 2956 
Q 1366 3272 1645 3428 
Q 1925 3584 2291 3584 
Q 2894 3584 3203 3211 
Q 3513 2838 3513 2113 
z
" transform="scale(0.015625)"/>
       <path id="DejaVuSans-73" d="M 2834 3397 
L 2834 2853 
Q 2591 2978 2328 3040 
Q 2066 3103 1784 3103 
Q 1356 3103 1142 2972 
Q 928 2841 928 2578 
Q 928 2378 1081 2264 
Q 1234 2150 1697 2047 
L 1894 2003 
Q 2506 1872 2764 1633 
Q 3022 1394 3022 966 
Q 3022 478 2636 193 
Q 2250 -91 1575 -91 
Q 1294 -91 989 -36 
Q 684 19 347 128 
L 347 722 
Q 666 556 975 473 
Q 1284 391 1588 391 
Q 1994 391 2212 530 
Q 2431 669 2431 922 
Q 2431 1156 2273 1281 
Q 2116 1406 1581 1522 
L 1381 1569 
Q 847 1681 609 1914 
Q 372 2147 372 2553 
Q 372 3047 722 3315 
Q 1072 3584 1716 3584 
Q 2034 3584 2315 3537 
Q 2597 3491 2834 3397 
z
" transform="scale(0.015625)"/>
       <path id="DejaVuSans-69" d="M 603 3500 
L 1178 3500 
L 1178 0 
L 603 0 
L 603 3500 
z
M 603 4863 
L 1178 4863 
L 1178 4134 
L 603 4134 
L 603 4863 
z
" transform="scale(0.015625)"/>
       <path id="DejaVuSans-74" d="M 1172 4494 
L 1172 3500 
L 2356 3500 
L 2356 3053 
L 1172 3053 
L 1172 1153 
Q 1172 725 1289 603 
Q 1406 481 1766 481 
L 2356 481 
L 2356 0 
L 1766 0 
Q 1100 0 847 248 
Q 594 497 594 1153 
L 594 3053 
L 172 3053 
L 172 3500 
L 594 3500 
L 594 4494 
L 1172 4494 
z
" transform="scale(0.015625)"/>
      </defs>
      <use xlink:href="#DejaVuSans-44"/>
      <use xlink:href="#DejaVuSans-65" x="77.001953"/>
      <use xlink:href="#DejaVuSans-6e" x="138.525391"/>
      <use xlink:href="#DejaVuSans-73" x="201.904297"/>
      <use xlink:href="#DejaVuSans-69" x="254.003906"/>
      <use xlink:href="#DejaVuSans-74" x="281.787109"/>
      <use xlink:href="#DejaVuSans-79" x="320.996094"/>
     </g>
    </g>
   </g>
   <g id="line2d_13">
    <path d="M 197.907045 173.52 
L 197.907045 7.2 
" clip-path="url(#p35c4392ce5)" style="fill: none; stroke-dasharray: 7.4,3.2; stroke-dashoffset: 0; stroke: #000000; stroke-width: 2"/>
   </g>
   <g id="line2d_14">
    <path d="M 252.003285 173.52 
L 252.003285 7.2 
" clip-path="url(#p35c4392ce5)" style="fill: none; stroke-dasharray: 7.4,3.2; stroke-dashoffset: 0; stroke: #000000; stroke-width: 2"/>
   </g>
   <g id="patch_3">
    <path d="M 40.603125 173.52 
L 40.603125 7.2 
" style="fill: none; stroke: #000000; stroke-width: 0.8; stroke-linejoin: miter; stroke-linecap: square"/>
   </g>
   <g id="patch_4">
    <path d="M 40.603125 173.52 
L 319.603125 173.52 
" style="fill: none; stroke: #000000; stroke-width: 0.8; stroke-linejoin: miter; stroke-linecap: square"/>
   </g>
   <g id="legend_1">
    <g id="patch_5">
     <path d="M 47.603125 44.55625 
L 151.845313 44.55625 
Q 153.845313 44.55625 153.845313 42.55625 
L 153.845313 14.2 
Q 153.845313 12.2 151.845313 12.2 
L 47.603125 12.2 
Q 45.603125 12.2 45.603125 14.2 
L 45.603125 42.55625 
Q 45.603125 44.55625 47.603125 44.55625 
z
" style="fill: #ffffff; opacity: 0.8; stroke: #cccccc; stroke-linejoin: miter"/>
    </g>
    <g id="patch_6">
     <path d="M 49.603125 23.798438 
L 69.603125 23.798438 
L 69.603125 16.798438 
L 49.603125 16.798438 
z
" style="fill: #0000ff; fill-opacity: 0.6; stroke: #0000ff; stroke-width: 2; stroke-linejoin: miter"/>
    </g>
    <g id="text_15">
     <!-- Prompt based -->
     <g transform="translate(77.603125 23.798438) scale(0.1 -0.1)">
      <defs>
       <path id="DejaVuSans-50" d="M 1259 4147 
L 1259 2394 
L 2053 2394 
Q 2494 2394 2734 2622 
Q 2975 2850 2975 3272 
Q 2975 3691 2734 3919 
Q 2494 4147 2053 4147 
L 1259 4147 
z
M 628 4666 
L 2053 4666 
Q 2838 4666 3239 4311 
Q 3641 3956 3641 3272 
Q 3641 2581 3239 2228 
Q 2838 1875 2053 1875 
L 1259 1875 
L 1259 0 
L 628 0 
L 628 4666 
z
" transform="scale(0.015625)"/>
       <path id="DejaVuSans-6f" d="M 1959 3097 
Q 1497 3097 1228 2736 
Q 959 2375 959 1747 
Q 959 1119 1226 758 
Q 1494 397 1959 397 
Q 2419 397 2687 759 
Q 2956 1122 2956 1747 
Q 2956 2369 2687 2733 
Q 2419 3097 1959 3097 
z
M 1959 3584 
Q 2709 3584 3137 3096 
Q 3566 2609 3566 1747 
Q 3566 888 3137 398 
Q 2709 -91 1959 -91 
Q 1206 -91 779 398 
Q 353 888 353 1747 
Q 353 2609 779 3096 
Q 1206 3584 1959 3584 
z
" transform="scale(0.015625)"/>
       <path id="DejaVuSans-6d" d="M 3328 2828 
Q 3544 3216 3844 3400 
Q 4144 3584 4550 3584 
Q 5097 3584 5394 3201 
Q 5691 2819 5691 2113 
L 5691 0 
L 5113 0 
L 5113 2094 
Q 5113 2597 4934 2840 
Q 4756 3084 4391 3084 
Q 3944 3084 3684 2787 
Q 3425 2491 3425 1978 
L 3425 0 
L 2847 0 
L 2847 2094 
Q 2847 2600 2669 2842 
Q 2491 3084 2119 3084 
Q 1678 3084 1418 2786 
Q 1159 2488 1159 1978 
L 1159 0 
L 581 0 
L 581 3500 
L 1159 3500 
L 1159 2956 
Q 1356 3278 1631 3431 
Q 1906 3584 2284 3584 
Q 2666 3584 2933 3390 
Q 3200 3197 3328 2828 
z
" transform="scale(0.015625)"/>
       <path id="DejaVuSans-70" d="M 1159 525 
L 1159 -1331 
L 581 -1331 
L 581 3500 
L 1159 3500 
L 1159 2969 
Q 1341 3281 1617 3432 
Q 1894 3584 2278 3584 
Q 2916 3584 3314 3078 
Q 3713 2572 3713 1747 
Q 3713 922 3314 415 
Q 2916 -91 2278 -91 
Q 1894 -91 1617 61 
Q 1341 213 1159 525 
z
M 3116 1747 
Q 3116 2381 2855 2742 
Q 2594 3103 2138 3103 
Q 1681 3103 1420 2742 
Q 1159 2381 1159 1747 
Q 1159 1113 1420 752 
Q 1681 391 2138 391 
Q 2594 391 2855 752 
Q 3116 1113 3116 1747 
z
" transform="scale(0.015625)"/>
       <path id="DejaVuSans-20" transform="scale(0.015625)"/>
       <path id="DejaVuSans-62" d="M 3116 1747 
Q 3116 2381 2855 2742 
Q 2594 3103 2138 3103 
Q 1681 3103 1420 2742 
Q 1159 2381 1159 1747 
Q 1159 1113 1420 752 
Q 1681 391 2138 391 
Q 2594 391 2855 752 
Q 3116 1113 3116 1747 
z
M 1159 2969 
Q 1341 3281 1617 3432 
Q 1894 3584 2278 3584 
Q 2916 3584 3314 3078 
Q 3713 2572 3713 1747 
Q 3713 922 3314 415 
Q 2916 -91 2278 -91 
Q 1894 -91 1617 61 
Q 1341 213 1159 525 
L 1159 0 
L 581 0 
L 581 4863 
L 1159 4863 
L 1159 2969 
z
" transform="scale(0.015625)"/>
       <path id="DejaVuSans-64" d="M 2906 2969 
L 2906 4863 
L 3481 4863 
L 3481 0 
L 2906 0 
L 2906 525 
Q 2725 213 2448 61 
Q 2172 -91 1784 -91 
Q 1150 -91 751 415 
Q 353 922 353 1747 
Q 353 2572 751 3078 
Q 1150 3584 1784 3584 
Q 2172 3584 2448 3432 
Q 2725 3281 2906 2969 
z
M 947 1747 
Q 947 1113 1208 752 
Q 1469 391 1925 391 
Q 2381 391 2643 752 
Q 2906 1113 2906 1747 
Q 2906 2381 2643 2742 
Q 2381 3103 1925 3103 
Q 1469 3103 1208 2742 
Q 947 2381 947 1747 
z
" transform="scale(0.015625)"/>
      </defs>
      <use xlink:href="#DejaVuSans-50"/>
      <use xlink:href="#DejaVuSans-72" x="58.552734"/>
      <use xlink:href="#DejaVuSans-6f" x="97.416016"/>
      <use xlink:href="#DejaVuSans-6d" x="158.597656"/>
      <use xlink:href="#DejaVuSans-70" x="256.009766"/>
      <use xlink:href="#DejaVuSans-74" x="319.486328"/>
      <use xlink:href="#DejaVuSans-20" x="358.695312"/>
      <use xlink:href="#DejaVuSans-62" x="390.482422"/>
      <use xlink:href="#DejaVuSans-61" x="453.958984"/>
      <use xlink:href="#DejaVuSans-73" x="515.238281"/>
      <use xlink:href="#DejaVuSans-65" x="567.337891"/>
      <use xlink:href="#DejaVuSans-64" x="628.861328"/>
     </g>
    </g>
    <g id="patch_7">
     <path d="M 49.603125 38.476562 
L 69.603125 38.476562 
L 69.603125 31.476562 
L 49.603125 31.476562 
z
" style="fill: #f08080; fill-opacity: 0.6; stroke: #f08080; stroke-width: 2; stroke-linejoin: miter"/>
    </g>
    <g id="text_16">
     <!-- KG-RAG based -->
     <g transform="translate(77.603125 38.476562) scale(0.1 -0.1)">
      <defs>
       <path id="DejaVuSans-4b" d="M 628 4666 
L 1259 4666 
L 1259 2694 
L 3353 4666 
L 4166 4666 
L 1850 2491 
L 4331 0 
L 3500 0 
L 1259 2247 
L 1259 0 
L 628 0 
L 628 4666 
z
" transform="scale(0.015625)"/>
       <path id="DejaVuSans-47" d="M 3809 666 
L 3809 1919 
L 2778 1919 
L 2778 2438 
L 4434 2438 
L 4434 434 
Q 4069 175 3628 42 
Q 3188 -91 2688 -91 
Q 1594 -91 976 548 
Q 359 1188 359 2328 
Q 359 3472 976 4111 
Q 1594 4750 2688 4750 
Q 3144 4750 3555 4637 
Q 3966 4525 4313 4306 
L 4313 3634 
Q 3963 3931 3569 4081 
Q 3175 4231 2741 4231 
Q 1884 4231 1454 3753 
Q 1025 3275 1025 2328 
Q 1025 1384 1454 906 
Q 1884 428 2741 428 
Q 3075 428 3337 486 
Q 3600 544 3809 666 
z
" transform="scale(0.015625)"/>
       <path id="DejaVuSans-2d" d="M 313 2009 
L 1997 2009 
L 1997 1497 
L 313 1497 
L 313 2009 
z
" transform="scale(0.015625)"/>
       <path id="DejaVuSans-52" d="M 2841 2188 
Q 3044 2119 3236 1894 
Q 3428 1669 3622 1275 
L 4263 0 
L 3584 0 
L 2988 1197 
Q 2756 1666 2539 1819 
Q 2322 1972 1947 1972 
L 1259 1972 
L 1259 0 
L 628 0 
L 628 4666 
L 2053 4666 
Q 2853 4666 3247 4331 
Q 3641 3997 3641 3322 
Q 3641 2881 3436 2590 
Q 3231 2300 2841 2188 
z
M 1259 4147 
L 1259 2491 
L 2053 2491 
Q 2509 2491 2742 2702 
Q 2975 2913 2975 3322 
Q 2975 3731 2742 3939 
Q 2509 4147 2053 4147 
L 1259 4147 
z
" transform="scale(0.015625)"/>
      </defs>
      <use xlink:href="#DejaVuSans-4b"/>
      <use xlink:href="#DejaVuSans-47" x="65.576172"/>
      <use xlink:href="#DejaVuSans-2d" x="143.066406"/>
      <use xlink:href="#DejaVuSans-52" x="179.150391"/>
      <use xlink:href="#DejaVuSans-41" x="244.632812"/>
      <use xlink:href="#DejaVuSans-47" x="311.291016"/>
      <use xlink:href="#DejaVuSans-20" x="388.78125"/>
      <use xlink:href="#DejaVuSans-62" x="420.568359"/>
      <use xlink:href="#DejaVuSans-61" x="484.044922"/>
      <use xlink:href="#DejaVuSans-73" x="545.324219"/>
      <use xlink:href="#DejaVuSans-65" x="597.423828"/>
      <use xlink:href="#DejaVuSans-64" x="658.947266"/>
     </g>
    </g>
   </g>
  </g>
 </g>
 <defs>
  <clipPath id="p35c4392ce5">
   <rect x="40.603125" y="7.2" width="279" height="166.32"/>
  </clipPath>
 </defs>
</svg>
