<?xml version="1.0" encoding="utf-8" standalone="no"?>
<!DOCTYPE svg PUBLIC "-//W3C//DTD SVG 1.1//EN"
  "http://www.w3.org/Graphics/SVG/1.1/DTD/svg11.dtd">
<svg xmlns:xlink="http://www.w3.org/1999/xlink" width="334.754687pt" height="211.07625pt" viewBox="0 0 334.754687 211.07625" xmlns="http://www.w3.org/2000/svg" version="1.1">
 <metadata>
  <rdf:RDF xmlns:dc="http://purl.org/dc/elements/1.1/" xmlns:cc="http://creativecommons.org/ns#" xmlns:rdf="http://www.w3.org/1999/02/22-rdf-syntax-ns#">
   <cc:Work>
    <dc:type rdf:resource="http://purl.org/dc/dcmitype/StillImage"/>
    <dc:date>2024-03-22T21:13:16.645216</dc:date>
    <dc:format>image/svg+xml</dc:format>
    <dc:creator>
     <cc:Agent>
      <dc:title>Matplotlib v3.7.0, https://matplotlib.org/</dc:title>
     </cc:Agent>
    </dc:creator>
   </cc:Work>
  </rdf:RDF>
 </metadata>
 <defs>
  <style type="text/css">*{stroke-linejoin: round; stroke-linecap: butt}</style>
 </defs>
 <g id="figure_1">
  <g id="patch_1">
   <path d="M 0 211.07625 
L 334.754687 211.07625 
L 334.754687 0 
L 0 0 
z
" style="fill: #ffffff"/>
  </g>
  <g id="axes_1">
   <g id="patch_2">
    <path d="M 40.603125 173.52 
L 319.603125 173.52 
L 319.603125 7.2 
L 40.603125 7.2 
z
" style="fill: #ffffff"/>
   </g>
   <g id="PolyCollection_1">
    <defs>
     <path id="m1c3ea242fa" d="M 68.198598 -37.563364 
L 68.198598 -37.55625 
L 68.633945 -37.55625 
L 69.069292 -37.55625 
L 69.504639 -37.55625 
L 69.939986 -37.55625 
L 70.375333 -37.55625 
L 70.81068 -37.55625 
L 71.246027 -37.55625 
L 71.681374 -37.55625 
L 72.116721 -37.55625 
L 72.552068 -37.55625 
L 72.987415 -37.55625 
L 73.422762 -37.55625 
L 73.858109 -37.55625 
L 74.293456 -37.55625 
L 74.728803 -37.55625 
L 75.16415 -37.55625 
L 75.599497 -37.55625 
L 76.034844 -37.55625 
L 76.470191 -37.55625 
L 76.905538 -37.55625 
L 77.340885 -37.55625 
L 77.776232 -37.55625 
L 78.211579 -37.55625 
L 78.646926 -37.55625 
L 79.082273 -37.55625 
L 79.51762 -37.55625 
L 79.952967 -37.55625 
L 80.388314 -37.55625 
L 80.823661 -37.55625 
L 81.259008 -37.55625 
L 81.694355 -37.55625 
L 82.129702 -37.55625 
L 82.565049 -37.55625 
L 83.000396 -37.55625 
L 83.435743 -37.55625 
L 83.87109 -37.55625 
L 84.306437 -37.55625 
L 84.741784 -37.55625 
L 85.177131 -37.55625 
L 85.612478 -37.55625 
L 86.047825 -37.55625 
L 86.483172 -37.55625 
L 86.918519 -37.55625 
L 87.353866 -37.55625 
L 87.789213 -37.55625 
L 88.22456 -37.55625 
L 88.659907 -37.55625 
L 89.095254 -37.55625 
L 89.530601 -37.55625 
L 89.965948 -37.55625 
L 90.401295 -37.55625 
L 90.836642 -37.55625 
L 91.271989 -37.55625 
L 91.707336 -37.55625 
L 92.142683 -37.55625 
L 92.57803 -37.55625 
L 93.013377 -37.55625 
L 93.448724 -37.55625 
L 93.884071 -37.55625 
L 94.319418 -37.55625 
L 94.754765 -37.55625 
L 95.190112 -37.55625 
L 95.625459 -37.55625 
L 96.060806 -37.55625 
L 96.496153 -37.55625 
L 96.9315 -37.55625 
L 97.366847 -37.55625 
L 97.802194 -37.55625 
L 98.237541 -37.55625 
L 98.672888 -37.55625 
L 99.108235 -37.55625 
L 99.543582 -37.55625 
L 99.978929 -37.55625 
L 100.414276 -37.55625 
L 100.849623 -37.55625 
L 101.28497 -37.55625 
L 101.720317 -37.55625 
L 102.155664 -37.55625 
L 102.591011 -37.55625 
L 103.026358 -37.55625 
L 103.461705 -37.55625 
L 103.897052 -37.55625 
L 104.332399 -37.55625 
L 104.767746 -37.55625 
L 105.203093 -37.55625 
L 105.63844 -37.55625 
L 106.073787 -37.55625 
L 106.509134 -37.55625 
L 106.944481 -37.55625 
L 107.379828 -37.55625 
L 107.815175 -37.55625 
L 108.250522 -37.55625 
L 108.685869 -37.55625 
L 109.121216 -37.55625 
L 109.556563 -37.55625 
L 109.99191 -37.55625 
L 110.427257 -37.55625 
L 110.862604 -37.55625 
L 111.297951 -37.55625 
L 111.733299 -37.55625 
L 112.168646 -37.55625 
L 112.603993 -37.55625 
L 113.03934 -37.55625 
L 113.474687 -37.55625 
L 113.910034 -37.55625 
L 114.345381 -37.55625 
L 114.780728 -37.55625 
L 115.216075 -37.55625 
L 115.651422 -37.55625 
L 116.086769 -37.55625 
L 116.522116 -37.55625 
L 116.957463 -37.55625 
L 117.39281 -37.55625 
L 117.828157 -37.55625 
L 118.263504 -37.55625 
L 118.698851 -37.55625 
L 119.134198 -37.55625 
L 119.569545 -37.55625 
L 120.004892 -37.55625 
L 120.440239 -37.55625 
L 120.875586 -37.55625 
L 121.310933 -37.55625 
L 121.74628 -37.55625 
L 122.181627 -37.55625 
L 122.616974 -37.55625 
L 123.052321 -37.55625 
L 123.487668 -37.55625 
L 123.923015 -37.55625 
L 124.358362 -37.55625 
L 124.793709 -37.55625 
L 125.229056 -37.55625 
L 125.664403 -37.55625 
L 126.09975 -37.55625 
L 126.535097 -37.55625 
L 126.970444 -37.55625 
L 127.405791 -37.55625 
L 127.841138 -37.55625 
L 128.276485 -37.55625 
L 128.711832 -37.55625 
L 129.147179 -37.55625 
L 129.582526 -37.55625 
L 130.017873 -37.55625 
L 130.45322 -37.55625 
L 130.888567 -37.55625 
L 131.323914 -37.55625 
L 131.759261 -37.55625 
L 132.194608 -37.55625 
L 132.629955 -37.55625 
L 133.065302 -37.55625 
L 133.500649 -37.55625 
L 133.935996 -37.55625 
L 134.371343 -37.55625 
L 134.80669 -37.55625 
L 135.242037 -37.55625 
L 135.677384 -37.55625 
L 136.112731 -37.55625 
L 136.548078 -37.55625 
L 136.983425 -37.55625 
L 137.418772 -37.55625 
L 137.854119 -37.55625 
L 138.289466 -37.55625 
L 138.724813 -37.55625 
L 139.16016 -37.55625 
L 139.595507 -37.55625 
L 140.030854 -37.55625 
L 140.466201 -37.55625 
L 140.901548 -37.55625 
L 141.336895 -37.55625 
L 141.772242 -37.55625 
L 142.207589 -37.55625 
L 142.642936 -37.55625 
L 143.078283 -37.55625 
L 143.51363 -37.55625 
L 143.948977 -37.55625 
L 144.384324 -37.55625 
L 144.819671 -37.55625 
L 145.255018 -37.55625 
L 145.690365 -37.55625 
L 146.125712 -37.55625 
L 146.561059 -37.55625 
L 146.996406 -37.55625 
L 147.431753 -37.55625 
L 147.8671 -37.55625 
L 148.302447 -37.55625 
L 148.737794 -37.55625 
L 149.173141 -37.55625 
L 149.608488 -37.55625 
L 150.043835 -37.55625 
L 150.479182 -37.55625 
L 150.914529 -37.55625 
L 151.349876 -37.55625 
L 151.785223 -37.55625 
L 152.22057 -37.55625 
L 152.655917 -37.55625 
L 153.091264 -37.55625 
L 153.526611 -37.55625 
L 153.961958 -37.55625 
L 154.397305 -37.55625 
L 154.832652 -37.55625 
L 154.832652 -37.563364 
L 154.832652 -37.563364 
L 154.397305 -37.568241 
L 153.961958 -37.575823 
L 153.526611 -37.587186 
L 153.091264 -37.603596 
L 152.655917 -37.626417 
L 152.22057 -37.656943 
L 151.785223 -37.696172 
L 151.349876 -37.744526 
L 150.914529 -37.801565 
L 150.479182 -37.86576 
L 150.043835 -37.934388 
L 149.608488 -38.003604 
L 149.173141 -38.068738 
L 148.737794 -38.124786 
L 148.302447 -38.167046 
L 147.8671 -38.191789 
L 147.431753 -38.196843 
L 146.996406 -38.181984 
L 146.561059 -38.149053 
L 146.125712 -38.101797 
L 145.690365 -38.045477 
L 145.255018 -37.98635 
L 144.819671 -37.931128 
L 144.384324 -37.886527 
L 143.948977 -37.858957 
L 143.51363 -37.854356 
L 143.078283 -37.878136 
L 142.642936 -37.935177 
L 142.207589 -38.029806 
L 141.772242 -38.165749 
L 141.336895 -38.346068 
L 140.901548 -38.573151 
L 140.466201 -38.848842 
L 140.030854 -39.174782 
L 139.595507 -39.552995 
L 139.16016 -39.986686 
L 138.724813 -40.48113 
L 138.289466 -41.044499 
L 137.854119 -41.688413 
L 137.418772 -42.428043 
L 136.983425 -43.281623 
L 136.548078 -44.269318 
L 136.112731 -45.411474 
L 135.677384 -46.726397 
L 135.242037 -48.22787 
L 134.80669 -49.922706 
L 134.371343 -51.808706 
L 133.935996 -53.873361 
L 133.500649 -56.093667 
L 133.065302 -58.437253 
L 132.629955 -60.864904 
L 132.194608 -63.334336 
L 131.759261 -65.80486 
L 131.323914 -68.242368 
L 130.888567 -70.62401 
L 130.45322 -72.941862 
L 130.017873 -75.204992 
L 129.582526 -77.439492 
L 129.147179 -79.686251 
L 128.711832 -81.996561 
L 128.276485 -84.42592 
L 127.841138 -87.026784 
L 127.405791 -89.84126 
L 126.970444 -92.894931 
L 126.535097 -96.192961 
L 126.09975 -99.719311 
L 125.664403 -103.43941 
L 125.229056 -107.305885 
L 124.793709 -111.266324 
L 124.358362 -115.271581 
L 123.923015 -119.282975 
L 123.487668 -123.27704 
L 123.052321 -127.247028 
L 122.616974 -131.201128 
L 122.181627 -135.158045 
L 121.74628 -139.141033 
L 121.310933 -143.171641 
L 120.875586 -147.264263 
L 120.440239 -151.422215 
L 120.004892 -155.635612 
L 119.569545 -159.88094 
L 119.134198 -164.121991 
L 118.698851 -168.31173 
L 118.263504 -172.394771 
L 117.828157 -176.310245 
L 117.39281 -179.995015 
L 116.957463 -183.387219 
L 116.522116 -186.43015 
L 116.086769 -189.076341 
L 115.651422 -191.291559 
L 115.216075 -193.058283 
L 114.780728 -194.378066 
L 114.345381 -195.272218 
L 113.910034 -195.780315 
L 113.474687 -195.95625 
L 113.03934 -195.861884 
L 112.603993 -195.558691 
L 112.168646 -195.098256 
L 111.733299 -194.512895 
L 111.297951 -193.807985 
L 110.862604 -192.957754 
L 110.427257 -191.906073 
L 109.99191 -190.573176 
L 109.556563 -188.868155 
L 109.121216 -186.705774 
L 108.685869 -184.024803 
L 108.250522 -180.804213 
L 107.815175 -177.07348 
L 107.379828 -172.914133 
L 106.944481 -168.451453 
L 106.509134 -163.837456 
L 106.073787 -159.228399 
L 105.63844 -154.761429 
L 105.203093 -150.535157 
L 104.767746 -146.597963 
L 104.332399 -142.945898 
L 103.897052 -139.529752 
L 103.461705 -136.268944 
L 103.026358 -133.068658 
L 102.591011 -129.83655 
L 102.155664 -126.49606 
L 101.720317 -122.994679 
L 101.28497 -119.306947 
L 100.849623 -115.433078 
L 100.414276 -111.394727 
L 99.978929 -107.229513 
L 99.543582 -102.985569 
L 99.108235 -98.716841 
L 98.672888 -94.479345 
L 98.237541 -90.328195 
L 97.802194 -86.315099 
L 97.366847 -82.486016 
L 96.9315 -78.878924 
L 96.496153 -75.521786 
L 96.060806 -72.431004 
L 95.625459 -69.610665 
L 95.190112 -67.052829 
L 94.754765 -64.738951 
L 94.319418 -62.642345 
L 93.884071 -60.73144 
L 93.448724 -58.973452 
L 93.013377 -57.338023 
L 92.57803 -55.800402 
L 92.142683 -54.343757 
L 91.707336 -52.960326 
L 91.271989 -51.651238 
L 90.836642 -50.425027 
L 90.401295 -49.29505 
L 89.965948 -48.276192 
L 89.530601 -47.381386 
L 89.095254 -46.618493 
L 88.659907 -45.988019 
L 88.22456 -45.482007 
L 87.789213 -45.084211 
L 87.353866 -44.771474 
L 86.918519 -44.516032 
L 86.483172 -44.288386 
L 86.047825 -44.06033 
L 85.612478 -43.80773 
L 85.177131 -43.512742 
L 84.741784 -43.165203 
L 84.306437 -42.763079 
L 83.87109 -42.311964 
L 83.435743 -41.823744 
L 83.000396 -41.314676 
L 82.565049 -40.803179 
L 82.129702 -40.307671 
L 81.694355 -39.844731 
L 81.259008 -39.427773 
L 80.823661 -39.066303 
L 80.388314 -38.765712 
L 79.952967 -38.527487 
L 79.51762 -38.34968 
L 79.082273 -38.227492 
L 78.646926 -38.153882 
L 78.211579 -38.120156 
L 77.776232 -38.11654 
L 77.340885 -38.132777 
L 76.905538 -38.158762 
L 76.470191 -38.185205 
L 76.034844 -38.204288 
L 75.599497 -38.210213 
L 75.16415 -38.199573 
L 74.728803 -38.171446 
L 74.293456 -38.1272 
L 73.858109 -38.070022 
L 73.422762 -38.004267 
L 72.987415 -37.93472 
L 72.552068 -37.865922 
L 72.116721 -37.801641 
L 71.681374 -37.74456 
L 71.246027 -37.696187 
L 70.81068 -37.656949 
L 70.375333 -37.626419 
L 69.939986 -37.603597 
L 69.504639 -37.587186 
L 69.069292 -37.575823 
L 68.633945 -37.568241 
L 68.198598 -37.563364 
z
" style="stroke: #0000ff; stroke-width: 2"/>
    </defs>
    <g clip-path="url(#pf8bb1db20a)">
     <use xlink:href="#m1c3ea242fa" x="0" y="211.07625" style="fill: #0000ff; fill-opacity: 0.6; stroke: #0000ff; stroke-width: 2"/>
    </g>
   </g>
   <g id="PolyCollection_2">
    <defs>
     <path id="m22a0f07afb" d="M 146.882028 -37.569801 
L 146.882028 -37.55625 
L 147.286009 -37.55625 
L 147.68999 -37.55625 
L 148.093971 -37.55625 
L 148.497952 -37.55625 
L 148.901933 -37.55625 
L 149.305914 -37.55625 
L 149.709895 -37.55625 
L 150.113875 -37.55625 
L 150.517856 -37.55625 
L 150.921837 -37.55625 
L 151.325818 -37.55625 
L 151.729799 -37.55625 
L 152.13378 -37.55625 
L 152.537761 -37.55625 
L 152.941741 -37.55625 
L 153.345722 -37.55625 
L 153.749703 -37.55625 
L 154.153684 -37.55625 
L 154.557665 -37.55625 
L 154.961646 -37.55625 
L 155.365627 -37.55625 
L 155.769608 -37.55625 
L 156.173588 -37.55625 
L 156.577569 -37.55625 
L 156.98155 -37.55625 
L 157.385531 -37.55625 
L 157.789512 -37.55625 
L 158.193493 -37.55625 
L 158.597474 -37.55625 
L 159.001455 -37.55625 
L 159.405435 -37.55625 
L 159.809416 -37.55625 
L 160.213397 -37.55625 
L 160.617378 -37.55625 
L 161.021359 -37.55625 
L 161.42534 -37.55625 
L 161.829321 -37.55625 
L 162.233301 -37.55625 
L 162.637282 -37.55625 
L 163.041263 -37.55625 
L 163.445244 -37.55625 
L 163.849225 -37.55625 
L 164.253206 -37.55625 
L 164.657187 -37.55625 
L 165.061168 -37.55625 
L 165.465148 -37.55625 
L 165.869129 -37.55625 
L 166.27311 -37.55625 
L 166.677091 -37.55625 
L 167.081072 -37.55625 
L 167.485053 -37.55625 
L 167.889034 -37.55625 
L 168.293015 -37.55625 
L 168.696995 -37.55625 
L 169.100976 -37.55625 
L 169.504957 -37.55625 
L 169.908938 -37.55625 
L 170.312919 -37.55625 
L 170.7169 -37.55625 
L 171.120881 -37.55625 
L 171.524862 -37.55625 
L 171.928842 -37.55625 
L 172.332823 -37.55625 
L 172.736804 -37.55625 
L 173.140785 -37.55625 
L 173.544766 -37.55625 
L 173.948747 -37.55625 
L 174.352728 -37.55625 
L 174.756708 -37.55625 
L 175.160689 -37.55625 
L 175.56467 -37.55625 
L 175.968651 -37.55625 
L 176.372632 -37.55625 
L 176.776613 -37.55625 
L 177.180594 -37.55625 
L 177.584575 -37.55625 
L 177.988555 -37.55625 
L 178.392536 -37.55625 
L 178.796517 -37.55625 
L 179.200498 -37.55625 
L 179.604479 -37.55625 
L 180.00846 -37.55625 
L 180.412441 -37.55625 
L 180.816422 -37.55625 
L 181.220402 -37.55625 
L 181.624383 -37.55625 
L 182.028364 -37.55625 
L 182.432345 -37.55625 
L 182.836326 -37.55625 
L 183.240307 -37.55625 
L 183.644288 -37.55625 
L 184.048268 -37.55625 
L 184.452249 -37.55625 
L 184.85623 -37.55625 
L 185.260211 -37.55625 
L 185.664192 -37.55625 
L 186.068173 -37.55625 
L 186.472154 -37.55625 
L 186.876135 -37.55625 
L 187.280115 -37.55625 
L 187.684096 -37.55625 
L 188.088077 -37.55625 
L 188.492058 -37.55625 
L 188.896039 -37.55625 
L 189.30002 -37.55625 
L 189.704001 -37.55625 
L 190.107982 -37.55625 
L 190.511962 -37.55625 
L 190.915943 -37.55625 
L 191.319924 -37.55625 
L 191.723905 -37.55625 
L 192.127886 -37.55625 
L 192.531867 -37.55625 
L 192.935848 -37.55625 
L 193.339828 -37.55625 
L 193.743809 -37.55625 
L 194.14779 -37.55625 
L 194.551771 -37.55625 
L 194.955752 -37.55625 
L 195.359733 -37.55625 
L 195.763714 -37.55625 
L 196.167695 -37.55625 
L 196.571675 -37.55625 
L 196.975656 -37.55625 
L 197.379637 -37.55625 
L 197.783618 -37.55625 
L 198.187599 -37.55625 
L 198.59158 -37.55625 
L 198.995561 -37.55625 
L 199.399542 -37.55625 
L 199.803522 -37.55625 
L 200.207503 -37.55625 
L 200.611484 -37.55625 
L 201.015465 -37.55625 
L 201.419446 -37.55625 
L 201.823427 -37.55625 
L 202.227408 -37.55625 
L 202.631388 -37.55625 
L 203.035369 -37.55625 
L 203.43935 -37.55625 
L 203.843331 -37.55625 
L 204.247312 -37.55625 
L 204.651293 -37.55625 
L 205.055274 -37.55625 
L 205.459255 -37.55625 
L 205.863235 -37.55625 
L 206.267216 -37.55625 
L 206.671197 -37.55625 
L 207.075178 -37.55625 
L 207.479159 -37.55625 
L 207.88314 -37.55625 
L 208.287121 -37.55625 
L 208.691102 -37.55625 
L 209.095082 -37.55625 
L 209.499063 -37.55625 
L 209.903044 -37.55625 
L 210.307025 -37.55625 
L 210.711006 -37.55625 
L 211.114987 -37.55625 
L 211.518968 -37.55625 
L 211.922949 -37.55625 
L 212.326929 -37.55625 
L 212.73091 -37.55625 
L 213.134891 -37.55625 
L 213.538872 -37.55625 
L 213.942853 -37.55625 
L 214.346834 -37.55625 
L 214.750815 -37.55625 
L 215.154795 -37.55625 
L 215.558776 -37.55625 
L 215.962757 -37.55625 
L 216.366738 -37.55625 
L 216.770719 -37.55625 
L 217.1747 -37.55625 
L 217.578681 -37.55625 
L 217.982662 -37.55625 
L 218.386642 -37.55625 
L 218.790623 -37.55625 
L 219.194604 -37.55625 
L 219.598585 -37.55625 
L 220.002566 -37.55625 
L 220.406547 -37.55625 
L 220.810528 -37.55625 
L 221.214509 -37.55625 
L 221.618489 -37.55625 
L 222.02247 -37.55625 
L 222.426451 -37.55625 
L 222.830432 -37.55625 
L 223.234413 -37.55625 
L 223.638394 -37.55625 
L 224.042375 -37.55625 
L 224.446355 -37.55625 
L 224.850336 -37.55625 
L 225.254317 -37.55625 
L 225.658298 -37.55625 
L 226.062279 -37.55625 
L 226.46626 -37.55625 
L 226.870241 -37.55625 
L 227.274222 -37.55625 
L 227.274222 -37.563334 
L 227.274222 -37.563334 
L 226.870241 -37.567588 
L 226.46626 -37.573969 
L 226.062279 -37.583294 
L 225.658298 -37.596575 
L 225.254317 -37.61501 
L 224.850336 -37.639961 
L 224.446355 -37.672899 
L 224.042375 -37.715336 
L 223.638394 -37.768744 
L 223.234413 -37.834469 
L 222.830432 -37.913669 
L 222.426451 -38.0073 
L 222.02247 -38.116139 
L 221.618489 -38.240888 
L 221.214509 -38.382322 
L 220.810528 -38.541476 
L 220.406547 -38.71984 
L 220.002566 -38.919508 
L 219.598585 -39.143255 
L 219.194604 -39.39451 
L 218.790623 -39.677227 
L 218.386642 -39.995656 
L 217.982662 -40.354079 
L 217.578681 -40.75656 
L 217.1747 -41.206758 
L 216.770719 -41.707872 
L 216.366738 -42.262717 
L 215.962757 -42.873928 
L 215.558776 -43.544234 
L 215.154795 -44.276738 
L 214.750815 -45.075111 
L 214.346834 -45.943634 
L 213.942853 -46.887047 
L 213.538872 -47.910198 
L 213.134891 -49.017539 
L 212.73091 -50.212553 
L 212.326929 -51.497215 
L 211.922949 -52.871605 
L 211.518968 -54.333781 
L 211.114987 -55.879974 
L 210.711006 -57.505131 
L 210.307025 -59.203762 
L 209.903044 -60.970986 
L 209.499063 -62.803602 
L 209.095082 -64.700967 
L 208.691102 -66.66547 
L 208.287121 -68.702386 
L 207.88314 -70.819003 
L 207.479159 -73.02302 
L 207.075178 -75.320383 
L 206.671197 -77.712863 
L 206.267216 -80.1958 
L 205.863235 -82.756507 
L 205.459255 -85.373733 
L 205.055274 -88.018494 
L 204.651293 -90.656313 
L 204.247312 -93.250675 
L 203.843331 -95.767261 
L 203.43935 -98.178344 
L 203.035369 -100.466695 
L 202.631388 -102.628395 
L 202.227408 -104.674126 
L 201.823427 -106.628776 
L 201.419446 -108.529411 
L 201.015465 -110.421945 
L 200.611484 -112.356956 
L 200.207503 -114.385198 
L 199.803522 -116.553323 
L 199.399542 -118.900272 
L 198.995561 -121.454636 
L 198.59158 -124.233171 
L 198.187599 -127.240458 
L 197.783618 -130.469607 
L 197.379637 -133.903743 
L 196.975656 -137.51801 
L 196.571675 -141.281735 
L 196.167695 -145.160481 
L 195.763714 -149.117763 
L 195.359733 -153.1163 
L 194.955752 -157.118806 
L 194.551771 -161.088399 
L 194.14779 -164.988779 
L 193.743809 -168.784357 
L 193.339828 -172.440451 
L 192.935848 -175.923635 
L 192.531867 -179.20222 
L 192.127886 -182.246787 
L 191.723905 -185.03066 
L 191.319924 -187.530206 
L 190.915943 -189.724908 
L 190.511962 -191.597246 
L 190.107982 -193.132482 
L 189.704001 -194.31851 
L 189.30002 -195.145911 
L 188.896039 -195.6083 
L 188.492058 -195.702933 
L 188.088077 -195.431406 
L 187.684096 -194.800179 
L 187.280115 -193.820634 
L 186.876135 -192.50842 
L 186.472154 -190.882021 
L 186.068173 -188.960684 
L 185.664192 -186.76212 
L 185.260211 -184.300522 
L 184.85623 -181.585524 
L 184.452249 -178.622579 
L 184.048268 -175.414954 
L 183.644288 -171.96713 
L 183.240307 -168.289004 
L 182.836326 -164.399956 
L 182.432345 -160.331744 
L 182.028364 -156.129331 
L 181.624383 -151.849118 
L 181.220402 -147.554632 
L 180.816422 -143.310281 
L 180.412441 -139.174279 
L 180.00846 -135.192078 
L 179.604479 -131.391589 
L 179.200498 -127.7811 
L 178.796517 -124.350267 
L 178.392536 -121.073898 
L 177.988555 -117.917713 
L 177.584575 -114.844906 
L 177.180594 -111.822299 
L 176.776613 -108.825016 
L 176.372632 -105.83906 
L 175.968651 -102.861595 
L 175.56467 -99.899259 
L 175.160689 -96.96509 
L 174.756708 -94.074875 
L 174.352728 -91.243678 
L 173.948747 -88.483141 
L 173.544766 -85.799939 
L 173.140785 -83.195476 
L 172.736804 -80.66669 
L 172.332823 -78.20766 
L 171.928842 -75.811639 
L 171.524862 -73.47309 
L 171.120881 -71.189373 
L 170.7169 -68.961818 
L 170.312919 -66.79604 
L 169.908938 -64.701477 
L 169.504957 -62.690269 
L 169.100976 -60.775665 
L 168.696995 -58.970245 
L 168.293015 -57.284227 
L 167.889034 -55.724115 
L 167.485053 -54.291861 
L 167.081072 -52.984646 
L 166.677091 -51.795244 
L 166.27311 -50.712879 
L 165.869129 -49.72442 
L 165.465148 -48.81571 
L 165.061168 -47.972852 
L 164.657187 -47.18331 
L 164.253206 -46.436709 
L 163.849225 -45.725298 
L 163.445244 -45.044075 
L 163.041263 -44.390621 
L 162.637282 -43.76471 
L 162.233301 -43.167796 
L 161.829321 -42.60245 
L 161.42534 -42.071828 
L 161.021359 -41.579218 
L 160.617378 -41.127701 
L 160.213397 -40.719909 
L 159.809416 -40.357863 
L 159.405435 -40.042853 
L 159.001455 -39.775314 
L 158.597474 -39.554684 
L 158.193493 -39.379235 
L 157.789512 -39.245908 
L 157.385531 -39.150196 
L 156.98155 -39.086143 
L 156.577569 -39.046497 
L 156.173588 -39.023061 
L 155.769608 -39.007231 
L 155.365627 -38.990653 
L 154.961646 -38.965948 
L 154.557665 -38.927359 
L 154.153684 -38.87124 
L 153.749703 -38.796304 
L 153.345722 -38.703573 
L 152.941741 -38.596067 
L 152.537761 -38.478259 
L 152.13378 -38.355422 
L 151.729799 -38.232947 
L 151.325818 -38.115743 
L 150.921837 -38.007787 
L 150.517856 -37.911866 
L 150.113875 -37.829513 
L 149.709895 -37.761098 
L 149.305914 -37.706043 
L 148.901933 -37.663089 
L 148.497952 -37.630573 
L 148.093971 -37.606676 
L 147.68999 -37.589617 
L 147.286009 -37.577782 
L 146.882028 -37.569801 
z
" style="stroke: #f08080; stroke-width: 2"/>
    </defs>
    <g clip-path="url(#pf8bb1db20a)">
     <use xlink:href="#m22a0f07afb" x="0" y="211.07625" style="fill: #f08080; fill-opacity: 0.6; stroke: #f08080; stroke-width: 2"/>
    </g>
   </g>
   <g id="matplotlib.axis_1">
    <g id="xtick_1">
     <g id="line2d_1">
      <defs>
       <path id="m35121f6607" d="M 0 0 
L 0 3.5 
" style="stroke: #000000; stroke-width: 0.8"/>
      </defs>
      <g>
       <use xlink:href="#m35121f6607" x="40.603125" y="173.52" style="stroke: #000000; stroke-width: 0.8"/>
      </g>
     </g>
     <g id="text_1">
      <!-- 0.1 -->
      <g transform="translate(32.651563 188.118438) scale(0.1 -0.1)">
       <defs>
        <path id="DejaVuSans-30" d="M 2034 4250 
Q 1547 4250 1301 3770 
Q 1056 3291 1056 2328 
Q 1056 1369 1301 889 
Q 1547 409 2034 409 
Q 2525 409 2770 889 
Q 3016 1369 3016 2328 
Q 3016 3291 2770 3770 
Q 2525 4250 2034 4250 
z
M 2034 4750 
Q 2819 4750 3233 4129 
Q 3647 3509 3647 2328 
Q 3647 1150 3233 529 
Q 2819 -91 2034 -91 
Q 1250 -91 836 529 
Q 422 1150 422 2328 
Q 422 3509 836 4129 
Q 1250 4750 2034 4750 
z
" transform="scale(0.015625)"/>
        <path id="DejaVuSans-2e" d="M 684 794 
L 1344 794 
L 1344 0 
L 684 0 
L 684 794 
z
" transform="scale(0.015625)"/>
        <path id="DejaVuSans-31" d="M 794 531 
L 1825 531 
L 1825 4091 
L 703 3866 
L 703 4441 
L 1819 4666 
L 2450 4666 
L 2450 531 
L 3481 531 
L 3481 0 
L 794 0 
L 794 531 
z
" transform="scale(0.015625)"/>
       </defs>
       <use xlink:href="#DejaVuSans-30"/>
       <use xlink:href="#DejaVuSans-2e" x="63.623047"/>
       <use xlink:href="#DejaVuSans-31" x="95.410156"/>
      </g>
     </g>
    </g>
    <g id="xtick_2">
     <g id="line2d_2">
      <g>
       <use xlink:href="#m35121f6607" x="75.478125" y="173.52" style="stroke: #000000; stroke-width: 0.8"/>
      </g>
     </g>
     <g id="text_2">
      <!-- 0.2 -->
      <g transform="translate(67.526563 188.118438) scale(0.1 -0.1)">
       <defs>
        <path id="DejaVuSans-32" d="M 1228 531 
L 3431 531 
L 3431 0 
L 469 0 
L 469 531 
Q 828 903 1448 1529 
Q 2069 2156 2228 2338 
Q 2531 2678 2651 2914 
Q 2772 3150 2772 3378 
Q 2772 3750 2511 3984 
Q 2250 4219 1831 4219 
Q 1534 4219 1204 4116 
Q 875 4013 500 3803 
L 500 4441 
Q 881 4594 1212 4672 
Q 1544 4750 1819 4750 
Q 2544 4750 2975 4387 
Q 3406 4025 3406 3419 
Q 3406 3131 3298 2873 
Q 3191 2616 2906 2266 
Q 2828 2175 2409 1742 
Q 1991 1309 1228 531 
z
" transform="scale(0.015625)"/>
       </defs>
       <use xlink:href="#DejaVuSans-30"/>
       <use xlink:href="#DejaVuSans-2e" x="63.623047"/>
       <use xlink:href="#DejaVuSans-32" x="95.410156"/>
      </g>
     </g>
    </g>
    <g id="xtick_3">
     <g id="line2d_3">
      <g>
       <use xlink:href="#m35121f6607" x="110.353125" y="173.52" style="stroke: #000000; stroke-width: 0.8"/>
      </g>
     </g>
     <g id="text_3">
      <!-- 0.3 -->
      <g transform="translate(102.401563 188.118438) scale(0.1 -0.1)">
       <defs>
        <path id="DejaVuSans-33" d="M 2597 2516 
Q 3050 2419 3304 2112 
Q 3559 1806 3559 1356 
Q 3559 666 3084 287 
Q 2609 -91 1734 -91 
Q 1441 -91 1130 -33 
Q 819 25 488 141 
L 488 750 
Q 750 597 1062 519 
Q 1375 441 1716 441 
Q 2309 441 2620 675 
Q 2931 909 2931 1356 
Q 2931 1769 2642 2001 
Q 2353 2234 1838 2234 
L 1294 2234 
L 1294 2753 
L 1863 2753 
Q 2328 2753 2575 2939 
Q 2822 3125 2822 3475 
Q 2822 3834 2567 4026 
Q 2313 4219 1838 4219 
Q 1578 4219 1281 4162 
Q 984 4106 628 3988 
L 628 4550 
Q 988 4650 1302 4700 
Q 1616 4750 1894 4750 
Q 2613 4750 3031 4423 
Q 3450 4097 3450 3541 
Q 3450 3153 3228 2886 
Q 3006 2619 2597 2516 
z
" transform="scale(0.015625)"/>
       </defs>
       <use xlink:href="#DejaVuSans-30"/>
       <use xlink:href="#DejaVuSans-2e" x="63.623047"/>
       <use xlink:href="#DejaVuSans-33" x="95.410156"/>
      </g>
     </g>
    </g>
    <g id="xtick_4">
     <g id="line2d_4">
      <g>
       <use xlink:href="#m35121f6607" x="145.228125" y="173.52" style="stroke: #000000; stroke-width: 0.8"/>
      </g>
     </g>
     <g id="text_4">
      <!-- 0.4 -->
      <g transform="translate(137.276563 188.118438) scale(0.1 -0.1)">
       <defs>
        <path id="DejaVuSans-34" d="M 2419 4116 
L 825 1625 
L 2419 1625 
L 2419 4116 
z
M 2253 4666 
L 3047 4666 
L 3047 1625 
L 3713 1625 
L 3713 1100 
L 3047 1100 
L 3047 0 
L 2419 0 
L 2419 1100 
L 313 1100 
L 313 1709 
L 2253 4666 
z
" transform="scale(0.015625)"/>
       </defs>
       <use xlink:href="#DejaVuSans-30"/>
       <use xlink:href="#DejaVuSans-2e" x="63.623047"/>
       <use xlink:href="#DejaVuSans-34" x="95.410156"/>
      </g>
     </g>
    </g>
    <g id="xtick_5">
     <g id="line2d_5">
      <g>
       <use xlink:href="#m35121f6607" x="180.103125" y="173.52" style="stroke: #000000; stroke-width: 0.8"/>
      </g>
     </g>
     <g id="text_5">
      <!-- 0.5 -->
      <g transform="translate(172.151563 188.118438) scale(0.1 -0.1)">
       <defs>
        <path id="DejaVuSans-35" d="M 691 4666 
L 3169 4666 
L 3169 4134 
L 1269 4134 
L 1269 2991 
Q 1406 3038 1543 3061 
Q 1681 3084 1819 3084 
Q 2600 3084 3056 2656 
Q 3513 2228 3513 1497 
Q 3513 744 3044 326 
Q 2575 -91 1722 -91 
Q 1428 -91 1123 -41 
Q 819 9 494 109 
L 494 744 
Q 775 591 1075 516 
Q 1375 441 1709 441 
Q 2250 441 2565 725 
Q 2881 1009 2881 1497 
Q 2881 1984 2565 2268 
Q 2250 2553 1709 2553 
Q 1456 2553 1204 2497 
Q 953 2441 691 2322 
L 691 4666 
z
" transform="scale(0.015625)"/>
       </defs>
       <use xlink:href="#DejaVuSans-30"/>
       <use xlink:href="#DejaVuSans-2e" x="63.623047"/>
       <use xlink:href="#DejaVuSans-35" x="95.410156"/>
      </g>
     </g>
    </g>
    <g id="xtick_6">
     <g id="line2d_6">
      <g>
       <use xlink:href="#m35121f6607" x="214.978125" y="173.52" style="stroke: #000000; stroke-width: 0.8"/>
      </g>
     </g>
     <g id="text_6">
      <!-- 0.6 -->
      <g transform="translate(207.026563 188.118438) scale(0.1 -0.1)">
       <defs>
        <path id="DejaVuSans-36" d="M 2113 2584 
Q 1688 2584 1439 2293 
Q 1191 2003 1191 1497 
Q 1191 994 1439 701 
Q 1688 409 2113 409 
Q 2538 409 2786 701 
Q 3034 994 3034 1497 
Q 3034 2003 2786 2293 
Q 2538 2584 2113 2584 
z
M 3366 4563 
L 3366 3988 
Q 3128 4100 2886 4159 
Q 2644 4219 2406 4219 
Q 1781 4219 1451 3797 
Q 1122 3375 1075 2522 
Q 1259 2794 1537 2939 
Q 1816 3084 2150 3084 
Q 2853 3084 3261 2657 
Q 3669 2231 3669 1497 
Q 3669 778 3244 343 
Q 2819 -91 2113 -91 
Q 1303 -91 875 529 
Q 447 1150 447 2328 
Q 447 3434 972 4092 
Q 1497 4750 2381 4750 
Q 2619 4750 2861 4703 
Q 3103 4656 3366 4563 
z
" transform="scale(0.015625)"/>
       </defs>
       <use xlink:href="#DejaVuSans-30"/>
       <use xlink:href="#DejaVuSans-2e" x="63.623047"/>
       <use xlink:href="#DejaVuSans-36" x="95.410156"/>
      </g>
     </g>
    </g>
    <g id="xtick_7">
     <g id="line2d_7">
      <g>
       <use xlink:href="#m35121f6607" x="249.853125" y="173.52" style="stroke: #000000; stroke-width: 0.8"/>
      </g>
     </g>
     <g id="text_7">
      <!-- 0.7 -->
      <g transform="translate(241.901563 188.118438) scale(0.1 -0.1)">
       <defs>
        <path id="DejaVuSans-37" d="M 525 4666 
L 3525 4666 
L 3525 4397 
L 1831 0 
L 1172 0 
L 2766 4134 
L 525 4134 
L 525 4666 
z
" transform="scale(0.015625)"/>
       </defs>
       <use xlink:href="#DejaVuSans-30"/>
       <use xlink:href="#DejaVuSans-2e" x="63.623047"/>
       <use xlink:href="#DejaVuSans-37" x="95.410156"/>
      </g>
     </g>
    </g>
    <g id="xtick_8">
     <g id="line2d_8">
      <g>
       <use xlink:href="#m35121f6607" x="284.728125" y="173.52" style="stroke: #000000; stroke-width: 0.8"/>
      </g>
     </g>
     <g id="text_8">
      <!-- 0.8 -->
      <g transform="translate(276.776562 188.118438) scale(0.1 -0.1)">
       <defs>
        <path id="DejaVuSans-38" d="M 2034 2216 
Q 1584 2216 1326 1975 
Q 1069 1734 1069 1313 
Q 1069 891 1326 650 
Q 1584 409 2034 409 
Q 2484 409 2743 651 
Q 3003 894 3003 1313 
Q 3003 1734 2745 1975 
Q 2488 2216 2034 2216 
z
M 1403 2484 
Q 997 2584 770 2862 
Q 544 3141 544 3541 
Q 544 4100 942 4425 
Q 1341 4750 2034 4750 
Q 2731 4750 3128 4425 
Q 3525 4100 3525 3541 
Q 3525 3141 3298 2862 
Q 3072 2584 2669 2484 
Q 3125 2378 3379 2068 
Q 3634 1759 3634 1313 
Q 3634 634 3220 271 
Q 2806 -91 2034 -91 
Q 1263 -91 848 271 
Q 434 634 434 1313 
Q 434 1759 690 2068 
Q 947 2378 1403 2484 
z
M 1172 3481 
Q 1172 3119 1398 2916 
Q 1625 2713 2034 2713 
Q 2441 2713 2670 2916 
Q 2900 3119 2900 3481 
Q 2900 3844 2670 4047 
Q 2441 4250 2034 4250 
Q 1625 4250 1398 4047 
Q 1172 3844 1172 3481 
z
" transform="scale(0.015625)"/>
       </defs>
       <use xlink:href="#DejaVuSans-30"/>
       <use xlink:href="#DejaVuSans-2e" x="63.623047"/>
       <use xlink:href="#DejaVuSans-38" x="95.410156"/>
      </g>
     </g>
    </g>
    <g id="xtick_9">
     <g id="line2d_9">
      <g>
       <use xlink:href="#m35121f6607" x="319.603125" y="173.52" style="stroke: #000000; stroke-width: 0.8"/>
      </g>
     </g>
     <g id="text_9">
      <!-- 0.9 -->
      <g transform="translate(311.651562 188.118438) scale(0.1 -0.1)">
       <defs>
        <path id="DejaVuSans-39" d="M 703 97 
L 703 672 
Q 941 559 1184 500 
Q 1428 441 1663 441 
Q 2288 441 2617 861 
Q 2947 1281 2994 2138 
Q 2813 1869 2534 1725 
Q 2256 1581 1919 1581 
Q 1219 1581 811 2004 
Q 403 2428 403 3163 
Q 403 3881 828 4315 
Q 1253 4750 1959 4750 
Q 2769 4750 3195 4129 
Q 3622 3509 3622 2328 
Q 3622 1225 3098 567 
Q 2575 -91 1691 -91 
Q 1453 -91 1209 -44 
Q 966 3 703 97 
z
M 1959 2075 
Q 2384 2075 2632 2365 
Q 2881 2656 2881 3163 
Q 2881 3666 2632 3958 
Q 2384 4250 1959 4250 
Q 1534 4250 1286 3958 
Q 1038 3666 1038 3163 
Q 1038 2656 1286 2365 
Q 1534 2075 1959 2075 
z
" transform="scale(0.015625)"/>
       </defs>
       <use xlink:href="#DejaVuSans-30"/>
       <use xlink:href="#DejaVuSans-2e" x="63.623047"/>
       <use xlink:href="#DejaVuSans-39" x="95.410156"/>
      </g>
     </g>
    </g>
    <g id="text_10">
     <!-- Accuracy -->
     <g transform="translate(157.275 201.796563) scale(0.1 -0.1)">
      <defs>
       <path id="DejaVuSans-41" d="M 2188 4044 
L 1331 1722 
L 3047 1722 
L 2188 4044 
z
M 1831 4666 
L 2547 4666 
L 4325 0 
L 3669 0 
L 3244 1197 
L 1141 1197 
L 716 0 
L 50 0 
L 1831 4666 
z
" transform="scale(0.015625)"/>
       <path id="DejaVuSans-63" d="M 3122 3366 
L 3122 2828 
Q 2878 2963 2633 3030 
Q 2388 3097 2138 3097 
Q 1578 3097 1268 2742 
Q 959 2388 959 1747 
Q 959 1106 1268 751 
Q 1578 397 2138 397 
Q 2388 397 2633 464 
Q 2878 531 3122 666 
L 3122 134 
Q 2881 22 2623 -34 
Q 2366 -91 2075 -91 
Q 1284 -91 818 406 
Q 353 903 353 1747 
Q 353 2603 823 3093 
Q 1294 3584 2113 3584 
Q 2378 3584 2631 3529 
Q 2884 3475 3122 3366 
z
" transform="scale(0.015625)"/>
       <path id="DejaVuSans-75" d="M 544 1381 
L 544 3500 
L 1119 3500 
L 1119 1403 
Q 1119 906 1312 657 
Q 1506 409 1894 409 
Q 2359 409 2629 706 
Q 2900 1003 2900 1516 
L 2900 3500 
L 3475 3500 
L 3475 0 
L 2900 0 
L 2900 538 
Q 2691 219 2414 64 
Q 2138 -91 1772 -91 
Q 1169 -91 856 284 
Q 544 659 544 1381 
z
M 1991 3584 
L 1991 3584 
z
" transform="scale(0.015625)"/>
       <path id="DejaVuSans-72" d="M 2631 2963 
Q 2534 3019 2420 3045 
Q 2306 3072 2169 3072 
Q 1681 3072 1420 2755 
Q 1159 2438 1159 1844 
L 1159 0 
L 581 0 
L 581 3500 
L 1159 3500 
L 1159 2956 
Q 1341 3275 1631 3429 
Q 1922 3584 2338 3584 
Q 2397 3584 2469 3576 
Q 2541 3569 2628 3553 
L 2631 2963 
z
" transform="scale(0.015625)"/>
       <path id="DejaVuSans-61" d="M 2194 1759 
Q 1497 1759 1228 1600 
Q 959 1441 959 1056 
Q 959 750 1161 570 
Q 1363 391 1709 391 
Q 2188 391 2477 730 
Q 2766 1069 2766 1631 
L 2766 1759 
L 2194 1759 
z
M 3341 1997 
L 3341 0 
L 2766 0 
L 2766 531 
Q 2569 213 2275 61 
Q 1981 -91 1556 -91 
Q 1019 -91 701 211 
Q 384 513 384 1019 
Q 384 1609 779 1909 
Q 1175 2209 1959 2209 
L 2766 2209 
L 2766 2266 
Q 2766 2663 2505 2880 
Q 2244 3097 1772 3097 
Q 1472 3097 1187 3025 
Q 903 2953 641 2809 
L 641 3341 
Q 956 3463 1253 3523 
Q 1550 3584 1831 3584 
Q 2591 3584 2966 3190 
Q 3341 2797 3341 1997 
z
" transform="scale(0.015625)"/>
       <path id="DejaVuSans-79" d="M 2059 -325 
Q 1816 -950 1584 -1140 
Q 1353 -1331 966 -1331 
L 506 -1331 
L 506 -850 
L 844 -850 
Q 1081 -850 1212 -737 
Q 1344 -625 1503 -206 
L 1606 56 
L 191 3500 
L 800 3500 
L 1894 763 
L 2988 3500 
L 3597 3500 
L 2059 -325 
z
" transform="scale(0.015625)"/>
      </defs>
      <use xlink:href="#DejaVuSans-41"/>
      <use xlink:href="#DejaVuSans-63" x="66.658203"/>
      <use xlink:href="#DejaVuSans-63" x="121.638672"/>
      <use xlink:href="#DejaVuSans-75" x="176.619141"/>
      <use xlink:href="#DejaVuSans-72" x="239.998047"/>
      <use xlink:href="#DejaVuSans-61" x="281.111328"/>
      <use xlink:href="#DejaVuSans-63" x="342.390625"/>
      <use xlink:href="#DejaVuSans-79" x="397.371094"/>
     </g>
    </g>
   </g>
   <g id="matplotlib.axis_2">
    <g id="ytick_1">
     <g id="line2d_10">
      <defs>
       <path id="m2868a82a23" d="M 0 0 
L -3.5 0 
" style="stroke: #000000; stroke-width: 0.8"/>
      </defs>
      <g>
       <use xlink:href="#m2868a82a23" x="40.603125" y="173.52" style="stroke: #000000; stroke-width: 0.8"/>
      </g>
     </g>
     <g id="text_11">
      <!-- 0 -->
      <g transform="translate(27.240625 177.319219) scale(0.1 -0.1)">
       <use xlink:href="#DejaVuSans-30"/>
      </g>
     </g>
    </g>
    <g id="ytick_2">
     <g id="line2d_11">
      <g>
       <use xlink:href="#m2868a82a23" x="40.603125" y="151.183419" style="stroke: #000000; stroke-width: 0.8"/>
      </g>
     </g>
     <g id="text_12">
      <!-- 2 -->
      <g transform="translate(27.240625 154.982638) scale(0.1 -0.1)">
       <use xlink:href="#DejaVuSans-32"/>
      </g>
     </g>
    </g>
    <g id="ytick_3">
     <g id="line2d_12">
      <g>
       <use xlink:href="#m2868a82a23" x="40.603125" y="128.846839" style="stroke: #000000; stroke-width: 0.8"/>
      </g>
     </g>
     <g id="text_13">
      <!-- 4 -->
      <g transform="translate(27.240625 132.646058) scale(0.1 -0.1)">
       <use xlink:href="#DejaVuSans-34"/>
      </g>
     </g>
    </g>
    <g id="ytick_4">
     <g id="line2d_13">
      <g>
       <use xlink:href="#m2868a82a23" x="40.603125" y="106.510258" style="stroke: #000000; stroke-width: 0.8"/>
      </g>
     </g>
     <g id="text_14">
      <!-- 6 -->
      <g transform="translate(27.240625 110.309477) scale(0.1 -0.1)">
       <use xlink:href="#DejaVuSans-36"/>
      </g>
     </g>
    </g>
    <g id="ytick_5">
     <g id="line2d_14">
      <g>
       <use xlink:href="#m2868a82a23" x="40.603125" y="84.173678" style="stroke: #000000; stroke-width: 0.8"/>
      </g>
     </g>
     <g id="text_15">
      <!-- 8 -->
      <g transform="translate(27.240625 87.972896) scale(0.1 -0.1)">
       <use xlink:href="#DejaVuSans-38"/>
      </g>
     </g>
    </g>
    <g id="ytick_6">
     <g id="line2d_15">
      <g>
       <use xlink:href="#m2868a82a23" x="40.603125" y="61.837097" style="stroke: #000000; stroke-width: 0.8"/>
      </g>
     </g>
     <g id="text_16">
      <!-- 10 -->
      <g transform="translate(20.878125 65.636316) scale(0.1 -0.1)">
       <use xlink:href="#DejaVuSans-31"/>
       <use xlink:href="#DejaVuSans-30" x="63.623047"/>
      </g>
     </g>
    </g>
    <g id="ytick_7">
     <g id="line2d_16">
      <g>
       <use xlink:href="#m2868a82a23" x="40.603125" y="39.500516" style="stroke: #000000; stroke-width: 0.8"/>
      </g>
     </g>
     <g id="text_17">
      <!-- 12 -->
      <g transform="translate(20.878125 43.299735) scale(0.1 -0.1)">
       <use xlink:href="#DejaVuSans-31"/>
       <use xlink:href="#DejaVuSans-32" x="63.623047"/>
      </g>
     </g>
    </g>
    <g id="ytick_8">
     <g id="line2d_17">
      <g>
       <use xlink:href="#m2868a82a23" x="40.603125" y="17.163936" style="stroke: #000000; stroke-width: 0.8"/>
      </g>
     </g>
     <g id="text_18">
      <!-- 14 -->
      <g transform="translate(20.878125 20.963154) scale(0.1 -0.1)">
       <use xlink:href="#DejaVuSans-31"/>
       <use xlink:href="#DejaVuSans-34" x="63.623047"/>
      </g>
     </g>
    </g>
    <g id="text_19">
     <!-- Density -->
     <g transform="translate(14.798438 109.368594) rotate(-90) scale(0.1 -0.1)">
      <defs>
       <path id="DejaVuSans-44" d="M 1259 4147 
L 1259 519 
L 2022 519 
Q 2988 519 3436 956 
Q 3884 1394 3884 2338 
Q 3884 3275 3436 3711 
Q 2988 4147 2022 4147 
L 1259 4147 
z
M 628 4666 
L 1925 4666 
Q 3281 4666 3915 4102 
Q 4550 3538 4550 2338 
Q 4550 1131 3912 565 
Q 3275 0 1925 0 
L 628 0 
L 628 4666 
z
" transform="scale(0.015625)"/>
       <path id="DejaVuSans-65" d="M 3597 1894 
L 3597 1613 
L 953 1613 
Q 991 1019 1311 708 
Q 1631 397 2203 397 
Q 2534 397 2845 478 
Q 3156 559 3463 722 
L 3463 178 
Q 3153 47 2828 -22 
Q 2503 -91 2169 -91 
Q 1331 -91 842 396 
Q 353 884 353 1716 
Q 353 2575 817 3079 
Q 1281 3584 2069 3584 
Q 2775 3584 3186 3129 
Q 3597 2675 3597 1894 
z
M 3022 2063 
Q 3016 2534 2758 2815 
Q 2500 3097 2075 3097 
Q 1594 3097 1305 2825 
Q 1016 2553 972 2059 
L 3022 2063 
z
" transform="scale(0.015625)"/>
       <path id="DejaVuSans-6e" d="M 3513 2113 
L 3513 0 
L 2938 0 
L 2938 2094 
Q 2938 2591 2744 2837 
Q 2550 3084 2163 3084 
Q 1697 3084 1428 2787 
Q 1159 2491 1159 1978 
L 1159 0 
L 581 0 
L 581 3500 
L 1159 3500 
L 1159 2956 
Q 1366 3272 1645 3428 
Q 1925 3584 2291 3584 
Q 2894 3584 3203 3211 
Q 3513 2838 3513 2113 
z
" transform="scale(0.015625)"/>
       <path id="DejaVuSans-73" d="M 2834 3397 
L 2834 2853 
Q 2591 2978 2328 3040 
Q 2066 3103 1784 3103 
Q 1356 3103 1142 2972 
Q 928 2841 928 2578 
Q 928 2378 1081 2264 
Q 1234 2150 1697 2047 
L 1894 2003 
Q 2506 1872 2764 1633 
Q 3022 1394 3022 966 
Q 3022 478 2636 193 
Q 2250 -91 1575 -91 
Q 1294 -91 989 -36 
Q 684 19 347 128 
L 347 722 
Q 666 556 975 473 
Q 1284 391 1588 391 
Q 1994 391 2212 530 
Q 2431 669 2431 922 
Q 2431 1156 2273 1281 
Q 2116 1406 1581 1522 
L 1381 1569 
Q 847 1681 609 1914 
Q 372 2147 372 2553 
Q 372 3047 722 3315 
Q 1072 3584 1716 3584 
Q 2034 3584 2315 3537 
Q 2597 3491 2834 3397 
z
" transform="scale(0.015625)"/>
       <path id="DejaVuSans-69" d="M 603 3500 
L 1178 3500 
L 1178 0 
L 603 0 
L 603 3500 
z
M 603 4863 
L 1178 4863 
L 1178 4134 
L 603 4134 
L 603 4863 
z
" transform="scale(0.015625)"/>
       <path id="DejaVuSans-74" d="M 1172 4494 
L 1172 3500 
L 2356 3500 
L 2356 3053 
L 1172 3053 
L 1172 1153 
Q 1172 725 1289 603 
Q 1406 481 1766 481 
L 2356 481 
L 2356 0 
L 1766 0 
Q 1100 0 847 248 
Q 594 497 594 1153 
L 594 3053 
L 172 3053 
L 172 3500 
L 594 3500 
L 594 4494 
L 1172 4494 
z
" transform="scale(0.015625)"/>
      </defs>
      <use xlink:href="#DejaVuSans-44"/>
      <use xlink:href="#DejaVuSans-65" x="77.001953"/>
      <use xlink:href="#DejaVuSans-6e" x="138.525391"/>
      <use xlink:href="#DejaVuSans-73" x="201.904297"/>
      <use xlink:href="#DejaVuSans-69" x="254.003906"/>
      <use xlink:href="#DejaVuSans-74" x="281.787109"/>
      <use xlink:href="#DejaVuSans-79" x="320.996094"/>
     </g>
    </g>
   </g>
   <g id="line2d_18">
    <path d="M 112.645575 173.52 
L 112.645575 7.2 
" clip-path="url(#pf8bb1db20a)" style="fill: none; stroke-dasharray: 7.4,3.2; stroke-dashoffset: 0; stroke: #000000; stroke-width: 2"/>
   </g>
   <g id="line2d_19">
    <path d="M 189.077625 173.52 
L 189.077625 7.2 
" clip-path="url(#pf8bb1db20a)" style="fill: none; stroke-dasharray: 7.4,3.2; stroke-dashoffset: 0; stroke: #000000; stroke-width: 2"/>
   </g>
   <g id="patch_3">
    <path d="M 40.603125 173.52 
L 40.603125 7.2 
" style="fill: none; stroke: #000000; stroke-width: 0.8; stroke-linejoin: miter; stroke-linecap: square"/>
   </g>
   <g id="patch_4">
    <path d="M 40.603125 173.52 
L 319.603125 173.52 
" style="fill: none; stroke: #000000; stroke-width: 0.8; stroke-linejoin: miter; stroke-linecap: square"/>
   </g>
   <g id="legend_1">
    <g id="patch_5">
     <path d="M 201.053125 61.18825 
L 305.295313 61.18825 
Q 307.295313 61.18825 307.295313 59.18825 
L 307.295313 30.832 
Q 307.295313 28.832 305.295313 28.832 
L 201.053125 28.832 
Q 199.053125 28.832 199.053125 30.832 
L 199.053125 59.18825 
Q 199.053125 61.18825 201.053125 61.18825 
z
" style="fill: #ffffff; opacity: 0.8; stroke: #cccccc; stroke-linejoin: miter"/>
    </g>
    <g id="patch_6">
     <path d="M 203.053125 40.430438 
L 223.053125 40.430438 
L 223.053125 33.430438 
L 203.053125 33.430438 
z
" style="fill: #0000ff; fill-opacity: 0.6; stroke: #0000ff; stroke-width: 2; stroke-linejoin: miter"/>
    </g>
    <g id="text_20">
     <!-- Prompt based -->
     <g transform="translate(231.053125 40.430438) scale(0.1 -0.1)">
      <defs>
       <path id="DejaVuSans-50" d="M 1259 4147 
L 1259 2394 
L 2053 2394 
Q 2494 2394 2734 2622 
Q 2975 2850 2975 3272 
Q 2975 3691 2734 3919 
Q 2494 4147 2053 4147 
L 1259 4147 
z
M 628 4666 
L 2053 4666 
Q 2838 4666 3239 4311 
Q 3641 3956 3641 3272 
Q 3641 2581 3239 2228 
Q 2838 1875 2053 1875 
L 1259 1875 
L 1259 0 
L 628 0 
L 628 4666 
z
" transform="scale(0.015625)"/>
       <path id="DejaVuSans-6f" d="M 1959 3097 
Q 1497 3097 1228 2736 
Q 959 2375 959 1747 
Q 959 1119 1226 758 
Q 1494 397 1959 397 
Q 2419 397 2687 759 
Q 2956 1122 2956 1747 
Q 2956 2369 2687 2733 
Q 2419 3097 1959 3097 
z
M 1959 3584 
Q 2709 3584 3137 3096 
Q 3566 2609 3566 1747 
Q 3566 888 3137 398 
Q 2709 -91 1959 -91 
Q 1206 -91 779 398 
Q 353 888 353 1747 
Q 353 2609 779 3096 
Q 1206 3584 1959 3584 
z
" transform="scale(0.015625)"/>
       <path id="DejaVuSans-6d" d="M 3328 2828 
Q 3544 3216 3844 3400 
Q 4144 3584 4550 3584 
Q 5097 3584 5394 3201 
Q 5691 2819 5691 2113 
L 5691 0 
L 5113 0 
L 5113 2094 
Q 5113 2597 4934 2840 
Q 4756 3084 4391 3084 
Q 3944 3084 3684 2787 
Q 3425 2491 3425 1978 
L 3425 0 
L 2847 0 
L 2847 2094 
Q 2847 2600 2669 2842 
Q 2491 3084 2119 3084 
Q 1678 3084 1418 2786 
Q 1159 2488 1159 1978 
L 1159 0 
L 581 0 
L 581 3500 
L 1159 3500 
L 1159 2956 
Q 1356 3278 1631 3431 
Q 1906 3584 2284 3584 
Q 2666 3584 2933 3390 
Q 3200 3197 3328 2828 
z
" transform="scale(0.015625)"/>
       <path id="DejaVuSans-70" d="M 1159 525 
L 1159 -1331 
L 581 -1331 
L 581 3500 
L 1159 3500 
L 1159 2969 
Q 1341 3281 1617 3432 
Q 1894 3584 2278 3584 
Q 2916 3584 3314 3078 
Q 3713 2572 3713 1747 
Q 3713 922 3314 415 
Q 2916 -91 2278 -91 
Q 1894 -91 1617 61 
Q 1341 213 1159 525 
z
M 3116 1747 
Q 3116 2381 2855 2742 
Q 2594 3103 2138 3103 
Q 1681 3103 1420 2742 
Q 1159 2381 1159 1747 
Q 1159 1113 1420 752 
Q 1681 391 2138 391 
Q 2594 391 2855 752 
Q 3116 1113 3116 1747 
z
" transform="scale(0.015625)"/>
       <path id="DejaVuSans-20" transform="scale(0.015625)"/>
       <path id="DejaVuSans-62" d="M 3116 1747 
Q 3116 2381 2855 2742 
Q 2594 3103 2138 3103 
Q 1681 3103 1420 2742 
Q 1159 2381 1159 1747 
Q 1159 1113 1420 752 
Q 1681 391 2138 391 
Q 2594 391 2855 752 
Q 3116 1113 3116 1747 
z
M 1159 2969 
Q 1341 3281 1617 3432 
Q 1894 3584 2278 3584 
Q 2916 3584 3314 3078 
Q 3713 2572 3713 1747 
Q 3713 922 3314 415 
Q 2916 -91 2278 -91 
Q 1894 -91 1617 61 
Q 1341 213 1159 525 
L 1159 0 
L 581 0 
L 581 4863 
L 1159 4863 
L 1159 2969 
z
" transform="scale(0.015625)"/>
       <path id="DejaVuSans-64" d="M 2906 2969 
L 2906 4863 
L 3481 4863 
L 3481 0 
L 2906 0 
L 2906 525 
Q 2725 213 2448 61 
Q 2172 -91 1784 -91 
Q 1150 -91 751 415 
Q 353 922 353 1747 
Q 353 2572 751 3078 
Q 1150 3584 1784 3584 
Q 2172 3584 2448 3432 
Q 2725 3281 2906 2969 
z
M 947 1747 
Q 947 1113 1208 752 
Q 1469 391 1925 391 
Q 2381 391 2643 752 
Q 2906 1113 2906 1747 
Q 2906 2381 2643 2742 
Q 2381 3103 1925 3103 
Q 1469 3103 1208 2742 
Q 947 2381 947 1747 
z
" transform="scale(0.015625)"/>
      </defs>
      <use xlink:href="#DejaVuSans-50"/>
      <use xlink:href="#DejaVuSans-72" x="58.552734"/>
      <use xlink:href="#DejaVuSans-6f" x="97.416016"/>
      <use xlink:href="#DejaVuSans-6d" x="158.597656"/>
      <use xlink:href="#DejaVuSans-70" x="256.009766"/>
      <use xlink:href="#DejaVuSans-74" x="319.486328"/>
      <use xlink:href="#DejaVuSans-20" x="358.695312"/>
      <use xlink:href="#DejaVuSans-62" x="390.482422"/>
      <use xlink:href="#DejaVuSans-61" x="453.958984"/>
      <use xlink:href="#DejaVuSans-73" x="515.238281"/>
      <use xlink:href="#DejaVuSans-65" x="567.337891"/>
      <use xlink:href="#DejaVuSans-64" x="628.861328"/>
     </g>
    </g>
    <g id="patch_7">
     <path d="M 203.053125 55.108563 
L 223.053125 55.108563 
L 223.053125 48.108563 
L 203.053125 48.108563 
z
" style="fill: #f08080; fill-opacity: 0.6; stroke: #f08080; stroke-width: 2; stroke-linejoin: miter"/>
    </g>
    <g id="text_21">
     <!-- KG-RAG based -->
     <g transform="translate(231.053125 55.108563) scale(0.1 -0.1)">
      <defs>
       <path id="DejaVuSans-4b" d="M 628 4666 
L 1259 4666 
L 1259 2694 
L 3353 4666 
L 4166 4666 
L 1850 2491 
L 4331 0 
L 3500 0 
L 1259 2247 
L 1259 0 
L 628 0 
L 628 4666 
z
" transform="scale(0.015625)"/>
       <path id="DejaVuSans-47" d="M 3809 666 
L 3809 1919 
L 2778 1919 
L 2778 2438 
L 4434 2438 
L 4434 434 
Q 4069 175 3628 42 
Q 3188 -91 2688 -91 
Q 1594 -91 976 548 
Q 359 1188 359 2328 
Q 359 3472 976 4111 
Q 1594 4750 2688 4750 
Q 3144 4750 3555 4637 
Q 3966 4525 4313 4306 
L 4313 3634 
Q 3963 3931 3569 4081 
Q 3175 4231 2741 4231 
Q 1884 4231 1454 3753 
Q 1025 3275 1025 2328 
Q 1025 1384 1454 906 
Q 1884 428 2741 428 
Q 3075 428 3337 486 
Q 3600 544 3809 666 
z
" transform="scale(0.015625)"/>
       <path id="DejaVuSans-2d" d="M 313 2009 
L 1997 2009 
L 1997 1497 
L 313 1497 
L 313 2009 
z
" transform="scale(0.015625)"/>
       <path id="DejaVuSans-52" d="M 2841 2188 
Q 3044 2119 3236 1894 
Q 3428 1669 3622 1275 
L 4263 0 
L 3584 0 
L 2988 1197 
Q 2756 1666 2539 1819 
Q 2322 1972 1947 1972 
L 1259 1972 
L 1259 0 
L 628 0 
L 628 4666 
L 2053 4666 
Q 2853 4666 3247 4331 
Q 3641 3997 3641 3322 
Q 3641 2881 3436 2590 
Q 3231 2300 2841 2188 
z
M 1259 4147 
L 1259 2491 
L 2053 2491 
Q 2509 2491 2742 2702 
Q 2975 2913 2975 3322 
Q 2975 3731 2742 3939 
Q 2509 4147 2053 4147 
L 1259 4147 
z
" transform="scale(0.015625)"/>
      </defs>
      <use xlink:href="#DejaVuSans-4b"/>
      <use xlink:href="#DejaVuSans-47" x="65.576172"/>
      <use xlink:href="#DejaVuSans-2d" x="143.066406"/>
      <use xlink:href="#DejaVuSans-52" x="179.150391"/>
      <use xlink:href="#DejaVuSans-41" x="244.632812"/>
      <use xlink:href="#DejaVuSans-47" x="311.291016"/>
      <use xlink:href="#DejaVuSans-20" x="388.78125"/>
      <use xlink:href="#DejaVuSans-62" x="420.568359"/>
      <use xlink:href="#DejaVuSans-61" x="484.044922"/>
      <use xlink:href="#DejaVuSans-73" x="545.324219"/>
      <use xlink:href="#DejaVuSans-65" x="597.423828"/>
      <use xlink:href="#DejaVuSans-64" x="658.947266"/>
     </g>
    </g>
   </g>
  </g>
 </g>
 <defs>
  <clipPath id="pf8bb1db20a">
   <rect x="40.603125" y="7.2" width="279" height="166.32"/>
  </clipPath>
 </defs>
</svg>
